<svg width="7" height="8" viewBox="0 0 7 8" fill="none" xmlns="http://www.w3.org/2000/svg">
<path d="M4.66667 0H2.33333V0.761905H4.66667V0ZM3.11111 4.95238H3.88889V2.66667H3.11111V4.95238ZM6.23389 2.43429L6.78611 1.89333C6.61889 1.69905 6.43611 1.51619 6.23778 1.35619L5.68556 1.89714C5.08278 1.42476 4.32444 1.14286 3.5 1.14286C1.56722 1.14286 0 2.6781 0 4.57143C0 6.46476 1.56333 8 3.5 8C5.43667 8 7 6.46476 7 4.57143C7 3.76381 6.71222 3.02095 6.23389 2.43429ZM3.5 7.2381C1.995 7.2381 0.777778 6.04571 0.777778 4.57143C0.777778 3.09714 1.995 1.90476 3.5 1.90476C5.005 1.90476 6.22222 3.09714 6.22222 4.57143C6.22222 6.04571 5.005 7.2381 3.5 7.2381Z" fill="#3A3A3A"/>
</svg>
