<svg width="43" height="43" viewBox="0 0 43 43" fill="none" xmlns="http://www.w3.org/2000/svg">
<path d="M21.5 0C9.64442 0 0 9.64442 0 21.5C0 33.3556 9.64442 43 21.5 43C33.3556 43 43 33.3556 43 21.5C43 9.64442 33.3556 0 21.5 0ZM29.4175 26.8839C30.1179 27.5846 30.1179 28.7168 29.4175 29.4175C29.0681 29.7669 28.6095 29.9424 28.1505 29.9424C27.6919 29.9424 27.2332 29.7669 26.8839 29.4175L21.5 24.0333L16.1161 29.4175C15.7668 29.7669 15.3081 29.9424 14.8495 29.9424C14.3905 29.9424 13.9319 29.7669 13.5825 29.4175C12.8821 28.7168 12.8821 27.5846 13.5825 26.8839L18.9667 21.5L13.5825 16.1161C12.8821 15.4154 12.8821 14.2832 13.5825 13.5825C14.2832 12.8821 15.4154 12.8821 16.1161 13.5825L21.5 18.9667L26.8839 13.5825C27.5846 12.8821 28.7168 12.8821 29.4175 13.5825C30.1179 14.2832 30.1179 15.4154 29.4175 16.1161L24.0333 21.5L29.4175 26.8839Z" fill="#FF4440"/>
</svg>
