<svg width="28" height="28" viewBox="0 0 28 28" fill="none" xmlns="http://www.w3.org/2000/svg">
<path d="M23.8539 1.06121C23.7401 0.947347 23.5853 0.884071 23.4243 0.885776C23.2638 0.886912 23.1102 0.94962 22.9948 1.06121L14.3298 9.72584L14.3057 9.75028L14.2936 9.7624C14.2816 9.78059 14.2635 9.79877 14.2513 9.81677C14.2513 9.82283 14.2453 9.82283 14.2453 9.8289C14.2331 9.8469 14.2269 9.85921 14.215 9.87721C14.2087 9.88327 14.2087 9.88952 14.2028 9.89539C14.1968 9.91358 14.1909 9.92571 14.1847 9.94389C14.1847 9.94995 14.1786 9.94995 14.1786 9.95583L12.6355 14.6091C12.5616 14.8256 12.6179 15.0656 12.781 15.2263C12.8953 15.339 13.0497 15.4021 13.2103 15.4017C13.2761 15.4004 13.3414 15.3904 13.4041 15.3714L18.0452 13.8225C18.0511 13.8225 18.0511 13.8225 18.0572 13.8164C18.0763 13.8109 18.0949 13.8028 18.1115 13.7924C18.1163 13.7916 18.1206 13.7895 18.1239 13.7861C18.1419 13.7742 18.1661 13.762 18.1843 13.7497C18.2023 13.7376 18.2205 13.7194 18.2387 13.7075C18.2449 13.7016 18.2508 13.7016 18.2508 13.6954C18.2569 13.6893 18.269 13.6832 18.2752 13.6713L26.9457 5.00042C27.0592 4.88712 27.1229 4.73367 27.1229 4.57378C27.1229 4.41369 27.0592 4.26005 26.9457 4.14714L23.8539 1.06121ZM15.0197 11.275L16.7322 12.9874L14.1665 13.8405L15.0197 11.275ZM17.8516 12.3944L15.6127 10.1557L23.4243 2.34396L25.663 4.58268L17.8516 12.3944Z" fill="white"/>
<path d="M22.4261 12.1948C22.0923 12.1958 21.8219 12.4661 21.821 12.7999V24.1091C21.8181 25.1103 21.0073 25.9212 20.0057 25.9244H3.89855C2.89731 25.9212 2.08609 25.1103 2.08325 24.1091V8.00157C2.08609 7.00034 2.89731 6.18931 3.89855 6.18627H15.2073C15.5417 6.18627 15.8124 5.91536 15.8124 5.58117C15.8124 5.24699 15.5417 4.97607 15.2073 4.97607H3.89855C2.2278 4.97683 0.873805 6.33101 0.873047 8.00157V24.1091C0.873805 25.7797 2.2278 27.1338 3.89855 27.1344H20.0057C21.6764 27.1338 23.0306 25.7797 23.0312 24.1091V12.7999C23.0302 12.4661 22.7599 12.1958 22.4261 12.1948Z" fill="white"/>
</svg>
