<svg width="34" height="34" viewBox="0 0 34 34" fill="none" xmlns="http://www.w3.org/2000/svg">
<path d="M33.429 15.1994L18.1743 1.29943C17.5047 0.689229 16.495 0.689295 15.8257 1.29937L0.570963 15.1995C0.0346005 15.6883 -0.142571 16.4413 0.119468 17.1179C0.381572 17.7945 1.01974 18.2317 1.74536 18.2317H4.1818V32.1584C4.1818 32.7106 4.62951 33.1583 5.18167 33.1583H13.5431C14.0953 33.1583 14.543 32.7107 14.543 32.1584V23.7025H19.4572V32.1585C19.4572 32.7107 19.9049 33.1584 20.4571 33.1584H28.8181C29.3703 33.1584 29.818 32.7107 29.818 32.1585V18.2317H32.2549C32.9805 18.2317 33.6187 17.7945 33.8808 17.1179C34.1425 16.4412 33.9653 15.6882 33.429 15.1994Z" fill="white"/>
</svg>
