<svg width="25" height="24" viewBox="0 0 25 24" fill="none" xmlns="http://www.w3.org/2000/svg">
<path d="M17.6758 18.375V20.25C17.6758 22.3178 15.9235 24 13.7695 24H3.95508C1.80111 24 0.0488281 22.3178 0.0488281 20.25V3.75C0.0488281 1.68219 1.80111 0 3.95508 0H13.7695C15.9235 0 17.6758 1.68219 17.6758 3.75V5.625C17.6758 6.14282 17.2386 6.5625 16.6992 6.5625C16.1598 6.5625 15.7227 6.14282 15.7227 5.625V3.75C15.7227 2.71619 14.8464 1.875 13.7695 1.875H3.95508C2.87819 1.875 2.00195 2.71619 2.00195 3.75V20.25C2.00195 21.2838 2.87819 22.125 3.95508 22.125H13.7695C14.8464 22.125 15.7227 21.2838 15.7227 20.25V18.375C15.7227 17.8572 16.1598 17.4375 16.6992 17.4375C17.2386 17.4375 17.6758 17.8572 17.6758 18.375ZM24.3338 10.3896L22.147 8.29028C21.7655 7.92407 21.1472 7.92407 20.7659 8.29028C20.3844 8.65631 20.3844 9.24994 20.7659 9.61597L22.3213 11.1094H10.5957C10.0563 11.1094 9.61914 11.5291 9.61914 12.0469C9.61914 12.5647 10.0563 12.9844 10.5957 12.9844H22.3213L20.7659 14.4778C20.3844 14.8438 20.3844 15.4374 20.7659 15.8035C20.9566 15.9866 21.2065 16.0781 21.4563 16.0781C21.7064 16.0781 21.9563 15.9866 22.147 15.8035L24.3338 13.7042C25.2857 12.7903 25.2857 11.3035 24.3338 10.3896Z" fill="white"/>
</svg>
