<svg width="144" height="91" viewBox="0 0 144 91" fill="none" xmlns="http://www.w3.org/2000/svg">
<path d="M13.9099 26.8208L25.3909 40H20.2595L9.95981 27.9283V40H5.75134V13.937H9.95981V25.861L20.2964 13.937H25.3909L13.9099 26.8208ZM39.906 19.3268C42.2686 19.3268 44.1637 20.0897 45.5911 21.6156C47.0185 23.1415 47.7322 25.3196 47.7322 28.1498V40H43.5238V28.5928C43.5238 26.7716 43.0562 25.3688 42.1209 24.3843C41.1857 23.3753 39.906 22.8708 38.2816 22.8708C36.6081 22.8708 35.2668 23.4122 34.2577 24.4951C33.2487 25.5534 32.7442 27.1162 32.7442 29.1835V40H28.5357V12.6818H32.7442V24.1259C33.2856 22.6001 34.1962 21.4187 35.476 20.582C36.7558 19.7452 38.2324 19.3268 39.906 19.3268ZM71.5552 28.8512C71.5552 29.5403 71.5059 30.1433 71.4075 30.6601H55.7549C55.8288 32.7521 56.4071 34.3026 57.49 35.3116C58.5729 36.3207 59.9142 36.8252 61.5139 36.8252C62.9167 36.8252 64.098 36.4683 65.0579 35.7546C66.0423 35.0409 66.6453 34.0934 66.8668 32.912H71.3706C71.0999 34.3395 70.5338 35.6069 69.6724 36.7144C68.811 37.8219 67.6912 38.6956 66.313 39.3355C64.9348 39.9508 63.3966 40.2584 61.6985 40.2584C59.7296 40.2584 57.9822 39.84 56.4563 39.0033C54.9551 38.1665 53.7738 36.9605 52.9124 35.3854C52.051 33.8103 51.6203 31.9522 51.6203 29.8111C51.6203 27.6945 52.051 25.8487 52.9124 24.2736C53.7738 22.6985 54.9551 21.4926 56.4563 20.6558C57.9822 19.819 59.7296 19.4006 61.6985 19.4006C63.692 19.4006 65.427 19.819 66.9037 20.6558C68.405 21.4679 69.5494 22.6001 70.3369 24.0521C71.1491 25.4795 71.5552 27.0792 71.5552 28.8512ZM67.3098 28.7405C67.359 27.4115 67.1252 26.304 66.6084 25.418C66.1161 24.5074 65.427 23.8429 64.541 23.4245C63.6797 22.9815 62.7321 22.76 61.6985 22.76C60.0495 22.76 58.6713 23.2645 57.5638 24.2736C56.4563 25.2826 55.8534 26.7716 55.7549 28.7405H67.3098ZM79.8271 12.6818V40H75.6186V12.6818H79.8271Z" fill="#F7F7F7"/>
<path d="M18.0891 69.73H7.08796L5.09447 75.3782H0.590663L10.1889 49.7212H15.025L24.5863 75.3782H20.0825L18.0891 69.73ZM16.9077 66.4813L12.5885 54.2989L8.26928 66.4813H16.9077ZM46.4645 55.0372V75.3782H42.2191V70.9482C41.7023 72.4495 40.804 73.6185 39.5242 74.4553C38.2445 75.2674 36.7555 75.6735 35.0573 75.6735C32.6947 75.6735 30.7997 74.9106 29.3722 73.3847C27.9448 71.8588 27.2311 69.6807 27.2311 66.8505V55.0372H31.4395V66.4075C31.4395 68.2533 31.9071 69.6807 32.8424 70.6898C33.7776 71.6742 35.0573 72.1664 36.6817 72.1664C38.3552 72.1664 39.6965 71.625 40.7056 70.5421C41.7146 69.4592 42.2191 67.8841 42.2191 65.8168V55.0372H46.4645ZM60.5493 54.7788C63.1827 54.7788 65.3607 55.4802 67.0835 56.883C68.8063 58.2613 69.8769 60.144 70.2952 62.5313H65.8284C65.5822 61.2515 64.9793 60.2547 64.0194 59.541C63.0842 58.8027 61.9029 58.4335 60.4755 58.4335C58.8511 58.4335 57.4975 59.0119 56.4147 60.1686C55.3318 61.3007 54.7903 62.9743 54.7903 65.1892C54.7903 67.4042 55.3318 69.0901 56.4147 70.2468C57.4975 71.4035 58.8511 71.9819 60.4755 71.9819C61.9029 71.9819 63.0842 71.6127 64.0194 70.8744C64.9793 70.136 65.5822 69.127 65.8284 67.8472H70.2952C69.8769 70.2345 68.8063 72.1295 67.0835 73.5324C65.3607 74.9352 63.1827 75.6366 60.5493 75.6366C58.5804 75.6366 56.833 75.2182 55.3072 74.3814C53.8059 73.5447 52.6246 72.3387 51.7632 70.7636C50.9018 69.1885 50.4711 67.3304 50.4711 65.1892C50.4711 63.0727 50.9018 61.2269 51.7632 59.6518C52.6246 58.0767 53.8059 56.8707 55.3072 56.034C56.833 55.1972 58.5804 54.7788 60.5493 54.7788ZM84.5871 71.7234V75.3782H82.0029C79.8372 75.3782 78.1882 74.8613 77.0561 73.8277C75.9486 72.7694 75.3949 71.022 75.3949 68.5855V58.6181H72.4785V55.0372H75.3949V49.9797H79.6403V55.0372H84.5502V58.6181H79.6403V68.6594C79.6403 69.8161 79.8495 70.616 80.2679 71.059C80.7109 71.5019 81.4738 71.7234 82.5567 71.7234H84.5871ZM87.9387 49.1306C87.9387 48.4169 88.1848 47.8262 88.677 47.3586C89.1692 46.891 89.8214 46.6572 90.6336 46.6572C91.4458 46.6572 92.0979 46.891 92.5902 47.3586C93.107 47.8262 93.3654 48.4169 93.3654 49.1306C93.3654 49.8443 93.107 50.4227 92.5902 50.8657C92.0979 51.3087 91.4458 51.5302 90.6336 51.5302C89.8214 51.5302 89.1692 51.3087 88.677 50.8657C88.1848 50.4227 87.9387 49.8443 87.9387 49.1306ZM92.7378 55.0372V75.3782H88.5294V55.0372H92.7378ZM107.134 54.7788C109.102 54.7788 110.874 55.1972 112.449 56.034C114.025 56.8707 115.255 58.0767 116.141 59.6518C117.027 61.2269 117.47 63.0727 117.47 65.1892C117.47 67.3304 117.027 69.1885 116.141 70.7636C115.255 72.3387 114.025 73.5447 112.449 74.3814C110.874 75.2182 109.102 75.6366 107.134 75.6366C105.165 75.6366 103.393 75.2182 101.818 74.3814C100.267 73.5447 99.0365 72.3387 98.1259 70.7636C97.2399 69.1639 96.7969 67.3058 96.7969 65.1892C96.7969 63.0727 97.2399 61.2269 98.1259 59.6518C99.0365 58.0767 100.267 56.8707 101.818 56.034C103.393 55.1972 105.165 54.7788 107.134 54.7788ZM107.134 58.4335C106.051 58.4335 105.054 58.6796 104.143 59.1719C103.233 59.6641 102.494 60.427 101.928 61.4607C101.387 62.4697 101.116 63.7126 101.116 65.1892C101.116 66.6905 101.387 67.9457 101.928 68.9547C102.494 69.9638 103.233 70.7144 104.143 71.2066C105.054 71.6988 106.051 71.9449 107.134 71.9449C108.216 71.9449 109.213 71.6988 110.124 71.2066C111.034 70.7144 111.76 69.9638 112.302 68.9547C112.868 67.9457 113.151 66.6905 113.151 65.1892C113.151 63.7126 112.868 62.4697 112.302 61.4607C111.76 60.427 111.034 59.6641 110.124 59.1719C109.213 58.6796 108.216 58.4335 107.134 58.4335ZM132.886 54.705C135.249 54.705 137.144 55.4679 138.572 56.9938C139.999 58.5197 140.713 60.6977 140.713 63.528V75.3782H136.504V63.971C136.504 62.1498 136.037 60.747 135.101 59.7625C134.166 58.7535 132.886 58.2489 131.262 58.2489C129.589 58.2489 128.247 58.7904 127.238 59.8733C126.229 60.9315 125.725 62.4943 125.725 64.5617V75.3782H121.516V55.0372H125.725V59.5041C126.266 57.9782 127.177 56.7969 128.457 55.9601C129.736 55.1234 131.213 54.705 132.886 54.705Z" fill="#F7F7F7"/>
<path d="M96.5583 69.8799C94.3954 63.7692 97.5957 57.062 103.706 54.8991C109.817 52.7362 116.524 55.9365 118.687 62.0473C120.85 68.158 117.65 74.8651 111.539 77.028C105.428 79.1909 98.7212 75.9906 96.5583 69.8799Z" fill="#AE262B"/>
<path d="M113.923 56.0588C115.062 57.902 115.705 60.0821 115.668 62.4096C115.565 68.891 110.227 74.0615 103.745 73.9582C101.494 73.9223 99.4019 73.2545 97.6332 72.1272C99.667 75.4166 103.282 77.6329 107.436 77.6991C113.918 77.8024 119.256 72.6319 119.359 66.1505C119.426 61.9202 117.247 58.1774 113.923 56.0588Z" fill="#922428"/>
<path d="M97.4659 66.8494C97.5618 60.8318 102.518 56.0313 108.535 56.1273C112.053 56.1833 115.154 57.9003 117.105 60.5188C115.275 57.2225 111.784 54.9673 107.744 54.903C101.726 54.807 96.7701 59.6075 96.6742 65.6251C96.6344 68.1253 97.4404 70.4418 98.8271 72.3031C97.9317 70.6897 97.4344 68.8269 97.4659 66.8494Z" fill="#C03141"/>
<path d="M106.595 55.6131C106.473 55.6112 106.375 55.5187 106.377 55.4066L106.391 54.5611C106.393 54.449 106.493 54.3597 106.615 54.3616C106.737 54.3635 106.834 54.456 106.833 54.5681L106.819 55.4136C106.817 55.5258 106.717 55.6151 106.595 55.6131Z" fill="white"/>
<path d="M106.54 58.9955C106.418 58.9935 106.321 58.9011 106.323 58.7889L106.336 57.9434C106.338 57.8313 106.438 57.742 106.56 57.7439C106.682 57.7459 106.78 57.8384 106.778 57.9505L106.765 58.796C106.763 58.9081 106.662 58.9974 106.54 58.9955Z" fill="white"/>
<path d="M106.568 57.3043C106.446 57.3024 106.348 57.2099 106.35 57.0978L106.363 56.2523C106.365 56.1401 106.466 56.0508 106.588 56.0528C106.71 56.0547 106.807 56.1472 106.805 56.2593L106.792 57.1048C106.79 57.2169 106.69 57.3062 106.568 57.3043Z" fill="white"/>
<path d="M106.514 60.6864C106.392 60.6844 106.294 60.5919 106.296 60.4798L106.31 59.6343C106.311 59.5222 106.412 59.4329 106.534 59.4348C106.656 59.4368 106.753 59.5292 106.752 59.6414L106.738 60.4869C106.736 60.599 106.636 60.6883 106.514 60.6864Z" fill="white"/>
<path d="M106.459 64.0685C106.337 64.0665 106.24 63.974 106.242 63.8619L106.255 63.0164C106.257 62.9043 106.357 62.815 106.479 62.8169C106.601 62.8189 106.699 62.9113 106.697 63.0235L106.683 63.869C106.682 63.9811 106.581 64.0704 106.459 64.0685Z" fill="white"/>
<path d="M106.487 62.3773C106.365 62.3754 106.267 62.2829 106.269 62.1708L106.282 61.3252C106.284 61.2132 106.385 61.1238 106.507 61.1258C106.629 61.1277 106.726 61.2202 106.724 61.3323L106.711 62.1778C106.709 62.2899 106.609 62.3792 106.487 62.3773Z" fill="white"/>
<path d="M106.433 65.7594C106.311 65.7574 106.213 65.665 106.215 65.5528L106.229 64.7073C106.23 64.5952 106.331 64.5059 106.453 64.5078C106.575 64.5098 106.672 64.6022 106.671 64.7144L106.657 65.5599C106.655 65.672 106.555 65.7613 106.433 65.7594Z" fill="white"/>
<path d="M106.379 69.1415C106.257 69.1395 106.16 69.0471 106.161 68.9349L106.175 68.0894C106.177 67.9773 106.277 67.888 106.399 67.8899C106.521 67.8919 106.619 67.9843 106.617 68.0965L106.603 68.942C106.602 69.0541 106.501 69.1434 106.379 69.1415Z" fill="white"/>
<path d="M106.406 67.4505C106.284 67.4486 106.186 67.3561 106.188 67.244L106.201 66.3985C106.203 66.2864 106.303 66.197 106.425 66.199C106.548 66.2009 106.645 66.2934 106.643 66.4055L106.63 67.251C106.628 67.3631 106.528 67.4525 106.406 67.4505Z" fill="white"/>
<path d="M106.352 70.8326C106.23 70.8307 106.132 70.7382 106.134 70.626L106.148 69.7805C106.149 69.6684 106.25 69.5791 106.372 69.581C106.494 69.583 106.591 69.6755 106.59 69.7876L106.576 70.6331C106.574 70.7452 106.474 70.8346 106.352 70.8326Z" fill="white"/>
<path d="M106.298 74.2147C106.176 74.2128 106.079 74.1203 106.08 74.0082L106.094 73.1627C106.096 73.0506 106.196 72.9612 106.318 72.9632C106.44 72.9651 106.538 73.0576 106.536 73.1697L106.522 74.0152C106.521 74.1273 106.42 74.2166 106.298 74.2147Z" fill="white"/>
<path d="M106.324 72.5235C106.202 72.5216 106.105 72.4291 106.107 72.317L106.12 71.4715C106.122 71.3594 106.222 71.2701 106.344 71.272C106.466 71.2739 106.564 71.3664 106.562 71.4785L106.549 72.324C106.547 72.4362 106.447 72.5255 106.324 72.5235Z" fill="white"/>
<path d="M106.271 75.9056C106.149 75.9037 106.051 75.8112 106.053 75.6991L106.067 74.8536C106.068 74.7414 106.169 74.6521 106.291 74.6541C106.413 74.656 106.51 74.7485 106.508 74.8606L106.495 75.7061C106.493 75.8182 106.393 75.9076 106.271 75.9056Z" fill="white"/>
<path d="M106.245 77.5707C106.123 77.5687 106.026 77.4762 106.028 77.3641L106.041 76.5186C106.043 76.4065 106.143 76.3171 106.265 76.3191C106.387 76.321 106.485 76.4135 106.483 76.5256L106.47 77.3712C106.468 77.4833 106.367 77.5726 106.245 77.5707Z" fill="white"/>
<path d="M108.982 55.6512C108.86 55.6493 108.762 55.5568 108.764 55.4447L108.777 54.5992C108.779 54.4871 108.88 54.3977 109.002 54.3997C109.124 54.4016 109.221 54.4941 109.219 54.6062L109.206 55.4517C109.204 55.5639 109.104 55.6532 108.982 55.6512Z" fill="white"/>
<path d="M108.927 59.0336C108.805 59.0316 108.708 58.9391 108.709 58.827L108.723 57.9815C108.725 57.8694 108.825 57.7801 108.947 57.782C109.069 57.7839 109.166 57.8764 109.165 57.9885L109.151 58.8341C109.149 58.9462 109.049 59.0355 108.927 59.0336Z" fill="white"/>
<path d="M108.954 57.3424C108.832 57.3404 108.735 57.2479 108.737 57.1359L108.75 56.2903C108.752 56.1782 108.852 56.0889 108.974 56.0908C109.096 56.0928 109.194 56.1852 109.192 56.2974L109.179 57.1429C109.177 57.255 109.076 57.3443 108.954 57.3424Z" fill="white"/>
<path d="M108.901 60.7245C108.779 60.7225 108.681 60.63 108.683 60.5179L108.696 59.6724C108.698 59.5603 108.799 59.471 108.921 59.4729C109.043 59.4749 109.14 59.5673 109.138 59.6795L109.125 60.525C109.123 60.6371 109.023 60.7264 108.901 60.7245Z" fill="white"/>
<path d="M108.847 64.1068C108.725 64.1048 108.627 64.0123 108.629 63.9003L108.643 63.0547C108.644 62.9426 108.745 62.8533 108.867 62.8552C108.989 62.8572 109.086 62.9497 109.085 63.0618L109.071 63.9073C109.069 64.0194 108.969 64.1087 108.847 64.1068Z" fill="white"/>
<path d="M108.873 62.4154C108.751 62.4134 108.654 62.321 108.656 62.2088L108.669 61.3633C108.671 61.2512 108.771 61.1619 108.893 61.1638C109.015 61.1658 109.113 61.2583 109.111 61.3704L109.098 62.2159C109.096 62.328 108.995 62.4173 108.873 62.4154Z" fill="white"/>
<path d="M108.82 65.7977C108.698 65.7958 108.6 65.7033 108.602 65.5912L108.615 64.7457C108.617 64.6335 108.718 64.5442 108.84 64.5462C108.962 64.5481 109.059 64.6406 109.057 64.7527L109.044 65.5982C109.042 65.7104 108.942 65.7997 108.82 65.7977Z" fill="white"/>
<path d="M108.766 69.1795C108.644 69.1776 108.546 69.0851 108.548 68.973L108.562 68.1275C108.563 68.0154 108.664 67.9261 108.786 67.928C108.908 67.9299 109.005 68.0224 109.004 68.1345L108.99 68.9801C108.988 69.0922 108.888 69.1815 108.766 69.1795Z" fill="white"/>
<path d="M108.792 67.4886C108.67 67.4867 108.573 67.3942 108.575 67.2821L108.588 66.4365C108.59 66.3244 108.69 66.2351 108.812 66.237C108.934 66.239 109.032 66.3315 109.03 66.4436L109.016 67.2891C109.015 67.4012 108.914 67.4906 108.792 67.4886Z" fill="white"/>
<path d="M108.739 70.871C108.616 70.869 108.519 70.7765 108.521 70.6644L108.534 69.8189C108.536 69.7068 108.636 69.6174 108.758 69.6194C108.881 69.6213 108.978 69.7138 108.976 69.8259L108.963 70.6714C108.961 70.7836 108.861 70.8729 108.739 70.871Z" fill="white"/>
<path d="M108.685 74.2528C108.563 74.2508 108.465 74.1584 108.467 74.0463L108.481 73.2007C108.482 73.0886 108.583 72.9993 108.705 73.0012C108.827 73.0032 108.924 73.0957 108.923 73.2078L108.909 74.0533C108.907 74.1654 108.807 74.2547 108.685 74.2528Z" fill="white"/>
<path d="M108.712 72.5616C108.59 72.5597 108.493 72.4672 108.494 72.3551L108.508 71.5096C108.51 71.3974 108.61 71.3081 108.732 71.3101C108.854 71.312 108.952 71.4045 108.95 71.5166L108.936 72.3621C108.935 72.4743 108.834 72.5636 108.712 72.5616Z" fill="white"/>
<path d="M108.657 75.9437C108.535 75.9418 108.438 75.8493 108.44 75.7372L108.453 74.8917C108.455 74.7795 108.555 74.6902 108.677 74.6922C108.799 74.6941 108.897 74.7866 108.895 74.8987L108.882 75.7442C108.88 75.8563 108.78 75.9457 108.657 75.9437Z" fill="white"/>
<path d="M108.631 77.6087C108.509 77.6068 108.412 77.5143 108.413 77.4022L108.427 76.5567C108.429 76.4446 108.529 76.3552 108.651 76.3572C108.773 76.3591 108.871 76.4516 108.869 76.5637L108.855 77.4093C108.854 77.5213 108.753 77.6107 108.631 77.6087Z" fill="white"/>
<path d="M103.698 54.8996L103.347 76.8967C103.492 76.9534 103.639 77.0072 103.787 77.0583L104.142 54.752C103.993 54.7984 103.845 54.8475 103.698 54.8996Z" fill="white"/>
<path d="M111.459 54.8688L111.104 77.175C111.253 77.1287 111.401 77.0796 111.548 77.0275L111.899 55.0304C111.753 54.9737 111.607 54.9199 111.459 54.8688Z" fill="white"/>
<path d="M133.921 38.041L133.921 38.041C133.537 37.7614 133.136 37.5511 132.728 37.4073L132.727 37.407L127.441 35.4711L124.554 42.81L129.561 45.4694L129.562 45.4699L133.921 38.041ZM133.921 38.041C135.175 38.952 135.896 40.5608 135.736 42.1058C135.416 45.1815 132.444 46.7701 129.88 45.6276L133.921 38.041Z" fill="#5E361C" stroke="#5E361C" stroke-width="0.128182"/>
<path d="M127.32 35.4269L124.439 42.7493L121.421 41.1458L124.131 34.2595L127.32 35.4269Z" fill="#FEB756" stroke="#5E361C" stroke-width="0.128182"/>
<path d="M95.739 14.0659L95.739 14.0659C96.0001 13.4024 96.4998 12.9202 97.0958 12.6763C97.6926 12.4322 98.3871 12.4258 99.0384 12.7161L108.703 17.024C110.007 17.6051 110.64 19.1529 110.118 20.481L110.177 20.5045L110.118 20.481C109.596 21.806 108.119 22.4102 106.819 21.8305L106.793 21.889L106.819 21.8305L97.153 17.5221C95.8504 16.9416 95.2169 15.3929 95.739 14.0659Z" fill="#5E361C" stroke="#5E361C" stroke-width="0.128182"/>
<path d="M107.598 22.2476L105.992 26.3291C105.989 26.3363 105.986 26.3433 105.983 26.3503L103.401 32.9152C103.398 32.9221 103.395 32.9291 103.393 32.9369L101.787 37.0184L100.982 36.6594L91.3156 32.351L90.5102 31.9921L96.3216 17.2214L97.127 17.5803L106.793 21.8887L107.598 22.2476Z" fill="#FEB756"/>
<path d="M108.799 28.6449L108.823 28.5838L109.146 27.7633L109.146 27.7633C109.319 27.3267 109.3 26.8532 109.131 26.4404C108.963 26.0276 108.644 25.6771 108.214 25.4858L108.799 28.6449ZM108.799 28.6449L108.861 28.6675M108.799 28.6449L108.861 28.6675M108.861 28.6675L124.01 34.2154M108.861 28.6675L124.01 34.2154M124.01 34.2154L121.307 41.0854L106.976 33.4746L106.912 33.4409L106.886 33.5077L106.563 34.3282C106.22 35.2006 105.248 35.5982 104.392 35.2165L104.392 35.2165C103.963 35.0252 103.644 34.6747 103.475 34.2619C103.309 33.8557 103.288 33.3906 103.452 32.9604C103.452 32.9603 103.453 32.9602 103.453 32.9601L106.052 26.3536C106.052 26.3535 106.052 26.3533 106.052 26.3532C106.402 25.4953 107.364 25.1074 108.214 25.4858L124.01 34.2154Z" fill="#5E361C" stroke="#5E361C" stroke-width="0.128182"/>
<path d="M87.9912 33.7594L87.9912 33.7594C88.2518 33.0971 88.7516 32.6148 89.3484 32.3707C89.9452 32.1265 90.6396 32.1202 91.2898 32.41L100.956 36.7183C102.258 37.2989 102.892 38.8475 102.37 40.1745L102.429 40.198L102.37 40.1745C101.848 41.5007 100.372 42.1045 99.0704 41.5243L99.0443 41.5829L99.0704 41.5243L89.4055 37.2165C88.1018 36.6354 87.4686 35.0876 87.9912 33.7594Z" fill="#5E361C" stroke="#5E361C" stroke-width="0.128182"/>
</svg>
