<svg width="107" height="99" viewBox="0 0 107 99" fill="none" xmlns="http://www.w3.org/2000/svg">
<path d="M42.7566 32.2292L42.8348 32.301L32.7063 43.0411L32.6281 42.9694C31.8448 42.2506 31.7995 41.0402 32.5296 40.266L32.7376 40.0455L39.808 32.548L40.016 32.3275C40.016 32.3275 40.016 32.3275 40.016 32.3275C40.7461 31.5534 41.9732 31.5105 42.7566 32.2292Z" fill="#FFF9F1" stroke="#8E4919"/>
<path d="M20.7412 21.2485C22.7402 19.1711 25.9185 18.4641 28.2941 20.0974C29.8102 21.1397 31.0008 22.29 32.0873 23.7404C33.8443 26.0858 33.2584 29.3469 31.2265 31.4584C29.0749 33.6943 25.5916 34.3259 23.1683 32.3879C22.1002 31.5337 21.1319 30.5897 20.1595 29.439C18.1352 27.0434 18.5664 23.5084 20.7412 21.2485Z" fill="#FFF9F1"/>
<path d="M1.77713 47.2782L1.77684 47.2786C1.17442 48.2583 1.16185 49.5562 1.7475 50.5437C2.93005 52.5359 5.52919 52.7283 6.99442 51.1957C7.0565 51.1308 7.11498 51.0642 7.16995 50.996L7.1699 50.996L7.17464 50.9903L10.0022 47.5884L5.70508 43.5017L2.43606 46.4863L2.43609 46.4863L2.43144 46.4905C2.18666 46.7084 1.96558 46.9709 1.77713 47.2782Z" fill="#8E4919" stroke="#8E4919"/>
<path d="M5.78506 42.9328L10.5748 47.8069L12.4327 45.4126L12.4193 45.4004L7.93551 40.8376L7.93327 40.8353L5.78506 42.9328Z" fill="#FFF9F1"/>
<path d="M14.3579 24.873L14.358 24.8731C15.0767 25.549 16.2187 25.522 16.9038 24.8131L16.9039 24.8131L23.2461 18.2509C23.9276 17.5458 23.9006 16.4311 23.1858 15.759L23.1858 15.759C22.8266 15.4212 22.3624 15.2582 21.9002 15.2691C21.4372 15.28 20.9815 15.4647 20.6391 15.819L14.2976 22.3803C13.6153 23.0862 13.6423 24.2002 14.3579 24.873Z" fill="#8E4919" stroke="#8E4919"/>
<path d="M18.4527 31.2208L18.8512 31.5936L18.4455 31.9579L8.46053 40.9259L12.3955 44.6069L21.0487 34.3682L21.388 33.9667L21.7721 34.3261L22.3253 34.8435C22.7373 35.2289 23.394 35.2134 23.7869 34.809L23.787 34.809C23.9822 34.6081 24.0741 34.3517 24.0679 34.0978C24.0623 33.8646 23.974 33.6339 23.8019 33.4508C22.9766 32.9773 22.3005 32.5251 21.6029 31.8856C20.9012 31.2425 20.1912 30.4222 19.2855 29.2248C18.8725 28.8773 18.2463 28.9042 17.8653 29.2959C17.6701 29.4968 17.5783 29.7531 17.5845 30.0069C17.5906 30.2609 17.6948 30.5123 17.8991 30.703L17.8996 30.7034L18.4527 31.2208Z" fill="#8E4919" stroke="#8E4919"/>
<path d="M28.4237 37.3701L28.4237 37.3701C29.1484 38.0412 30.2894 38.0056 30.9698 37.2906L30.9698 37.2906L37.2609 30.6809C37.9378 29.9698 37.9022 28.8561 37.1815 28.1887L37.1815 28.1887C36.8207 27.8546 36.3553 27.6949 35.8922 27.7094C35.4292 27.7239 34.9749 27.9122 34.6361 28.2682L28.3443 34.8787C27.6682 35.589 27.7037 36.7034 28.4237 37.3701Z" fill="#8E4919" stroke="#8E4919"/>
<path d="M60.7489 15.887L54.3516 29.8643L64.5935 32.2021L66.7298 17.6188C66.9941 15.8141 66.6464 13.6131 64.9118 13.0492C63.1262 12.4688 61.5303 14.1797 60.7489 15.887Z" fill="#FFF9F1" stroke="#8E4919"/>
<path d="M84.0693 14.8483L66.7646 34.3739L75.3984 42.1386L91.0461 18.9914C92.345 17.0699 93.5394 14.5768 92.191 12.6897C90.3107 10.0583 86.2144 12.4279 84.0693 14.8483Z" fill="#FFF9F1" stroke="#8E4919"/>
<path d="M88.6492 39.5621L77.5596 44.0842L80.5221 53.3518L91.8159 45.2757C93.5267 44.0523 95.2806 42.0005 94.2112 40.1895C93.1682 38.4232 90.5486 38.7875 88.6492 39.5621Z" fill="#FFF9F1" stroke="#8E4919"/>
<path d="M66.2161 21.3744L59.1169 19.5376L57.667 22.8773L65.7929 25.048L66.2161 21.3744Z" fill="#8E4919"/>
<path d="M87.7142 24.0465L81.1119 18.2849L78.6572 21.0401L85.6055 27.2185L87.7142 24.0465Z" fill="#8E4919"/>
<path d="M90.5953 46.119L87.3293 39.9094L85.0088 40.9444L88.2748 47.7576L90.5953 46.119Z" fill="#8E4919"/>
<rect x="0.576736" y="-0.411828" width="2.00539" height="2.80764" rx="1.00269" transform="matrix(0.166773 -0.986028 0.986698 0.162372 80.6066 7.10971)" fill="#FFF9F1" stroke="#8E4919"/>
<rect x="0.576736" y="-0.411828" width="2.00539" height="2.80764" rx="1.00269" transform="matrix(0.166773 -0.986028 0.986698 0.162372 67.923 4.99764)" fill="#FFF9F1" stroke="#8E4919"/>
<rect x="0.414296" y="0.571166" width="2.57435" height="5.79478" rx="1.28717" transform="matrix(0.987899 0.155103 -0.159307 0.987229 70.9105 0.416425)" fill="#FFF9F1" stroke="#8E4919"/>
<rect x="0.414296" y="0.571166" width="2.44197" height="5.79478" rx="1.22098" transform="matrix(0.987899 0.155103 -0.159307 0.987229 74.4417 0.97038)" fill="#FFF9F1" stroke="#8E4919"/>
<rect x="0.414296" y="0.571166" width="2.57435" height="5.79478" rx="1.28717" transform="matrix(0.987899 0.155103 -0.159307 0.987229 77.8411 1.50383)" fill="#FFF9F1" stroke="#8E4919"/>
<rect x="0.578406" y="0.40954" width="2.04456" height="2.75866" rx="1.02228" transform="matrix(0.986126 -0.166209 0.170685 0.985289 101.13 31.9239)" fill="#FFF9F1" stroke="#8E4919"/>
<rect x="0.578406" y="0.40954" width="2.04456" height="2.75866" rx="1.02228" transform="matrix(0.986126 -0.166209 0.170685 0.985289 98.8727 19.4503)" fill="#FFF9F1" stroke="#8E4919"/>
<rect x="-0.403352" y="0.578735" width="2.52836" height="5.88336" rx="1.26418" transform="matrix(0.178137 0.984006 -0.98484 0.173464 104.532 22.3311)" fill="#FFF9F1" stroke="#8E4919"/>
<rect x="-0.403352" y="0.578735" width="2.39768" height="5.88336" rx="1.19884" transform="matrix(0.178137 0.984006 -0.98484 0.173464 105.159 25.8037)" fill="#FFF9F1" stroke="#8E4919"/>
<rect x="-0.403352" y="0.578735" width="2.52836" height="5.88336" rx="1.26418" transform="matrix(0.178137 0.984006 -0.98484 0.173464 105.767 29.147)" fill="#FFF9F1" stroke="#8E4919"/>
<path d="M39.7251 73.3869C28.8782 64.5372 27.3581 48.6897 36.33 37.9905C45.3019 27.2913 61.3682 25.792 72.2151 34.6416C83.062 43.4913 84.5821 59.3388 75.6102 70.038C66.6384 80.7372 50.572 82.2365 39.7251 73.3869Z" fill="#B10C12"/>
<path d="M56.6563 28.8806C60.8357 31.0137 64.466 34.3125 66.9935 38.6307C74.0318 50.6553 69.8549 66.0312 57.6643 72.9736C53.4304 75.3848 48.7867 76.4603 44.2338 76.335C51.6927 80.142 60.9009 80.2365 68.7138 75.7872C80.9044 68.8447 85.0813 53.4688 78.043 41.4442C73.4491 33.5958 65.2128 29.116 56.6563 28.8806Z" fill="#8F181C"/>
<path d="M38.0325 66.8198C31.4978 55.6557 35.3758 41.3801 46.6941 34.9345C53.3098 31.1669 61.0026 30.9099 67.5586 33.575C60.4728 29.5306 51.4521 29.2283 43.8532 33.5558C32.5349 40.0014 28.657 54.2769 35.1916 65.441C37.9067 70.0796 41.9926 73.4498 46.6528 75.3442C43.1846 73.3645 40.1798 70.4886 38.0325 66.8198Z" fill="#C53636"/>
<path d="M42.5055 36.1254C42.276 36.2561 41.9912 36.1934 41.8694 35.9854L40.9512 34.4168C40.8295 34.2088 40.9169 33.9341 41.1464 33.8034C41.3759 33.6727 41.6607 33.7354 41.7825 33.9434L42.7006 35.512C42.8224 35.7201 42.735 35.9946 42.5055 36.1254Z" fill="white"/>
<path d="M46.1803 42.3995C45.9508 42.5302 45.666 42.4676 45.5442 42.2596L44.626 40.6909C44.5043 40.483 44.5917 40.2083 44.8212 40.0776C45.0507 39.9469 45.3355 40.0096 45.4573 40.2176L46.3754 41.7862C46.4972 41.9942 46.4098 42.2688 46.1803 42.3995Z" fill="white"/>
<path d="M44.3434 39.2626C44.1139 39.3933 43.829 39.3306 43.7073 39.1226L42.7891 37.554C42.6673 37.3459 42.7548 37.0713 42.9843 36.9406C43.2138 36.8099 43.4986 36.8726 43.6203 37.0806L44.5385 38.6492C44.6602 38.8572 44.5729 39.1318 44.3434 39.2626Z" fill="white"/>
<path d="M48.0143 45.5375C47.7848 45.6682 47.4999 45.6055 47.3782 45.3975L46.46 43.8289C46.3382 43.6208 46.4257 43.3462 46.6552 43.2155C46.8847 43.0848 47.1695 43.1475 47.2912 43.3555L48.2094 44.9241C48.3311 45.1321 48.2438 45.4067 48.0143 45.5375Z" fill="white"/>
<path d="M51.6861 51.8121C51.4566 51.9428 51.1718 51.8801 51.05 51.6722L50.1319 50.1035C50.0101 49.8955 50.0976 49.6209 50.327 49.4902C50.5566 49.3595 50.8414 49.4221 50.9631 49.6302L51.8813 51.1988C52.003 51.4068 51.9157 51.6814 51.6861 51.8121Z" fill="white"/>
<path d="M49.8521 48.6747C49.6227 48.8054 49.3378 48.7428 49.2161 48.5347L48.2979 46.9661C48.1762 46.7581 48.2636 46.4834 48.4931 46.3527C48.7226 46.222 49.0074 46.2847 49.1291 46.4927L50.0473 48.0613C50.1691 48.2694 50.0817 48.544 49.8521 48.6747Z" fill="white"/>
<path d="M53.524 54.9493C53.2945 55.08 53.0097 55.0174 52.8879 54.8094L51.9698 53.2407C51.848 53.0327 51.9355 52.7581 52.1649 52.6274C52.3945 52.4967 52.6792 52.5593 52.801 52.7674L53.7192 54.336C53.8409 54.544 53.7536 54.8186 53.524 54.9493Z" fill="white"/>
<path d="M57.1969 61.2238C56.9674 61.3544 56.6826 61.2918 56.5608 61.0838L55.6426 59.5152C55.5209 59.3071 55.6083 59.0325 55.8378 58.9018C56.0673 58.7711 56.3521 58.8337 56.4739 59.0418L57.392 60.6104C57.5138 60.8185 57.4264 61.093 57.1969 61.2238Z" fill="white"/>
<path d="M55.359 58.0866C55.1295 58.2172 54.8446 58.1546 54.7229 57.9466L53.8047 56.3779C53.683 56.1699 53.7704 55.8952 53.9999 55.7645C54.2294 55.6338 54.5142 55.6965 54.6359 55.9045L55.5541 57.4732C55.6759 57.6812 55.5885 57.9558 55.359 58.0866Z" fill="white"/>
<path d="M59.0338 64.3617C58.8043 64.4924 58.5194 64.4297 58.3977 64.2217L57.4795 62.653C57.3578 62.4451 57.4452 62.1704 57.6747 62.0397C57.9042 61.909 58.189 61.9717 58.3107 62.1796L59.2289 63.7483C59.3507 63.9563 59.2633 64.231 59.0338 64.3617Z" fill="white"/>
<path d="M62.7047 70.6356C62.4752 70.7663 62.1904 70.7037 62.0686 70.4957L61.1504 68.927C61.0287 68.7191 61.1161 68.4444 61.3456 68.3137C61.5752 68.183 61.86 68.2457 61.9817 68.4536L62.8998 70.0223C63.0216 70.2303 62.9342 70.5049 62.7047 70.6356Z" fill="white"/>
<path d="M60.8717 67.4987C60.6422 67.6293 60.3574 67.5667 60.2356 67.3587L59.3174 65.7901C59.1957 65.582 59.2831 65.3074 59.5126 65.1767C59.7422 65.046 60.0269 65.1086 60.1487 65.3167L61.0668 66.8853C61.1886 67.0934 61.1012 67.3679 60.8717 67.4987Z" fill="white"/>
<path d="M64.5426 73.7731C64.3131 73.9038 64.0282 73.8411 63.9065 73.6331L62.9883 72.0645C62.8666 71.8564 62.954 71.5818 63.1835 71.4511C63.4131 71.3204 63.6978 71.3831 63.8196 71.5911L64.7377 73.1597C64.8595 73.3677 64.7721 73.6423 64.5426 73.7731Z" fill="white"/>
<path d="M66.3521 76.8617C66.1227 76.9924 65.8378 76.9297 65.7161 76.7217L64.7979 75.153C64.6761 74.9451 64.7635 74.6704 64.993 74.5397C65.2226 74.409 65.5074 74.4717 65.6291 74.6796L66.5473 76.2484C66.669 76.4563 66.5817 76.731 66.3521 76.8617Z" fill="white"/>
<path d="M46.9947 33.569C46.7652 33.6997 46.4804 33.6371 46.3586 33.429L45.4405 31.8604C45.3188 31.6524 45.4061 31.3778 45.6356 31.247C45.8651 31.1163 46.15 31.179 46.2717 31.387L47.1899 32.9556C47.3116 33.1637 47.2242 33.4383 46.9947 33.569Z" fill="white"/>
<path d="M50.6666 39.8434C50.437 39.9741 50.1523 39.9115 50.0305 39.7034L49.1124 38.1348C48.9906 37.9268 49.078 37.6522 49.3075 37.5214C49.537 37.3908 49.8219 37.4534 49.9436 37.6614L50.8618 39.23C50.9835 39.4381 50.8961 39.7127 50.6666 39.8434Z" fill="white"/>
<path d="M48.8316 36.7059C48.6021 36.8367 48.3173 36.7739 48.1956 36.566L47.2774 34.9973C47.1556 34.7893 47.243 34.5147 47.4726 34.384C47.702 34.2533 47.9869 34.3159 48.1086 34.524L49.0268 36.0926C49.1485 36.3006 49.0611 36.5753 48.8316 36.7059Z" fill="white"/>
<path d="M52.5055 42.9806C52.2759 43.1113 51.9911 43.0486 51.8694 42.8406L50.9512 41.272C50.8295 41.064 50.9168 40.7894 51.1464 40.6587C51.3759 40.528 51.6607 40.5906 51.7825 40.7986L52.7006 42.3673C52.8223 42.5752 52.7349 42.8499 52.5055 42.9806Z" fill="white"/>
<path d="M56.1773 49.255C55.9478 49.3857 55.663 49.323 55.5413 49.115L54.6231 47.5464C54.5013 47.3384 54.5887 47.0638 54.8183 46.9331C55.0477 46.8024 55.3326 46.865 55.4543 47.073L56.3725 48.6417C56.4942 48.8496 56.4068 49.1243 56.1773 49.255Z" fill="white"/>
<path d="M54.3385 46.118C54.1089 46.2488 53.8242 46.1861 53.7024 45.9781L52.7842 44.4094C52.6625 44.2015 52.7498 43.9268 52.9794 43.7961C53.2089 43.6654 53.4937 43.7281 53.6155 43.9361L54.5336 45.5047C54.6554 45.7127 54.568 45.9874 54.3385 46.118Z" fill="white"/>
<path d="M58.0133 52.3922C57.7837 52.5229 57.499 52.4603 57.3772 52.2523L56.459 50.6836C56.3373 50.4756 56.4246 50.201 56.6542 50.0703C56.8837 49.9396 57.1685 50.0022 57.2903 50.2102L58.2084 51.7789C58.3302 51.9869 58.2428 52.2615 58.0133 52.3922Z" fill="white"/>
<path d="M61.6852 58.6671C61.4556 58.7979 61.1708 58.7352 61.0491 58.5272L60.1309 56.9585C60.0091 56.7505 60.0965 56.4759 60.3261 56.3452C60.5556 56.2145 60.8404 56.2771 60.9621 56.4851L61.8803 58.0538C62.0021 58.2618 61.9146 58.5364 61.6852 58.6671Z" fill="white"/>
<path d="M59.8512 55.5299C59.6216 55.6606 59.3368 55.5979 59.2151 55.39L58.2969 53.8212C58.1752 53.6133 58.2625 53.3386 58.492 53.2079C58.7215 53.0772 59.0064 53.1399 59.1281 53.3479L60.0463 54.9166C60.168 55.1245 60.0806 55.3992 59.8512 55.5299Z" fill="white"/>
<path d="M63.5221 61.8043C63.2925 61.9351 63.0077 61.8723 62.8859 61.6643L61.9678 60.0957C61.8461 59.8877 61.9334 59.613 62.1629 59.4823C62.3924 59.3516 62.6773 59.4143 62.799 59.6223L63.7172 61.1909C63.8389 61.399 63.7515 61.6736 63.5221 61.8043Z" fill="white"/>
<path d="M67.1949 68.0795C66.9654 68.2102 66.6806 68.1476 66.5588 67.9395L65.6407 66.3709C65.519 66.1629 65.6063 65.8883 65.8358 65.7575C66.0653 65.6268 66.3502 65.6895 66.4719 65.8975L67.3901 67.4661C67.5118 67.6742 67.4244 67.9488 67.1949 68.0795Z" fill="white"/>
<path d="M65.359 64.9423C65.1294 65.073 64.8447 65.0103 64.7229 64.8023L63.8047 63.2337C63.683 63.0256 63.7703 62.7511 63.9999 62.6203C64.2294 62.4896 64.5142 62.5523 64.636 62.7603L65.5541 64.3289C65.6759 64.537 65.5885 64.8116 65.359 64.9423Z" fill="white"/>
<path d="M69.0299 71.2159C68.8003 71.3467 68.5155 71.284 68.3938 71.076L67.4756 69.5073C67.3539 69.2993 67.4412 69.0247 67.6708 68.894C67.9003 68.7633 68.1851 68.8259 68.3069 69.034L69.225 70.6026C69.3468 70.8106 69.2594 71.0853 69.0299 71.2159Z" fill="white"/>
<path d="M70.8394 74.3058C70.6099 74.4365 70.3251 74.3738 70.2034 74.1658L69.2852 72.5971C69.1634 72.3892 69.2508 72.1145 69.4803 71.9838C69.7098 71.8531 69.9947 71.9158 70.1164 72.1237L71.0346 73.6925C71.1563 73.9004 71.0689 74.1751 70.8394 74.3058Z" fill="white"/>
<path d="M36.3122 38.0016L60.1993 78.8118C60.5329 78.7565 60.866 78.694 61.1985 78.6252L36.9756 37.2413C36.749 37.491 36.5276 37.7443 36.3122 38.0016Z" fill="white"/>
<path d="M50.74 29.4032L74.9629 70.7871C75.1896 70.5374 75.4109 70.2841 75.6263 70.0268L51.7392 29.2167C51.4056 29.272 51.0726 29.3344 50.74 29.4032Z" fill="white"/>
</svg>
