<svg width="20" height="24" viewBox="0 0 20 24" fill="none" xmlns="http://www.w3.org/2000/svg">
<path d="M12.9055 7.0318C12.5173 7.0318 12.2024 6.71686 12.2024 6.32849V0H1.42188C1.03351 0 0.71875 0.314758 0.71875 0.703125V23.2969C0.71875 23.6852 1.03351 24 1.42188 24H18.5316C18.92 24 19.2347 23.6852 19.2347 23.2969V7.0318H12.9055ZM3.58691 4.12537C3.92438 3.32739 4.70221 2.81177 5.56848 2.81177C6.75464 2.81177 7.7196 3.77673 7.7196 4.96289C7.7196 5.90277 7.11353 6.70386 6.27161 6.99573V7.49414C6.27161 7.88251 5.95685 8.19727 5.56848 8.19727C5.1803 8.19727 4.86536 7.88251 4.86536 7.49414V6.41071C4.86536 6.02234 5.1803 5.70758 5.56848 5.70758C5.97919 5.70758 6.31317 5.37341 6.31317 4.96289C6.31317 4.55219 5.97919 4.21802 5.56848 4.21802C5.26837 4.21802 4.99902 4.39673 4.88202 4.67322C4.73077 5.03082 4.31824 5.19818 3.96063 5.04694C3.60284 4.89551 3.43567 4.48297 3.58691 4.12537ZM6.27161 10.3068C6.27161 10.4919 6.19672 10.673 6.0658 10.8038C5.93506 10.9345 5.7536 11.0099 5.56848 11.0099C5.38336 11.0099 5.20245 10.9345 5.07117 10.8038C4.94043 10.673 4.86536 10.4916 4.86536 10.3068C4.86536 10.1217 4.94043 9.94025 5.07117 9.80951C5.20245 9.67877 5.38336 9.6037 5.56848 9.6037C5.7536 9.6037 5.93469 9.67877 6.0658 9.80951C6.19672 9.94025 6.27161 10.1217 6.27161 10.3068ZM15.7191 21.1419H4.35156C3.96338 21.1419 3.64844 20.8272 3.64844 20.4388C3.64844 20.0504 3.96338 19.7357 4.35156 19.7357H15.7191C16.1073 19.7357 16.4222 20.0504 16.4222 20.4388C16.4222 20.8272 16.1073 21.1419 15.7191 21.1419ZM15.7191 18.3294H4.35156C3.96338 18.3294 3.64844 18.0145 3.64844 17.6263C3.64844 17.2379 3.96338 16.9232 4.35156 16.9232H15.7191C16.1073 16.9232 16.4222 17.2379 16.4222 17.6263C16.4222 18.0145 16.1073 18.3294 15.7191 18.3294ZM15.7191 15.5169H4.35156C3.96338 15.5169 3.64844 15.202 3.64844 14.8136C3.64844 14.4254 3.96338 14.1105 4.35156 14.1105H15.7191C16.1073 14.1105 16.4222 14.4254 16.4222 14.8136C16.4222 15.202 16.1073 15.5169 15.7191 15.5169ZM15.7191 12.7042H8.26599C7.87762 12.7042 7.56268 12.3895 7.56268 12.0011C7.56268 11.6127 7.87762 11.298 8.26599 11.298H15.7191C16.1075 11.298 16.4222 11.6127 16.4222 12.0011C16.4222 12.3895 16.1073 12.7042 15.7191 12.7042ZM15.7191 9.89172H8.26599C7.87762 9.89172 7.56268 9.57697 7.56268 9.1886C7.56268 8.80023 7.87762 8.48547 8.26599 8.48547H15.7191C16.1075 8.48547 16.4222 8.80023 16.4222 9.1886C16.4222 9.57697 16.1073 9.89172 15.7191 9.89172Z" fill="white"/>
</svg>
