<svg width="1440" height="1024" viewBox="0 0 1440 1024" fill="none" xmlns="http://www.w3.org/2000/svg">
<path d="M50.4678 536.021C65.1924 521.294 83.8284 539.93 98.5536 525.204C113.281 510.478 94.6466 491.843 109.372 477.117C124.098 462.39 142.733 481.025 157.459 466.3C172.189 451.571 153.553 432.936 168.282 418.209C183.009 403.48 201.644 422.114 216.372 407.387" stroke="#5E4870" stroke-opacity="0.3" stroke-width="2.66667" stroke-miterlimit="10" stroke-linecap="round" stroke-linejoin="round"/>
<path d="M340.207 356.391C361.033 356.391 361.033 382.745 381.858 382.745C402.685 382.745 402.685 356.391 423.511 356.391C444.337 356.391 444.337 382.745 465.163 382.745C485.992 382.745 485.992 356.391 506.821 356.391C527.649 356.391 527.649 382.745 548.479 382.745" stroke="#F28195" stroke-opacity="0.5" stroke-width="2.66667" stroke-miterlimit="10" stroke-linecap="round" stroke-linejoin="round"/>
<path d="M176.077 746.895L224.165 736.078L234.982 687.991L283.069 677.173L293.892 629.083L341.983 618.261" stroke="#5E4870" stroke-opacity="0.3" stroke-width="2.66667" stroke-miterlimit="10" stroke-linecap="round" stroke-linejoin="round"/>
<path d="M855.028 255.087L896.68 281.44L938.334 255.087L979.985 281.44L1021.64 255.087L1063.3 281.44" stroke="#5E4870" stroke-opacity="0.3" stroke-width="2.66667" stroke-miterlimit="10" stroke-linecap="round" stroke-linejoin="round"/>
<path d="M940.436 289.755L982.086 316.109L1023.74 289.755L1065.39 316.109L1107.05 289.755L1148.71 316.109" stroke="#5E4870" stroke-opacity="0.3" stroke-width="2.66667" stroke-miterlimit="10" stroke-linecap="round" stroke-linejoin="round" stroke-dasharray="16 16"/>
<path d="M1001.87 829.665L1043.52 856.018L1085.18 829.665L1126.83 856.018" stroke="#5E4870" stroke-opacity="0.3" stroke-width="2.66667" stroke-miterlimit="10" stroke-linecap="round" stroke-linejoin="round"/>
<path d="M1043.52 891.945L1085.18 865.591L1126.84 891.945" stroke="#5E4870" stroke-opacity="0.3" stroke-width="2.66667" stroke-miterlimit="10" stroke-linecap="round" stroke-linejoin="round"/>
<path d="M675.843 214.966L717.502 188.613L759.158 214.966" stroke="#5E4870" stroke-opacity="0.3" stroke-width="2.66667" stroke-miterlimit="10" stroke-linecap="round" stroke-linejoin="round"/>
<path d="M1371.74 414.78L1413.39 388.426L1455.04 414.78" stroke="#5E4870" stroke-opacity="0.3" stroke-width="2.66667" stroke-miterlimit="10" stroke-linecap="round" stroke-linejoin="round"/>
<path d="M-19.2744 686.684L22.3773 713.037L64.0354 686.684L105.693 713.037" stroke="#F28195" stroke-opacity="0.5" stroke-width="2.66667" stroke-miterlimit="10" stroke-linecap="round" stroke-linejoin="round"/>
<path d="M22.3779 748.964L64.0361 722.61L105.693 748.964" stroke="#5E4870" stroke-opacity="0.3" stroke-width="2.66667" stroke-miterlimit="10" stroke-linecap="round" stroke-linejoin="round"/>
<path d="M1310.44 216.661L1358.54 205.843L1369.35 157.753L1417.45 146.931" stroke="#5E4870" stroke-opacity="0.3" stroke-width="2.66667" stroke-miterlimit="10" stroke-linecap="round" stroke-linejoin="round"/>
<path d="M1383.94 231.246L1394.76 183.155L1442.84 172.334" stroke="#F28195" stroke-opacity="0.5" stroke-width="2.66667" stroke-miterlimit="10" stroke-linecap="round" stroke-linejoin="round"/>
<path d="M232.356 893.49L274.009 919.844L315.666 893.49L357.323 919.844" stroke="#F28195" stroke-opacity="0.5" stroke-width="2.66667" stroke-miterlimit="10" stroke-linecap="round" stroke-linejoin="round"/>
<path d="M1085.18 33.2986L1126.84 6.9451L1168.49 33.2986" stroke="#5E4870" stroke-opacity="0.3" stroke-width="2.66667" stroke-miterlimit="10" stroke-linecap="round" stroke-linejoin="round"/>
<path d="M431.723 981.961V1033.99" stroke="#5E4870" stroke-opacity="0.3" stroke-width="2.66667" stroke-miterlimit="10" stroke-linecap="round" stroke-linejoin="round"/>
<path d="M457.737 1007.98H405.708" stroke="#5E4870" stroke-opacity="0.3" stroke-width="2.66667" stroke-miterlimit="10" stroke-linecap="round" stroke-linejoin="round"/>
<path d="M530.723 230.862V282.89" stroke="#5E4870" stroke-opacity="0.3" stroke-width="2.66667" stroke-miterlimit="10" stroke-linecap="round" stroke-linejoin="round"/>
<path d="M556.737 256.875H504.708" stroke="#5E4870" stroke-opacity="0.3" stroke-width="2.66667" stroke-miterlimit="10" stroke-linecap="round" stroke-linejoin="round"/>
<path d="M1364.53 816.828V868.856" stroke="#5E4870" stroke-opacity="0.3" stroke-width="2.66667" stroke-miterlimit="10" stroke-linecap="round" stroke-linejoin="round"/>
<path d="M1390.54 842.841H1338.52" stroke="#5E4870" stroke-opacity="0.3" stroke-width="2.66667" stroke-miterlimit="10" stroke-linecap="round" stroke-linejoin="round"/>
<path d="M940.436 409.679V461.708" stroke="#F28195" stroke-opacity="0.5" stroke-width="2.66667" stroke-miterlimit="10" stroke-linecap="round" stroke-linejoin="round"/>
<path d="M966.45 435.694H914.42" stroke="#F28195" stroke-opacity="0.5" stroke-width="2.66667" stroke-miterlimit="10" stroke-linecap="round" stroke-linejoin="round"/>
<path d="M196.152 592.247V644.276" stroke="#F28195" stroke-opacity="0.5" stroke-width="2.66667" stroke-miterlimit="10" stroke-linecap="round" stroke-linejoin="round"/>
<path d="M222.166 618.261H170.139" stroke="#F28195" stroke-opacity="0.5" stroke-width="2.66667" stroke-miterlimit="10" stroke-linecap="round" stroke-linejoin="round"/>
<path d="M102.307 134.311V186.335" stroke="#4E274E" stroke-width="2.66667" stroke-miterlimit="10" stroke-linecap="round" stroke-linejoin="round"/>
<path d="M128.321 160.321H76.292" stroke="#4E274E" stroke-width="2.66667" stroke-miterlimit="10" stroke-linecap="round" stroke-linejoin="round"/>
<path d="M294.84 463.992C294.84 475.662 285.38 485.121 273.709 485.121C262.04 485.121 252.579 475.662 252.579 463.992C252.579 452.322 262.04 442.862 273.709 442.862C285.38 442.862 294.84 452.322 294.84 463.992Z" stroke="#5E4870" stroke-opacity="0.3" stroke-width="2.66667" stroke-miterlimit="10" stroke-linecap="round" stroke-linejoin="round"/>
<path d="M311.787 233.298L307.834 226.451L303.881 233.298" stroke="#5E4870" stroke-opacity="0.3" stroke-width="2.66667" stroke-linecap="round" stroke-linejoin="round"/>
<path d="M295.132 248.448L282.011 271.176" stroke="#5E4870" stroke-opacity="0.3" stroke-width="2.66667" stroke-linecap="round" stroke-linejoin="round" stroke-dasharray="17.7 17.7"/>
<path d="M277.638 278.751L273.685 285.598H281.591" stroke="#5E4870" stroke-opacity="0.3" stroke-width="2.66667" stroke-linecap="round" stroke-linejoin="round"/>
<path d="M299.086 285.598H325.329" stroke="#5E4870" stroke-opacity="0.3" stroke-width="2.66667" stroke-linecap="round" stroke-linejoin="round" stroke-dasharray="17.7 17.7"/>
<path d="M334.077 285.598H341.983L338.03 278.751" stroke="#5E4870" stroke-opacity="0.3" stroke-width="2.66667" stroke-linecap="round" stroke-linejoin="round"/>
<path d="M329.282 263.6L316.16 240.873" stroke="#5E4870" stroke-opacity="0.3" stroke-width="2.66667" stroke-linecap="round" stroke-linejoin="round" stroke-dasharray="17.7 17.7"/>
<path d="M1417.45 557.176L1383.29 616.322H1451.59L1417.45 557.176Z" stroke="#5E4870" stroke-opacity="0.3" stroke-width="2.66667" stroke-miterlimit="10" stroke-linecap="round" stroke-linejoin="round" stroke-dasharray="16 16"/>
<path d="M915.788 937.008L879 973.797" stroke="#F28195" stroke-opacity="0.5" stroke-width="2.66667" stroke-miterlimit="10" stroke-linecap="round" stroke-linejoin="round"/>
<path d="M915.788 973.797L879 937.008" stroke="#F28195" stroke-opacity="0.5" stroke-width="2.66667" stroke-miterlimit="10" stroke-linecap="round" stroke-linejoin="round"/>
<path d="M907.789 123.309C907.789 134.97 898.328 144.434 886.658 144.434C874.989 144.434 865.529 134.97 865.529 123.309C865.529 111.634 874.989 102.173 886.658 102.173C898.328 102.173 907.789 111.634 907.789 123.309Z" stroke="#4E274E" stroke-width="2.66667" stroke-miterlimit="10" stroke-linecap="round" stroke-linejoin="round"/>
<path d="M275.78 19.7922L323.868 8.97417L334.689 -39.121L382.782 -49.9392" stroke="#5E4870" stroke-opacity="0.3" stroke-width="2.66667" stroke-miterlimit="10" stroke-linecap="round" stroke-linejoin="round"/>
<path d="M349.271 34.379L360.094 -13.7161L408.184 -24.5343" stroke="#F28195" stroke-opacity="0.5" stroke-width="2.66667" stroke-miterlimit="10" stroke-linecap="round" stroke-linejoin="round"/>
<path d="M397.55 123.309C397.55 134.97 388.089 144.434 376.419 144.434C364.749 144.434 355.289 134.97 355.289 123.309C355.289 111.634 364.749 102.173 376.419 102.173C388.089 102.173 397.55 111.634 397.55 123.309Z" stroke="#F28195" stroke-opacity="0.5" stroke-width="2.66667" stroke-miterlimit="10" stroke-linecap="round" stroke-linejoin="round"/>
<path d="M1101.93 480.019L1150.02 469.203L1160.84 421.111L1208.93 410.291" stroke="#5E4870" stroke-opacity="0.3" stroke-width="2.66667" stroke-miterlimit="10" stroke-linecap="round" stroke-linejoin="round"/>
<path d="M1175.42 494.606L1186.24 446.516L1234.33 435.694" stroke="#F28195" stroke-opacity="0.5" stroke-width="2.66667" stroke-miterlimit="10" stroke-linecap="round" stroke-linejoin="round"/>
<path d="M1223.7 583.53C1223.7 595.2 1214.24 604.661 1202.57 604.661C1190.9 604.661 1181.44 595.2 1181.44 583.53C1181.44 571.86 1190.9 562.399 1202.57 562.399C1214.24 562.399 1223.7 571.86 1223.7 583.53Z" stroke="#F28195" stroke-opacity="0.5" stroke-width="2.66667" stroke-miterlimit="10" stroke-linecap="round" stroke-linejoin="round"/>
<path d="M91.1996 394.278L29.832 410.721L74.7562 455.646L91.1996 394.278Z" stroke="#F28195" stroke-opacity="0.5" stroke-width="2.66667" stroke-miterlimit="10" stroke-linecap="round" stroke-linejoin="round"/>
<path d="M1003.22 -37.6585L941.852 -21.227L986.777 23.7057L1003.22 -37.6585Z" stroke="#F28195" stroke-opacity="0.5" stroke-width="2.66667" stroke-miterlimit="10" stroke-linecap="round" stroke-linejoin="round"/>
<path d="M444.342 856.018H399.203V810.881H444.342V856.018Z" stroke="#F28195" stroke-opacity="0.5" stroke-width="2.66667" stroke-miterlimit="10" stroke-linecap="round" stroke-linejoin="round"/>
<path d="M1202.57 154.281L1170.65 122.36L1202.57 90.4463L1234.48 122.36L1202.57 154.281Z" stroke="#F28195" stroke-opacity="0.5" stroke-width="2.66667" stroke-miterlimit="10" stroke-linecap="round" stroke-linejoin="round"/>
<path d="M1364.53 1021.52H1288.97L1272.66 1035.46H1348.22L1364.53 1021.52Z" stroke="#5E4870" stroke-opacity="0.3" stroke-width="2.66667" stroke-miterlimit="10" stroke-linecap="round" stroke-linejoin="round" stroke-dasharray="16 16"/>
<path d="M1364.53 1097.07V1021.52L1348.22 1035.46V1111.02L1364.53 1097.07Z" stroke="#5E4870" stroke-opacity="0.3" stroke-width="2.66667" stroke-miterlimit="10" stroke-linecap="round" stroke-linejoin="round" stroke-dasharray="16 16"/>
<path d="M80.0931 998.145H4.5332V922.587H80.0931V998.145Z" stroke="#4E274E" stroke-width="2.66667" stroke-miterlimit="10" stroke-linecap="round" stroke-linejoin="round"/>
<path d="M96.4021 908.64H20.8433L4.5332 922.587H80.0931L96.4021 908.64Z" stroke="#4E274E" stroke-width="2.66667" stroke-miterlimit="10" stroke-linecap="round" stroke-linejoin="round"/>
<path d="M96.4018 984.199V908.64L80.0928 922.587V998.145L96.4018 984.199Z" stroke="#4E274E" stroke-width="2.66667" stroke-miterlimit="10" stroke-linecap="round" stroke-linejoin="round"/>
<path d="M658.171 122.808H582.612V47.2528H658.171V122.808Z" stroke="#F28195" stroke-opacity="0.5" stroke-width="2.66667" stroke-miterlimit="10" stroke-linecap="round" stroke-linejoin="round"/>
<path d="M674.481 33.2986H598.921L582.612 47.2528H658.171L674.481 33.2986Z" stroke="#F28195" stroke-opacity="0.5" stroke-width="2.66667" stroke-miterlimit="10" stroke-linecap="round" stroke-linejoin="round"/>
<path d="M674.482 108.854V33.2986L658.171 47.2528V122.808L674.482 108.854Z" stroke="#F28195" stroke-opacity="0.5" stroke-width="2.66667" stroke-miterlimit="10" stroke-linecap="round" stroke-linejoin="round"/>
</svg>
