<svg width="82" height="81" viewBox="0 0 82 81" fill="none" xmlns="http://www.w3.org/2000/svg">
<mask id="mask0" mask-type="alpha" maskUnits="userSpaceOnUse" x="0" y="0" width="82" height="79">
<path d="M81.6667 0H0V58.662H14.6347C17.769 70.2897 28.3097 78.8418 40.8333 78.8418C53.3569 78.8418 63.8976 70.2897 67.032 58.662H81.6667V0Z" fill="white"/>
</mask>
<g mask="url(#mask0)">
<path d="M40.833 78.6128C55.8272 78.6128 67.9825 66.4576 67.9825 51.4634C67.9825 36.4692 55.8272 24.314 40.833 24.314C25.8388 24.314 13.6836 36.4692 13.6836 51.4634C13.6836 66.4576 25.8388 78.6128 40.833 78.6128Z" fill="#85C5E5"/>
<path d="M68.0405 30.1351C68.0455 29.1903 67.7695 28.2654 67.2476 27.4778C66.7257 26.6903 65.9815 26.0756 65.1095 25.712C65.7612 25.2725 66.2946 24.6792 66.6624 23.9845C67.0302 23.2898 67.2211 22.5152 67.2181 21.7291C67.2181 19.4612 65.6665 17.5641 63.5864 17.0839C63.9894 16.3626 64.2006 15.55 64.1997 14.7237C64.1997 12.0949 62.1115 9.96339 59.5349 9.96339C58.8509 9.96286 58.1755 10.1161 57.5586 10.4117C57.5955 10.1707 57.6137 9.92714 57.6133 9.68328C57.6133 7.05279 55.5251 4.91966 52.9485 4.91966C52.2637 4.92058 51.5878 5.07394 50.9696 5.3686C50.3515 5.66326 49.8067 6.09184 49.3748 6.62323C49.2433 4.11279 47.2082 2.11768 44.7198 2.11768C43.881 2.12044 43.0586 2.35018 42.3399 2.78253C41.6211 3.21488 41.0328 3.83372 40.6373 4.57339C40.2415 3.83377 39.653 3.215 38.9341 2.78267C38.2152 2.35034 37.3928 2.12056 36.5539 2.11768C34.0631 2.11768 32.028 4.11279 31.8989 6.62323C31.4668 6.09191 30.9218 5.66339 30.3036 5.36874C29.6853 5.07409 29.0093 4.92069 28.3244 4.91966C25.7494 4.91966 23.6604 7.05198 23.6604 9.68328C23.6601 9.9271 23.6781 10.1706 23.7143 10.4117C23.0983 10.1161 22.4237 9.96286 21.7404 9.96339C19.1646 9.96339 17.0756 12.0965 17.0756 14.727C17.0743 15.5533 17.2855 16.3661 17.6889 17.0872C15.6105 17.5674 14.058 19.4645 14.058 21.7324C14.0557 22.5184 14.2473 23.2929 14.6156 23.9874C14.984 24.6818 15.5178 25.2747 16.1699 25.7136C15.3088 26.0783 14.5729 26.6864 14.0523 27.4633C13.5318 28.2402 13.2493 29.1522 13.2395 30.0873C13.2297 31.0224 13.493 31.94 13.9972 32.7277C14.5013 33.5153 15.2244 34.1387 16.0776 34.5214C15.305 35.4021 14.881 36.5348 14.8853 37.7064C14.8853 40.0347 16.5227 41.9735 18.6861 42.3883C17.7461 43.2303 63.2238 43.2809 62.3108 42.4332C64.6138 42.1417 66.3941 40.1376 66.3941 37.7072C66.3978 36.5356 65.9735 35.403 65.201 34.5222C66.0499 34.1466 66.7707 33.5314 67.2751 32.7522C67.7795 31.9729 68.0455 31.0633 68.0405 30.1351ZM22.1161 41.9392C22.0401 41.8967 21.9617 41.8575 21.8833 41.824C21.9625 41.7775 22.1161 41.9392 22.1161 41.9392Z" fill="#592D3D"/>
<path d="M38.3833 41.2768C37.7919 41.8168 37.0575 42.1748 36.2678 42.3081C35.4782 42.4413 34.6669 42.3441 33.9311 42.0281C33.1953 41.7121 32.5662 41.1907 32.1192 40.5263C31.6722 39.8619 31.4261 39.0827 31.4106 38.2821C30.6641 38.5212 29.8654 38.5452 29.1059 38.3514C28.3464 38.1576 27.6568 37.7538 27.1161 37.1863C26.5755 36.6188 26.2056 35.9105 26.0488 35.1425C25.892 34.3745 25.9547 33.5779 26.2296 32.8439C25.4264 32.79 24.6557 32.5053 24.0104 32.024C23.365 31.5427 22.8724 30.8853 22.5917 30.1307C22.3111 29.3762 22.2543 28.5566 22.4282 27.7706C22.6021 26.9845 22.9994 26.2654 23.5722 25.6997C22.8308 25.3786 22.1981 24.8501 21.7501 24.1778C21.3021 23.5055 21.058 22.718 21.0471 21.9102C21.0362 21.1023 21.2591 20.3086 21.6888 19.6244C22.1185 18.9403 22.7368 18.395 23.4693 18.0541C22.9618 17.44 22.6394 16.6943 22.5397 15.9039C22.4401 15.1136 22.5673 14.3112 22.9065 13.5904C23.2458 12.8696 23.783 12.2602 24.4556 11.8333C25.1282 11.4064 25.9083 11.1796 26.7049 11.1794H26.718C26.5652 10.5596 26.5553 9.91331 26.6891 9.28923C26.8229 8.66514 27.0968 8.07964 27.4902 7.577C27.8835 7.07437 28.386 6.66775 28.9597 6.3879C29.5333 6.10806 30.1631 5.9623 30.8013 5.96167C30.9558 5.96186 31.1101 5.97031 31.2636 5.98699C30.4392 5.29692 29.3986 4.91854 28.3236 4.91797C25.7478 4.91797 23.6596 7.05029 23.6596 9.68159C23.6593 9.92541 23.6773 10.1689 23.7135 10.4101C23.0976 10.1151 22.4233 9.96242 21.7404 9.96334C19.1646 9.96334 17.0756 12.0965 17.0756 14.727C17.0743 15.5532 17.2855 16.366 17.6889 17.0871C15.6105 17.5673 14.058 19.4644 14.058 21.7323C14.0557 22.5184 14.2473 23.2929 14.6156 23.9873C14.984 24.6817 15.5178 25.2746 16.1699 25.7136C15.3088 26.0783 14.5729 26.6864 14.0523 27.4633C13.5318 28.2402 13.2493 29.1521 13.2395 30.0872C13.2297 31.0223 13.493 31.94 13.9972 32.7276C14.5013 33.5152 15.2244 34.1386 16.0776 34.5213C15.305 35.402 14.881 36.5348 14.8853 37.7063C14.8853 40.0346 16.5227 41.9734 18.6861 42.3883C18.2279 42.7966 28.7972 43.0212 39.6466 43.0416C39.0774 42.5749 38.6415 41.9661 38.3833 41.2768Z" fill="#592D3D"/>
<path d="M60.5312 31.5234L57.6729 37.9065L60.8962 42.693C61.8958 42.6187 62.416 42.5297 62.3099 42.4341C64.6129 42.1426 66.3932 40.1385 66.3932 37.7081C66.3927 37.4427 66.3708 37.1778 66.3279 36.9159C64.6945 31.9636 60.5312 31.5234 60.5312 31.5234Z" fill="#592D3D"/>
<path d="M68.0405 30.1351C68.0455 29.1903 67.7695 28.2654 67.2476 27.4778C66.7257 26.6903 65.9815 26.0756 65.1095 25.712C65.7612 25.2725 66.2946 24.6792 66.6624 23.9845C67.0302 23.2898 67.221 22.5152 67.2181 21.7291C67.2181 19.4612 65.6665 17.5641 63.5864 17.0839C63.9894 16.3626 64.2006 15.55 64.1997 14.7237C64.1997 12.0949 62.1115 9.96339 59.5349 9.96339C58.8509 9.96286 58.1755 10.1161 57.5586 10.4117C57.5955 10.1707 57.6137 9.92714 57.6133 9.68328C57.6133 7.05279 55.5251 4.91966 52.9485 4.91966C52.2637 4.92058 51.5878 5.07394 50.9696 5.3686C50.3515 5.66326 49.8067 6.09184 49.3748 6.62323C49.2433 4.11279 47.2082 2.11768 44.7198 2.11768C43.881 2.12044 43.0586 2.35018 42.3399 2.78253C41.6211 3.21488 41.0328 3.83372 40.6373 4.57339C40.2415 3.83377 39.653 3.215 38.9341 2.78267C38.2152 2.35034 37.3928 2.12056 36.5539 2.11768C34.0631 2.11768 32.028 4.11279 31.8989 6.62323C31.4668 6.09191 30.9218 5.66339 30.3036 5.36874C29.6853 5.07409 29.0093 4.92069 28.3244 4.91966C25.7494 4.91966 23.6604 7.05198 23.6604 9.68328C23.6601 9.9271 23.6781 10.1706 23.7143 10.4117C23.0983 10.1161 22.4237 9.96286 21.7404 9.96339C19.1646 9.96339 17.0756 12.0965 17.0756 14.727C17.0743 15.5533 17.2855 16.3661 17.6889 17.0872C15.6105 17.5674 14.058 19.4645 14.058 21.7324C14.0557 22.5184 14.2473 23.2929 14.6156 23.9874C14.984 24.6818 15.5178 25.2747 16.1699 25.7136C15.3088 26.0783 14.5729 26.6864 14.0523 27.4633C13.5318 28.2402 13.2493 29.1522 13.2395 30.0873C13.2297 31.0224 13.493 31.94 13.9972 32.7277C14.5013 33.5153 15.2244 34.1387 16.0776 34.5214C15.305 35.4021 14.881 36.5348 14.8853 37.7064C14.8853 40.0347 16.5227 41.9735 18.6861 42.3883C17.7461 43.2303 63.2238 43.2809 62.3108 42.4332C64.6138 42.1417 66.3941 40.1376 66.3941 37.7072C66.3978 36.5356 65.9735 35.403 65.201 34.5222C66.0499 34.1466 66.7707 33.5314 67.2751 32.7522C67.7795 31.9729 68.0455 31.0633 68.0405 30.1351V30.1351Z" stroke="#592D3D" stroke-width="0.98" stroke-miterlimit="10"/>
<path d="M49.8164 61.9624C57.2285 61.9624 55.6964 71.292 55.7675 81.6669H49.8164V61.9624Z" fill="#FBE8B3"/>
<path d="M51.6735 67.9358L49.8164 71.0498L50.7458 81.6665H53.3395C53.4024 66.9444 51.6735 67.9358 51.6735 67.9358Z" fill="#EDD494"/>
<path d="M19.0488 40.8334C19.0488 28.8023 28.8023 19.0488 40.8334 19.0488C52.8646 19.0488 62.618 28.8023 62.618 40.8334C62.6211 44.0751 61.8993 47.2765 60.5053 50.2031C59.1113 53.1298 57.0806 55.7078 54.5616 57.7482C54.1146 58.1119 53.6535 58.4574 53.1782 58.7846C48.2651 61.9034 42.0584 61.9034 36.4553 61.4044C35.9114 61.3228 35.3691 61.2199 34.8309 61.1014C32.6806 60.6278 30.599 59.8969 28.6757 58.8311C28.2004 58.5382 27.7395 58.2219 27.2931 57.8821C26.8444 57.5405 26.4137 57.1758 26.0028 56.7894C25.614 56.4285 25.2386 56.0534 24.8766 55.6641C21.1246 51.6378 19.0416 46.3369 19.0488 40.8334Z" fill="#FBE8B3"/>
<path d="M22.0179 51.8157C22.075 51.9137 22.1314 52.0117 22.1902 52.108C22.2253 52.1668 22.2621 52.224 22.2988 52.2828C22.3527 52.3702 22.4066 52.4576 22.4621 52.5433C22.5013 52.6054 22.5438 52.6658 22.5814 52.7263C22.6353 52.8079 22.6892 52.8896 22.7447 52.9713C22.7864 53.0333 22.8264 53.0954 22.8721 53.1575C22.926 53.2391 22.9799 53.3143 23.0354 53.3927C23.0795 53.4555 23.1253 53.5176 23.1702 53.5805C23.2151 53.6434 23.2796 53.7316 23.3335 53.8067C23.3874 53.8818 23.4274 53.9317 23.4748 53.9937C23.5222 54.0558 23.5867 54.1407 23.6439 54.2142C23.701 54.2877 23.741 54.3375 23.79 54.3988C23.839 54.46 23.9052 54.5425 23.9632 54.6136C24.0212 54.6846 24.0636 54.7353 24.1143 54.7957C24.1649 54.8561 24.2319 54.9362 24.2915 55.0056C24.3511 55.075 24.3952 55.1256 24.4475 55.1852L24.6288 55.3894C24.6818 55.449 24.7357 55.507 24.7921 55.5658C24.8623 55.6426 24.9334 55.7185 25.0044 55.7937L25.1032 55.8982C25.2086 56.0076 25.3148 56.1171 25.4226 56.2249L25.4438 56.2469C25.5491 56.3514 25.6561 56.4552 25.7631 56.5581L25.8921 56.6806C25.9697 56.7532 26.0473 56.8259 26.1257 56.8978L26.2204 56.9844C26.3021 57.0611 26.3911 57.1363 26.4769 57.2114C26.7437 57.4439 27.0159 57.6668 27.2935 57.8802C27.7394 58.22 28.2003 58.5363 28.6762 58.8292C30.5994 59.8909 32.6778 60.6259 34.8314 61.0995C35.3696 61.218 35.9118 61.32 36.4557 61.4025C39.8939 61.7088 43.5607 61.8256 47.0136 61.151C41.5231 59.5348 15.1562 50.0402 31.7517 21.0273C31.5296 21.1294 31.3107 21.2348 31.0935 21.3442L31.0453 21.3679C30.9457 21.4177 30.846 21.4692 30.7472 21.5214L30.6656 21.5647C30.3585 21.728 30.0547 21.8971 29.7566 22.0735L29.6831 22.1168C29.5884 22.1731 29.4945 22.2303 29.4005 22.2883L29.3295 22.3324C29.0377 22.5148 28.7505 22.7034 28.4679 22.8983L28.3797 22.9596C28.2907 23.0216 28.2033 23.0837 28.1159 23.1466L28.062 23.185C27.884 23.3151 27.7081 23.4469 27.5345 23.5802L27.4838 23.6194C27.4022 23.6831 27.3205 23.7485 27.2388 23.8146L27.1433 23.8914C27.0616 23.9575 26.9799 24.0237 26.8983 24.0915C26.726 24.2344 26.5561 24.3814 26.3887 24.53L26.2956 24.6117L26.0759 24.8118L25.9697 24.9081C25.7367 25.1259 25.5089 25.3483 25.2862 25.5754L25.1735 25.6905C25.109 25.7575 25.0444 25.8244 24.9807 25.8922C24.9432 25.9322 24.9056 25.9739 24.8689 26.0131C24.7567 26.1329 24.6462 26.2543 24.5373 26.3773C24.5005 26.419 24.463 26.459 24.4262 26.5031C24.3682 26.5692 24.3111 26.6362 24.2539 26.7032L24.1306 26.8494C24.0751 26.9155 24.0195 26.9817 23.9673 27.0486C23.9232 27.1025 23.8791 27.1572 23.8358 27.212C23.7484 27.3206 23.6626 27.4292 23.5777 27.5386C23.5336 27.5958 23.4895 27.653 23.4462 27.7109C23.4029 27.7689 23.3482 27.8408 23.3 27.9069C23.2519 27.9731 23.2127 28.0254 23.1702 28.085C23.1277 28.1446 23.0779 28.2116 23.033 28.2753C22.9557 28.3841 22.8795 28.4944 22.8043 28.606C22.7635 28.6656 22.7227 28.7269 22.6826 28.7873C22.6426 28.8477 22.5928 28.9229 22.5487 28.9915L22.427 29.1801L22.2898 29.4014C22.2547 29.4578 22.2196 29.5141 22.1853 29.5705C22.1126 29.6897 22.0424 29.8098 21.9721 29.9298L21.8725 30.1062C21.8284 30.1838 21.7843 30.2622 21.741 30.3406C21.7084 30.4002 21.6757 30.4598 21.6438 30.5195C21.5916 30.6166 21.5401 30.7146 21.4887 30.8126L21.3907 31.0037C21.3384 31.1083 21.2861 31.212 21.2347 31.3173C21.2077 31.3737 21.18 31.4309 21.153 31.488C21.1106 31.577 21.0714 31.6669 21.0281 31.7567C21.0028 31.8106 20.9783 31.8645 20.9538 31.92C20.8933 32.0545 20.8343 32.1906 20.7765 32.3284C20.7586 32.3708 20.7414 32.4141 20.7235 32.4566C20.6802 32.5603 20.6377 32.664 20.5961 32.7686C20.574 32.8233 20.5528 32.878 20.5315 32.9319C20.4907 33.0348 20.4499 33.1385 20.4131 33.2422C20.396 33.2871 20.3788 33.3321 20.3625 33.377C20.3113 33.5202 20.261 33.6634 20.2114 33.8065L20.1657 33.9454C20.1297 34.0543 20.0946 34.1632 20.0603 34.272L20.0113 34.428C19.9729 34.5538 19.9354 34.6796 19.8994 34.8061C19.8913 34.8331 19.8831 34.86 19.8758 34.8878C19.8333 35.0381 19.7925 35.1889 19.7533 35.3402C19.7402 35.3884 19.7288 35.4374 19.7165 35.4856C19.6879 35.5991 19.6602 35.7126 19.6348 35.827L19.6005 35.9699C19.5654 36.1251 19.5311 36.2802 19.4993 36.4362L19.487 36.4991C19.4593 36.6379 19.432 36.7768 19.4054 36.9156C19.3964 36.9654 19.3882 37.0144 19.3792 37.0642C19.358 37.1859 19.3376 37.3092 19.3188 37.4317C19.3123 37.4734 19.3049 37.5134 19.2992 37.5559C19.2747 37.7151 19.2526 37.8752 19.2314 38.0361L19.2192 38.1422C19.2028 38.2721 19.1881 38.4027 19.1742 38.5334C19.1693 38.5824 19.1636 38.6314 19.1587 38.6812C19.1457 38.8184 19.1334 38.9564 19.122 39.0945C19.122 39.123 19.1171 39.1508 19.1154 39.1761C19.1035 39.3395 19.0928 39.5042 19.0836 39.6702C19.0836 39.7135 19.0836 39.7576 19.0779 39.8009C19.0724 39.9294 19.0675 40.0576 19.0632 40.1855C19.0632 40.2337 19.0632 40.2819 19.0632 40.3301C19.0632 40.4975 19.0566 40.6657 19.0566 40.834C19.0566 40.834 19.0566 40.8397 19.0566 40.8421C19.0566 41.0234 19.0566 41.2031 19.0632 41.3828C19.0632 41.4448 19.0681 41.5069 19.0697 41.569C19.0738 41.689 19.0779 41.8091 19.0836 41.9291C19.0836 42.0018 19.0926 42.0737 19.0967 42.1463C19.1032 42.255 19.1089 42.3636 19.1171 42.473C19.1228 42.5547 19.1301 42.6274 19.1367 42.7041C19.1457 42.807 19.1538 42.9099 19.1644 43.012C19.1718 43.0937 19.1816 43.1704 19.1898 43.2497C19.2012 43.3485 19.2118 43.4481 19.2241 43.5469C19.2339 43.6286 19.2453 43.7103 19.2559 43.7878C19.269 43.8842 19.282 43.9814 19.2967 44.0778C19.309 44.1594 19.3221 44.2411 19.3351 44.3228C19.3498 44.4175 19.3653 44.513 19.3817 44.6078C19.3964 44.6894 19.4111 44.7711 19.4266 44.8528C19.4437 44.9467 19.4617 45.0406 19.4797 45.1337C19.4976 45.2268 19.5132 45.297 19.5303 45.3787C19.5499 45.4718 19.5695 45.5641 19.5907 45.6564C19.612 45.7487 19.6267 45.8197 19.6463 45.8957C19.6675 45.9879 19.6904 46.0794 19.7132 46.1701C19.7361 46.2607 19.7533 46.3293 19.7737 46.4077C19.7982 46.4992 19.8227 46.5898 19.848 46.6805C19.8692 46.7621 19.8913 46.8373 19.9141 46.9149C19.9403 47.0055 19.9672 47.0953 19.9958 47.1852C20.0244 47.275 20.0432 47.3395 20.0677 47.4171C20.0922 47.4947 20.1248 47.596 20.1542 47.685C20.1836 47.774 20.2049 47.8377 20.231 47.9136C20.262 48.0027 20.2931 48.0917 20.3249 48.1807C20.3519 48.255 20.378 48.3301 20.4066 48.4045L20.5079 48.6715C20.5364 48.7442 20.5642 48.8177 20.5895 48.8904C20.6255 48.9794 20.6622 49.0692 20.699 49.1582C20.7284 49.2285 20.7569 49.2995 20.7872 49.3698C20.8255 49.4612 20.8688 49.5511 20.9056 49.6417C20.9358 49.7087 20.9652 49.7765 20.9954 49.8434C21.0379 49.9382 21.0828 50.0313 21.1261 50.1244L21.2143 50.3122C21.2641 50.4151 21.3155 50.5164 21.367 50.6184C21.3931 50.6699 21.4176 50.7222 21.4446 50.7736C21.6014 51.079 21.7647 51.3804 21.9346 51.6777C21.9583 51.716 21.9885 51.7659 22.0179 51.8157Z" fill="#EDD494"/>
<path d="M19.0488 40.8334C19.0488 28.8023 28.8023 19.0488 40.8334 19.0488C52.8646 19.0488 62.618 28.8023 62.618 40.8334C62.6211 44.0751 61.8993 47.2765 60.5053 50.2031C59.1113 53.1298 57.0806 55.7078 54.5616 57.7482C54.1146 58.1119 53.6535 58.4574 53.1782 58.7846C48.2651 61.9034 42.0584 61.9034 36.4553 61.4044C35.9114 61.3228 35.3691 61.2199 34.8309 61.1014C32.6806 60.6278 30.599 59.8969 28.6757 58.8311C28.2004 58.5382 27.7395 58.2219 27.2931 57.8821C26.8444 57.5405 26.4137 57.1758 26.0028 56.7894C25.614 56.4285 25.2386 56.0534 24.8766 55.6641C21.1246 51.6378 19.0416 46.3369 19.0488 40.8334V40.8334Z" stroke="#592D3D" stroke-width="0.98" stroke-miterlimit="10"/>
<path d="M31.5331 61.9624C24.1202 61.9624 25.6531 71.292 25.5821 81.6669H31.5331V61.9624Z" fill="#FBE8B3"/>
<path d="M29.9909 67.9358L31.8505 71.0498L30.9203 81.6665H28.329C28.2629 66.9444 29.9909 67.9358 29.9909 67.9358Z" fill="#EDD494"/>
<path d="M50.5903 87.3836H31.0769C30.7894 87.3834 30.5137 87.269 30.3105 87.0657C30.1073 86.8623 29.9932 86.5866 29.9932 86.2991V63.0469C29.9932 62.7594 30.1073 62.4837 30.3105 62.2803C30.5137 62.077 30.7894 61.9626 31.0769 61.9624H50.124C51.193 61.9624 51.6757 62.588 51.6757 63.5859V86.2958C51.6761 86.4386 51.6483 86.58 51.594 86.712C51.5396 86.844 51.4597 86.964 51.3589 87.0651C51.258 87.1662 51.1382 87.2463 51.0064 87.301C50.8745 87.3556 50.7331 87.3837 50.5903 87.3836Z" fill="#FBE8B3"/>
<path d="M51.3727 62.6074C51.2913 62.5073 51.2224 62.3976 51.1677 62.2807C50.9716 62.1271 50.7383 62.0282 50.4915 61.9941C50.3699 61.9753 50.247 61.966 50.124 61.9663H31.0769C30.7901 61.9665 30.5151 62.0803 30.312 62.2828C30.1089 62.4853 29.9942 62.76 29.9932 63.0468C32.3615 63.8977 36.7952 64.373 40.8336 64.373C45.9835 64.373 49.358 63.6094 51.3727 62.6074Z" fill="#EDD494"/>
<path d="M49.8164 61.9624C57.2285 61.9624 55.6964 71.292 55.7675 81.6669H51.6735" stroke="#592D3D" stroke-width="0.98" stroke-miterlimit="10" stroke-linecap="square"/>
<path d="M31.5331 61.9624C24.1202 61.9624 25.6531 71.292 25.5821 81.6669H29.6711" stroke="#592D3D" stroke-width="0.98" stroke-miterlimit="10" stroke-linecap="square"/>
<path d="M31.0771 61.9706L50.1243 61.9624" stroke="#592D3D" stroke-width="0.98" stroke-miterlimit="10"/>
<path d="M31.0769 87.3831H40.6009C31.6869 87.3831 32.3599 68.5034 29.9932 68.5034V86.2953C29.9927 86.438 30.0204 86.5793 30.0747 86.7112C30.129 86.8431 30.2087 86.963 30.3094 87.064C30.41 87.1651 30.5296 87.2453 30.6613 87.3C30.793 87.3548 30.9343 87.383 31.0769 87.3831Z" fill="#EDD494"/>
<path d="M29.5032 70.303C29.4877 70.0033 29.4942 69.7035 29.5073 69.4046C29.5203 69.1057 29.5456 68.8044 29.5775 68.5063C29.5938 68.356 29.6102 68.2066 29.6306 68.0563C29.651 67.9061 29.6706 67.7566 29.7 67.6063C29.7579 67.2953 29.8565 66.9933 29.9932 66.708C30.1299 66.9933 30.2284 67.2953 30.2864 67.6063C30.3158 67.7566 30.337 67.9061 30.3558 68.0563C30.3746 68.2066 30.3925 68.356 30.4089 68.5063C30.4399 68.806 30.4644 69.1057 30.4783 69.4046C30.4922 69.7035 30.4987 70.0041 30.4832 70.303H29.5032Z" fill="#592D3D"/>
<path d="M51.6737 71.05V71.7033C51.695 74.48 51.695 77.3383 51.6737 80.0946C51.6737 80.329 51.6737 80.5617 51.6737 80.7912V86.2963C51.674 86.4389 51.6463 86.5801 51.5919 86.7119C51.5376 86.8437 51.4579 86.9636 51.3572 87.0645C51.2566 87.1655 51.137 87.2456 51.0054 87.3003C50.8737 87.355 50.7326 87.3832 50.59 87.3833H31.0766C30.7891 87.3831 30.5134 87.2687 30.3102 87.0654C30.107 86.862 29.9929 86.5863 29.9929 86.2988V81.5458C29.9929 81.3408 29.9929 81.1317 29.9929 80.921C29.9724 78.0733 29.9724 75.215 29.9929 72.3215V70.3027" stroke="#592D3D" stroke-width="0.98" stroke-miterlimit="10"/>
<path d="M51.1835 71.0497C51.168 70.7091 51.1754 70.3678 51.1884 70.0264C51.2015 69.685 51.2268 69.3445 51.2579 69.0031C51.2742 68.8324 51.2913 68.6617 51.3109 68.4911C51.3305 68.3204 51.351 68.1505 51.3804 67.9798C51.4373 67.6283 51.5357 67.2848 51.6735 66.9565C51.8114 67.2848 51.9098 67.6283 51.9667 67.9798C51.9961 68.1505 52.0174 68.3212 52.0361 68.4911C52.0549 68.6609 52.0729 68.8324 52.0892 69.0031C52.1203 69.3445 52.1456 69.685 52.1586 70.0264C52.1717 70.3678 52.1791 70.7091 52.1635 71.0497H51.1835Z" fill="#592D3D"/>
<path d="M46.6055 68.8001C46.6234 68.0284 47.6034 67.7017 48.0934 68.1917C48.1731 68.273 48.2359 68.3692 48.2784 68.4747C48.3208 68.5803 48.3421 68.6932 48.3409 68.807C48.3397 68.9208 48.3162 69.0332 48.2715 69.1379C48.2269 69.2426 48.1621 69.3375 48.0808 69.4171C47.9995 69.4967 47.9033 69.5596 47.7977 69.602C47.6922 69.6445 47.5792 69.6657 47.4655 69.6646C47.3517 69.6634 47.2392 69.6398 47.1345 69.5952C47.0299 69.5505 46.935 69.4857 46.8554 69.4044C46.7759 69.3252 46.7128 69.231 46.6699 69.1273C46.627 69.0236 46.6051 68.9124 46.6055 68.8001Z" fill="#592D3D"/>
<path d="M33.3284 68.7757C33.3113 68.1101 34.0463 67.7835 34.5363 68.0285C35.1896 68.2735 35.1896 69.1718 34.5363 69.5801C34.2096 69.7435 33.8829 69.5801 33.5767 69.3776C33.4977 69.2986 33.4351 69.2047 33.3925 69.1014C33.3499 68.9981 33.3281 68.8875 33.3284 68.7757Z" fill="#592D3D"/>
<path d="M40.8331 67.9277C40.8916 68.0817 40.9327 68.2416 40.9556 68.4047C40.9799 68.5625 40.9933 68.7219 40.9957 68.8816L41.0202 69.8363C41.0275 70.154 41.0373 70.4725 41.0406 70.791L41.0545 71.744C41.0732 73.0156 41.0724 74.2887 41.0773 75.5611C41.0822 76.8335 41.092 78.1058 41.0773 79.3782C41.07 80.0144 41.0528 80.6506 41.034 81.2868C41.0259 81.6044 41.0104 81.923 40.9793 82.2406C40.9515 82.5616 40.9033 82.8805 40.8348 83.1953C40.7663 82.8805 40.718 82.5616 40.6902 82.2406C40.6592 81.923 40.6437 81.6044 40.6355 81.2868C40.6167 80.6506 40.5996 80.0144 40.5922 79.3782C40.5759 78.1058 40.5922 76.8335 40.5922 75.5611C40.5922 74.2887 40.5922 73.0172 40.6069 71.7448L40.6208 70.7893L40.6478 69.8355L40.6747 68.8816C40.6777 68.7219 40.6914 68.5626 40.7155 68.4047C40.7369 68.2418 40.7764 68.0819 40.8331 67.9277Z" fill="#EDD494"/>
<path d="M34.7266 72.1116C34.8477 72.054 34.9759 72.0128 35.1079 71.9891C35.2341 71.9654 35.3619 71.9517 35.4901 71.9483L36.2537 71.9213L37.7809 71.8878C38.7985 71.8723 39.8152 71.8682 40.8336 71.8658C41.852 71.8633 42.8695 71.8527 43.8871 71.8658C44.3959 71.8731 44.9047 71.8903 45.4143 71.9091C45.6683 71.918 45.9231 71.9336 46.177 71.9638C46.435 71.9924 46.6903 72.041 46.9406 72.1091C46.6904 72.1777 46.435 72.2261 46.177 72.2537C45.9231 72.2847 45.6683 72.3002 45.4143 72.3084C44.9047 72.3272 44.3959 72.3435 43.8871 72.3509C42.8695 72.3664 41.852 72.3509 40.8336 72.3509C39.8152 72.3509 38.7976 72.3509 37.7793 72.3386C37.2705 72.3337 36.7617 72.3174 36.2537 72.2978L35.4901 72.27C35.3621 72.2666 35.2346 72.2529 35.1088 72.2292C34.9767 72.2071 34.8482 72.1676 34.7266 72.1116Z" fill="#EDD494"/>
<path d="M36.1299 74.6746C36.2263 74.6286 36.3294 74.598 36.4353 74.584C36.5332 74.5702 36.6322 74.5661 36.7309 74.5717C36.9261 74.5799 37.1213 74.5848 37.3165 74.5889C37.7069 74.5979 38.0972 74.6011 38.4876 74.6028C39.274 74.6028 40.0466 74.6093 40.8363 74.5856C41.626 74.5619 42.4092 74.5505 43.1949 74.5538C43.5877 74.5538 43.9805 74.5644 44.3725 74.5734C44.5698 74.576 44.7669 74.5888 44.9629 74.6118C45.1644 74.634 45.3633 74.6758 45.5567 74.7367C45.3678 74.8109 45.1719 74.8656 44.9719 74.9C44.7772 74.9351 44.5806 74.9586 44.3831 74.9703C43.9895 74.9989 43.5959 75.0234 43.203 75.0372C42.4158 75.0666 41.6293 75.0634 40.8445 75.074C40.4517 75.074 40.0597 75.092 39.662 75.0822C39.2642 75.0724 38.8706 75.0715 38.4762 75.0568C38.0817 75.0421 37.6856 75.0095 37.292 74.9686C37.0944 74.9466 36.8984 74.9221 36.7015 74.8951C36.6022 74.883 36.5044 74.86 36.41 74.8265C36.3087 74.7922 36.2139 74.7408 36.1299 74.6746Z" fill="#EDD494"/>
<path d="M35.8457 77.5731C35.9426 77.5161 36.0479 77.4747 36.1577 77.4506C36.26 77.4268 36.3646 77.4134 36.4696 77.4106L37.0928 77.3844C37.5084 77.3697 37.9249 77.3575 38.3406 77.3509C39.172 77.3387 40.0034 77.3387 40.8331 77.3387C41.6628 77.3387 42.4958 77.3248 43.3272 77.3387C43.7429 77.346 44.1586 77.3632 44.5742 77.382C44.7827 77.389 44.9907 77.407 45.1974 77.4359C45.4101 77.4651 45.6196 77.5146 45.8229 77.5837C45.6203 77.6515 45.4116 77.6999 45.1998 77.7282C44.993 77.7578 44.7847 77.7761 44.5759 77.783C44.1602 77.8017 43.7445 77.8189 43.3288 77.8262C42.4975 77.8426 41.6653 77.8311 40.8339 77.8262C40.0025 77.8213 39.1712 77.8213 38.3398 77.8058C37.9241 77.7977 37.5076 77.783 37.0919 77.7658L36.4688 77.7356C36.3637 77.7324 36.2592 77.7187 36.1569 77.6948C36.0473 77.6711 35.9423 77.63 35.8457 77.5731Z" fill="#EDD494"/>
<path d="M55.3534 74.0189C55.3706 70.9883 55.2546 68.2965 54.7221 66.2287C53.8997 64.1577 52.4208 62.9229 49.8164 62.9229L51.6776 73.9087C51.6776 73.9087 53.5167 74.7449 55.3534 74.0189Z" fill="#EDD494"/>
<path d="M56.057 73.1558C55.9639 73.2327 55.8625 73.2993 55.7549 73.3542" stroke="#592D3D" stroke-width="0.98" stroke-miterlimit="10" stroke-linecap="square"/>
<path d="M26.6318 66.1404C26.0741 68.2287 25.9785 70.9694 25.9997 74.0621C27.6249 74.7595 30.1174 73.8865 30.1174 73.8865L31.5327 63.0869C29.0116 63.0845 27.5089 64.2196 26.6318 66.1404Z" fill="#EDD494"/>
<path d="M50.124 61.9624H45.6968V61.9706C45.697 62.3382 45.6575 62.7049 45.5792 63.0641C45.5412 63.2388 45.4938 63.4114 45.4372 63.581C45.2565 64.0877 44.9791 64.5545 44.6205 64.9555C44.506 65.084 44.3833 65.2048 44.253 65.3173C42.1974 66.8036 38.9308 66.8853 36.9455 65.2699C36.7316 65.083 36.537 64.8751 36.3648 64.6492C36.0072 64.1797 35.7539 63.6393 35.6216 63.0641C35.5829 62.8864 35.5538 62.7067 35.5343 62.5259C35.5138 62.3415 35.5038 62.1561 35.504 61.9706V61.9624H31.0769C30.7894 61.9626 30.5137 62.077 30.3105 62.2803C30.1073 62.4837 29.9932 62.7594 29.9932 63.0469V86.2958C29.9927 86.4384 30.0204 86.5797 30.0747 86.7117C30.129 86.8436 30.2087 86.9635 30.3094 87.0645C30.41 87.1656 30.5296 87.2458 30.6613 87.3005C30.793 87.3553 30.9343 87.3835 31.0769 87.3836H50.5903C50.8778 87.3834 51.1535 87.269 51.3567 87.0657C51.5599 86.8623 51.674 86.5866 51.674 86.2991V63.5859C51.674 62.588 51.193 61.9624 50.124 61.9624Z" fill="#D67070"/>
<path d="M49.8164 61.9624C55.0055 61.9624 55.8107 66.5357 55.8516 72.838C54.3326 73.7869 51.8573 72.9449 51.8573 72.9449L49.8164 61.9624Z" fill="#D67070"/>
<path d="M51.6735 67.9358L49.8164 71.0498L50.7458 81.6665H51.6939V73.0384L53.1051 73.2744C52.6421 67.3805 51.6735 67.9358 51.6735 67.9358Z" fill="#C46565"/>
<path d="M31.5329 61.9624C26.4876 61.9624 25.3401 66.3561 25.2568 72.388C26.8085 74.0099 29.9935 72.762 29.9935 72.762L31.5329 61.9624Z" fill="#D67070"/>
<path d="M29.9908 67.9358V72.7648L28.5771 73.1168C29.0402 67.3903 29.9908 67.9358 29.9908 67.9358Z" fill="#C46565"/>
<path d="M49.8164 61.9624C55.3216 61.9624 56.2232 66.5594 56.2599 72.8878C54.1202 73.9029 51.8573 72.9449 51.8573 72.9449" stroke="#592D3D" stroke-width="0.98" stroke-miterlimit="10" stroke-linecap="square"/>
<path d="M31.5329 61.9624C26.0784 61.9624 24.993 66.4296 24.9375 72.6379C26.6231 73.8449 29.9894 72.7653 29.9894 72.7653" stroke="#592D3D" stroke-width="0.98" stroke-miterlimit="10" stroke-linecap="square"/>
<path d="M31.0769 87.3831H40.6009C31.6869 87.3831 32.3599 68.5034 29.9932 68.5034V86.2953C29.9927 86.438 30.0204 86.5793 30.0747 86.7112C30.129 86.8431 30.2087 86.963 30.3094 87.064C30.41 87.1651 30.5296 87.2453 30.6613 87.3C30.793 87.3548 30.9343 87.383 31.0769 87.3831Z" fill="#C46565"/>
<path d="M29.5032 70.303C29.4877 70.0033 29.4942 69.7035 29.5073 69.4046C29.5203 69.1057 29.5456 68.8044 29.5775 68.5063C29.5938 68.356 29.6102 68.2066 29.6306 68.0563C29.651 67.9061 29.6706 67.7566 29.7 67.6063C29.7579 67.2953 29.8565 66.9933 29.9932 66.708C30.13 66.9932 30.2283 67.2953 30.2855 67.6063C30.3158 67.7566 30.337 67.9061 30.3558 68.0563C30.3746 68.2066 30.3925 68.356 30.4089 68.5063C30.4399 68.806 30.4644 69.1057 30.4783 69.4046C30.4922 69.7035 30.4987 70.0041 30.4832 70.303H29.5032Z" fill="#592D3D"/>
<path d="M51.6737 71.05V71.7033C51.695 74.48 51.695 77.3383 51.6737 80.0946C51.6737 80.329 51.6737 80.5617 51.6737 80.7912V86.2963C51.674 86.4389 51.6463 86.5801 51.5919 86.7119C51.5376 86.8437 51.4579 86.9636 51.3572 87.0645C51.2566 87.1655 51.137 87.2456 51.0054 87.3003C50.8737 87.355 50.7326 87.3832 50.59 87.3833H31.0766C30.7891 87.3831 30.5134 87.2687 30.3102 87.0654C30.107 86.862 29.9929 86.5863 29.9929 86.2988V81.5458C29.9929 81.3408 29.9929 81.1317 29.9929 80.921C29.9724 78.0733 29.9724 75.215 29.9929 72.3215V70.3027" stroke="#592D3D" stroke-width="0.98" stroke-miterlimit="10"/>
<path d="M51.1835 71.0497C51.168 70.7091 51.1754 70.3678 51.1884 70.0264C51.2015 69.685 51.2268 69.3445 51.2579 69.0031C51.2742 68.8324 51.2913 68.6617 51.3109 68.4911C51.3305 68.3204 51.351 68.1505 51.3812 67.9798C51.4374 67.6283 51.5356 67.2847 51.6735 66.9565C51.8114 67.2848 51.9098 67.6283 51.9667 67.9798C51.9961 68.1505 52.0174 68.3212 52.0361 68.4911C52.0549 68.6609 52.0729 68.8324 52.0892 69.0031C52.1203 69.3445 52.1456 69.685 52.1586 70.0264C52.1717 70.3678 52.1791 70.7091 52.1635 71.0497H51.1835Z" fill="#592D3D"/>
<path d="M31.0771 61.9706L50.1243 61.9624" stroke="#592D3D" stroke-width="0.98" stroke-miterlimit="10"/>
<path d="M45.6967 61.9702C45.6969 62.3379 45.6574 62.7045 45.5791 63.0637C45.5411 63.2385 45.4937 63.411 45.437 63.5807C45.2563 64.0874 44.979 64.5542 44.6204 64.9551C44.5059 65.0836 44.3831 65.2045 44.2529 65.3169C42.1973 66.8032 38.9306 66.8849 36.9453 65.2695C36.7314 65.0827 36.5369 64.8747 36.3647 64.6489C36.0071 64.1793 35.7538 63.6389 35.6215 63.0637C35.5828 62.886 35.5536 62.7064 35.5341 62.5255C35.5137 62.3411 35.5036 62.1557 35.5039 61.9702" stroke="#592D3D" stroke-width="0.98" stroke-miterlimit="10"/>
<path d="M41.1117 67.6522C40.6176 67.7516 40.1122 67.7818 39.6098 67.742C39.1029 67.7064 38.603 67.6031 38.1235 67.435C37.6411 67.2696 37.1867 67.0316 36.776 66.7294L36.6241 66.6142C36.5743 66.575 36.5261 66.5325 36.4779 66.4901C36.3809 66.4075 36.29 66.318 36.206 66.2222C36.0383 66.0338 35.891 65.8282 35.7666 65.6089C35.9413 65.7841 36.1251 65.9501 36.317 66.1062C36.3644 66.1454 36.4126 66.1838 36.46 66.2206C36.5073 66.2573 36.5604 66.2875 36.6102 66.3218C36.66 66.3561 36.7099 66.3904 36.7613 66.4223L36.9173 66.517C37.3339 66.7639 37.7744 66.968 38.2321 67.1263C38.6907 67.2866 39.1619 67.4082 39.6409 67.4897C40.128 67.5694 40.6189 67.6236 41.1117 67.6522Z" fill="#592D3D"/>
<path d="M25.1396 72.8877C25.2325 72.9724 25.3331 73.0481 25.4402 73.1139" stroke="#592D3D" stroke-width="0.98" stroke-miterlimit="10" stroke-linecap="square"/>
<path d="M55.1001 72.0864C54.9302 72.1881 54.7431 72.2579 54.5481 72.2922C54.3544 72.3303 54.1574 72.3481 53.9601 72.3453C53.7631 72.3415 53.5668 72.3199 53.3737 72.2808C53.2773 72.2636 53.1834 72.2351 53.0887 72.2097C52.994 72.1844 52.9033 72.1469 52.8135 72.1085C52.9123 72.1085 53.0078 72.1232 53.1042 72.1313L53.3917 72.155C53.4872 72.155 53.582 72.1714 53.6775 72.1722C53.7731 72.173 53.867 72.1812 53.9617 72.182C54.1523 72.1852 54.3428 72.1801 54.5334 72.1665C54.724 72.1533 54.9134 72.1265 55.1001 72.0864Z" fill="#592D3D"/>
<path d="M22.1642 46.4294C22.0825 44.1133 23.6342 42.1533 25.6987 41.2386C25.9155 41.1499 26.1382 41.0762 26.3651 41.0181C27.5097 40.7352 28.7137 40.8131 29.8123 41.2411C30.0629 41.3375 30.3066 41.451 30.5416 41.5808C32.9532 42.8785 34.0361 45.9296 33.1026 48.3967C33.0081 48.6454 32.8939 48.8863 32.7613 49.117C32.4356 49.7955 31.9437 50.3806 31.3313 50.8181C31.127 50.9685 30.9128 51.1049 30.6902 51.2265C28.4542 52.2881 25.4325 51.9615 23.6301 50.2955C23.4496 50.1041 23.2829 49.9003 23.1311 49.6854C22.9578 49.4402 22.8056 49.1806 22.6763 48.9096C22.4025 48.3538 22.2449 47.748 22.2132 47.1292C22.1836 46.8971 22.1673 46.6634 22.1642 46.4294Z" fill="#EDD494"/>
<path d="M22.0314 44.9316C21.9497 42.6155 23.5014 40.6555 25.5659 39.7408C25.7825 39.6521 26.0048 39.5784 26.2315 39.5203C27.3759 39.2359 28.5802 39.3124 29.6795 39.7392C29.9298 39.8356 30.1732 39.9491 30.408 40.0789C32.8196 41.3766 33.9025 44.4285 32.969 46.8948C32.8751 47.1438 32.7609 47.3848 32.6277 47.6151C32.5148 47.8363 32.3862 48.0492 32.243 48.2521C32.1018 48.4532 31.9468 48.6442 31.7791 48.8238C31.5979 49.0032 31.4035 49.1689 31.1977 49.3195C30.9935 49.47 30.7793 49.6064 30.5566 49.7278C28.3206 50.7895 25.2989 50.4628 23.4973 48.7977C23.3168 48.6061 23.15 48.4019 22.9983 48.1868C22.8248 47.9415 22.6723 47.682 22.5426 47.411C22.268 46.8573 22.1094 46.2535 22.0763 45.6363C22.0471 45.4025 22.0321 45.1672 22.0314 44.9316Z" fill="white"/>
<path d="M27.6451 45.2463C28.1972 45.2463 28.6447 44.7987 28.6447 44.2467C28.6447 43.6946 28.1972 43.2471 27.6451 43.2471C27.093 43.2471 26.6455 43.6946 26.6455 44.2467C26.6455 44.7987 27.093 45.2463 27.6451 45.2463Z" fill="#592D3D"/>
<path d="M32.6271 47.612C32.7603 47.3816 32.8745 47.1407 32.9684 46.8917C33.0553 46.6618 33.1254 46.426 33.1783 46.1861C27.5988 45.5531 22.8066 47.8855 22.8066 47.8855L22.8965 48.0285C22.93 48.0791 22.9634 48.1297 22.9986 48.1787C23.1503 48.3939 23.317 48.598 23.4975 48.7896C25.2991 50.4523 28.3208 50.779 30.5568 49.7198C30.7795 49.5984 30.9937 49.462 31.1979 49.3114C31.4037 49.1608 31.5981 48.9951 31.7794 48.8157C31.9471 48.6362 32.1021 48.4451 32.2432 48.2441C32.386 48.0427 32.5142 47.8315 32.6271 47.612Z" fill="#FBE8B3" stroke="#592D3D" stroke-width="0.49" stroke-miterlimit="10"/>
<path d="M22.0314 44.9316C21.9497 42.6155 23.5014 40.6555 25.5659 39.7408C25.7825 39.6521 26.0048 39.5784 26.2315 39.5203C27.3759 39.2359 28.5802 39.3124 29.6795 39.7392C29.9298 39.8356 30.1732 39.9491 30.408 40.0789C32.8196 41.3766 33.9025 44.4285 32.969 46.8948C32.8751 47.1438 32.7609 47.3848 32.6277 47.6151C32.5148 47.8363 32.3862 48.0492 32.243 48.2521C32.1018 48.4532 31.9468 48.6442 31.7791 48.8238C31.5979 49.0032 31.4035 49.1689 31.1977 49.3195C30.9935 49.47 30.7793 49.6064 30.5566 49.7278C28.3206 50.7895 25.2989 50.4628 23.4973 48.7977C23.3168 48.6061 23.15 48.4019 22.9983 48.1868C22.8248 47.9415 22.6723 47.682 22.5426 47.411C22.268 46.8573 22.1094 46.2535 22.0763 45.6363C22.0471 45.4025 22.0321 45.1672 22.0314 44.9316V44.9316Z" stroke="#592D3D" stroke-width="0.98" stroke-miterlimit="10"/>
<path d="M47.6845 45.7721C47.7196 44.5365 48.2292 43.3148 48.9177 42.3968C49.0935 42.1502 49.2879 41.9173 49.4991 41.7002C50.4383 40.7212 51.6962 40.1096 53.0462 39.9756C54.3962 39.8416 55.7497 40.194 56.863 40.9693C57.0486 41.0988 57.2266 41.2386 57.3963 41.3883C59.6013 43.14 59.8561 46.5447 58.6474 49.002C58.53 49.1973 58.3996 49.3845 58.2571 49.5623C58.0681 49.7992 57.8612 50.0212 57.638 50.2262C55.9827 51.6823 53.4069 52.0335 51.3162 51.2405C51.0184 51.1282 50.7302 50.9916 50.4546 50.8322C48.9928 49.9518 47.9744 48.2932 47.7245 46.5667C47.6907 46.3033 47.6773 46.0376 47.6845 45.7721Z" fill="#FBE8B3"/>
<path d="M48.133 44.8354C48.1673 43.6798 48.6573 42.5365 49.3188 41.6782C49.489 41.4468 49.6763 41.2284 49.8791 41.0249C50.7979 40.107 52.0072 39.5372 53.3 39.4129C54.5927 39.2886 55.8885 39.6177 56.9653 40.3438C57.1435 40.4644 57.3147 40.595 57.4782 40.7349C59.6015 42.374 59.8465 45.559 58.6819 47.8579C58.5691 48.0412 58.4436 48.2164 58.3063 48.3822C58.1239 48.604 57.9249 48.8115 57.7109 49.0029C56.1176 50.3651 53.639 50.6942 51.6276 49.9519C51.3406 49.8454 51.0628 49.7156 50.797 49.5639C49.3907 48.7407 48.4107 47.1891 48.1698 45.5745C48.1377 45.3295 48.1254 45.0824 48.133 44.8354Z" fill="white" stroke="#592D3D" stroke-width="0.98" stroke-miterlimit="10"/>
<path d="M53.8355 45.9806C54.3876 45.9806 54.8351 45.5331 54.8351 44.981C54.8351 44.429 54.3876 43.9814 53.8355 43.9814C53.2835 43.9814 52.8359 44.429 52.8359 44.981C52.8359 45.5331 53.2835 45.9806 53.8355 45.9806Z" fill="#592D3D"/>
<path d="M58.7064 50.4789C57.8709 50.8872 57.0469 51.2588 56.1469 51.5152C55.7074 51.6436 55.2577 51.7338 54.8027 51.7847C54.3221 51.8231 53.8396 51.8313 53.358 51.8093C52.8005 51.7964 52.2446 51.744 51.6945 51.6524C51.5368 51.6271 51.3572 51.6941 51.3172 51.8664C51.2837 52.0142 51.3621 52.2159 51.5311 52.2437C52.0624 52.3331 52.5985 52.3903 53.1367 52.4152C53.3972 52.4258 53.6569 52.4201 53.9174 52.4283C54.1642 52.4369 54.4112 52.4311 54.6573 52.4111C55.6373 52.3295 56.5863 52.0616 57.4961 51.6957C58.0122 51.4875 58.5185 51.2547 59.0175 51.0081C59.0872 50.9667 59.1378 50.8995 59.1583 50.8211C59.1788 50.7427 59.1675 50.6593 59.1269 50.5892C59.0848 50.5203 59.0177 50.4703 58.9396 50.4498C58.8616 50.4292 58.7786 50.4396 58.708 50.4789H58.7064Z" fill="#592D3D"/>
<path d="M29.8342 51.2394C28.9056 51.4158 28.0049 51.5498 27.0526 51.5522C26.5875 51.5566 26.1228 51.5194 25.6643 51.4412C24.6645 51.231 23.6907 50.9122 22.7602 50.4906C22.6896 50.4517 22.6067 50.4415 22.5287 50.462C22.4508 50.4825 22.3837 50.5322 22.3413 50.6008C22.2637 50.7331 22.3004 50.9495 22.4507 51.0198C22.9254 51.2413 23.4127 51.4349 23.9101 51.5996C24.1477 51.6813 24.3895 51.7384 24.6271 51.8119C24.8663 51.8881 25.1091 51.9522 25.3548 52.0038C26.3307 52.2015 27.3327 52.1974 28.3201 52.0855C28.882 52.0234 29.4397 51.932 29.9951 51.8266C30.1584 51.7964 30.2499 51.6004 30.209 51.4501C30.186 51.3726 30.1339 51.307 30.0635 51.2671C29.9932 51.2272 29.9101 51.2161 29.8317 51.2362L29.8342 51.2394Z" fill="#592D3D"/>
<path fill-rule="evenodd" clip-rule="evenodd" d="M19.918 39.5386C20.3786 40.8313 21.6248 41.5035 22.6456 41.7387C23.7122 40.0857 27.2721 39.3769 29.9442 40.3144C32.2145 40.7227 29.0614 38.2262 24.0258 39.5794C23.8372 39.6488 22.8367 39.8203 21.5529 38.8289C21.3741 38.6909 21.9351 39.9485 22.5738 40.4622C21.6469 40.4434 21.495 40.4442 19.918 39.5386Z" fill="#592D3D"/>
<path fill-rule="evenodd" clip-rule="evenodd" d="M58.8986 40.4598C59.5372 39.9494 60.0983 38.6917 59.9194 38.8264C58.6356 39.8179 57.6327 39.6431 57.4465 39.577C52.411 38.2213 49.257 40.7203 51.5273 40.312C54.2003 39.3744 57.7601 40.0833 58.8267 41.7362C59.8475 41.501 61.0938 40.8289 61.5544 39.5361C59.9774 40.4426 59.8255 40.4418 58.8986 40.4598Z" fill="#592D3D"/>
<path d="M43.9942 54.3689C42.7243 54.3689 41.9428 53.3269 41.015 53.3269C40.0873 53.3269 38.8982 54.3689 37.6479 54.3689C36.3976 54.3689 35.71 53.4616 35.71 52.2039C35.71 50.8442 37.0779 48.4424 40.8231 48.4424C44.5683 48.4424 46.1633 50.7078 46.1633 52.155C46.16 53.4918 45.265 54.3689 43.9942 54.3689Z" fill="#592D3D" stroke="#592D3D" stroke-width="0.98" stroke-miterlimit="10"/>
<path d="M41.7431 53.5123C41.3707 52.5118 40.0983 51.8585 38.652 51.9867C37.4442 52.0962 36.4527 52.7291 36.0518 53.5466C36.3719 54.0578 36.9101 54.3689 37.6451 54.3689C38.8987 54.3689 40.0869 53.3269 41.0155 53.3269C41.2685 53.3355 41.5168 53.3987 41.7431 53.5123Z" fill="#F28195"/>
<path d="M37.1631 51.3411L37.2341 51.3125L37.2938 51.2921C37.3321 51.279 37.3705 51.2692 37.4089 51.2594C37.4854 51.2397 37.5632 51.2253 37.6417 51.2161C37.7998 51.195 37.96 51.1931 38.1186 51.2104C38.451 51.2422 38.7672 51.3692 39.0292 51.5763C39.2766 51.7719 39.4623 52.0348 39.5641 52.3333C39.6572 52.6091 39.6629 52.9068 39.5804 53.1859C39.3763 52.9752 39.2162 52.7825 39.0553 52.6241C38.9819 52.5485 38.9033 52.4781 38.8201 52.4134C38.7447 52.3565 38.6623 52.3093 38.5751 52.2729C38.411 52.2048 38.2341 52.1728 38.0565 52.179C37.9627 52.1816 37.8692 52.1898 37.7764 52.2035C37.7299 52.2117 37.6817 52.219 37.6359 52.2288L37.5673 52.2443L37.5355 52.2509C37.5281 52.2509 37.5118 52.2574 37.5175 52.2509L37.1631 51.3411Z" fill="#592D3D"/>
<path d="M23.6533 53.263C24.0007 53.6986 24.3633 54.1197 24.7411 54.5264C25.1092 54.9216 25.4903 55.3028 25.8845 55.6697C26.3025 56.0627 26.7406 56.434 27.1968 56.782C27.6509 57.1272 28.1202 57.449 28.6048 57.7473C30.5648 58.8318 32.6808 59.5758 34.8694 60.0585C35.4166 60.1785 35.9687 60.2822 36.5224 60.3664C42.2251 60.8743 48.5421 60.8743 53.5425 57.6999C54.026 57.3667 54.4956 57.0153 54.9513 56.6456C56.222 55.6125 57.2379 54.4692 58.2914 53.0253C51.4371 53.0253 46.9447 45.2891 41.3529 45.2891C35.7612 45.2891 30.047 53.263 23.6533 53.263Z" fill="#EDD494"/>
<path d="M23.8086 54.4223C24.1489 54.8497 24.5049 55.2635 24.8768 55.6637C25.2383 56.0524 25.6137 56.4275 26.003 56.789C26.4139 57.1753 26.8446 57.5401 27.2933 57.8817C27.7392 58.2215 28.2014 58.5351 28.6759 58.8307C30.5992 59.8924 32.6776 60.6274 34.8311 61.101C35.3693 61.2195 35.9116 61.3215 36.4555 61.404C42.0586 61.903 48.2653 61.903 53.1784 58.7842C53.6537 58.4575 54.1148 58.112 54.5618 57.7478C55.811 56.732 56.9446 55.5817 57.942 54.3178C51.2078 54.3178 46.6957 46.5889 41.2003 46.5889C35.705 46.5889 30.0896 54.4223 23.8086 54.4223Z" fill="#85C5E5" stroke="#592D3D" stroke-width="0.98" stroke-miterlimit="10"/>
<path d="M37.0249 61.4534L37.4741 61.4885L37.5819 61.4967C37.7101 61.5057 37.8383 61.5155 37.9673 61.5236L38.0727 61.531L38.4957 61.5579L38.659 61.5677L39.0674 61.589L39.2438 61.5971L39.5174 61.6094L39.7264 61.6175L40.0907 61.629L40.3357 61.6355H40.5325C40.6738 61.6355 40.815 61.6404 40.9563 61.642H41.1123C41.4161 61.642 41.7199 61.6404 42.0237 61.6371H42.1135C42.3128 61.6371 42.5113 61.6282 42.7097 61.6208H42.7326C43.0592 61.6083 43.3859 61.5914 43.7126 61.5702H43.7379C44.6191 61.5106 45.4962 61.4134 46.3618 61.2696C46.5796 61.2337 46.796 61.1948 47.0111 61.1529C44.2924 60.3509 36.4565 57.6175 31.2494 51.5415C28.855 53.0997 26.3862 54.4227 23.8047 54.4227L23.8333 54.4586L24.0325 54.7036L24.0938 54.7771C24.1591 54.8588 24.2261 54.9348 24.2931 55.0123L24.4213 55.161L24.4646 55.21C24.5176 55.2704 24.5715 55.3317 24.6279 55.3913C24.6842 55.4509 24.7349 55.5089 24.7912 55.5677C24.8615 55.6444 24.9325 55.7204 25.0036 55.7955L25.1024 55.9001C25.2077 56.0095 25.3139 56.1189 25.4217 56.2267L25.4429 56.2488C25.5483 56.3533 25.6553 56.457 25.7622 56.5599L25.8913 56.6824C25.9689 56.7551 26.0464 56.8278 26.1248 56.8997L26.2196 56.9862C26.3012 57.063 26.3903 57.1381 26.476 57.2133C26.6018 57.3235 26.7292 57.4305 26.8582 57.5358L26.8925 57.5644C27.0253 57.6733 27.1596 57.7792 27.2951 57.8821C27.741 58.2218 28.2033 58.5354 28.6777 58.8311C29.8794 59.4921 31.1417 60.036 32.4475 60.4554C32.6165 60.511 32.7864 60.5632 32.9571 60.6188C33.5756 60.8039 34.2017 60.9672 34.8354 61.1088C35.1452 61.1774 35.4561 61.2397 35.768 61.2958C35.9983 61.3374 36.2286 61.3774 36.4598 61.4117L36.9261 61.4518L37.0249 61.4534Z" fill="#67B7D6"/>
<path d="M47.3513 51.0099C46.8189 50.8752 46.2897 50.7608 45.7531 50.6653C45.2166 50.5697 44.6841 50.4873 44.15 50.4203C43.6159 50.3533 43.0785 50.3019 42.5428 50.2659C42.0071 50.23 41.4697 50.2137 40.9332 50.2129H40.5305L40.1279 50.2235C39.994 50.2235 39.8601 50.2325 39.7261 50.239C39.5922 50.2455 39.4574 50.2496 39.3243 50.2602C38.7878 50.2913 38.2537 50.3492 37.7188 50.4129C36.642 50.5586 35.5733 50.7581 34.5166 51.0107C35.5034 50.5118 36.5498 50.1407 37.6306 49.9066C37.9017 49.8527 38.1728 49.7915 38.4472 49.7531C38.5844 49.7327 38.7208 49.7073 38.8556 49.6918L39.2688 49.6428C39.8212 49.5862 40.3762 49.559 40.9315 49.5612C41.486 49.5612 42.0414 49.593 42.5926 49.6518C43.1435 49.7115 43.6909 49.8001 44.2325 49.9172C44.7731 50.0344 45.3067 50.1819 45.8307 50.359C46.3552 50.5322 46.864 50.7499 47.3513 51.0099Z" fill="#592D3D"/>
<path d="M29.7939 56.0944C30.6972 56.377 31.611 56.6056 32.5306 56.8041C32.7601 56.8523 32.9904 56.9021 33.2207 56.9478C33.451 56.9936 33.6813 57.0393 33.9132 57.0769C34.3754 57.1585 34.8377 57.2402 35.3015 57.3031C36.2309 57.4313 37.1603 57.5432 38.0945 57.6085C39.0288 57.6738 39.9631 57.7114 40.8982 57.7139H41.5997L42.3004 57.6926C42.5339 57.6926 42.7675 57.6747 43.0011 57.6624C43.2346 57.6502 43.4682 57.6412 43.701 57.6191C44.6344 57.5571 45.5638 57.4427 46.4923 57.3178C48.3528 57.0294 50.1926 56.6202 51.9999 56.0928C50.2632 56.8686 48.4452 57.448 46.5797 57.82C46.1118 57.9017 45.6446 58.003 45.1718 58.065C44.9358 58.0977 44.7006 58.1369 44.4637 58.1622L43.7532 58.239C42.8034 58.3206 41.8504 58.3786 40.8949 58.3705C39.9394 58.3623 38.988 58.3206 38.0366 58.2267C37.0851 58.1328 36.1443 57.9964 35.2109 57.807C34.2777 57.6239 33.3545 57.3933 32.4448 57.1161C31.5371 56.8418 30.651 56.5003 29.7939 56.0944Z" fill="#592D3D"/>
<path d="M47.7648 54.1197C46.5708 54.256 45.3768 54.3238 44.1829 54.3753C42.9889 54.4267 41.7941 54.4455 40.6002 54.4463C39.4062 54.4471 38.2114 54.4243 37.0174 54.3761C35.8235 54.3279 34.6295 54.256 33.4355 54.1197C34.6295 53.9825 35.8235 53.9147 37.0174 53.8624C38.2114 53.8101 39.4062 53.7922 40.6002 53.793C41.7941 53.7938 42.9881 53.8159 44.1829 53.8632C45.3777 53.9106 46.5708 53.9816 47.7648 54.1197Z" fill="#592D3D"/>
<path d="M23.8086 54.4223C24.1489 54.8497 24.5049 55.2635 24.8768 55.6637C25.2383 56.0524 25.6137 56.4275 26.003 56.789C26.4139 57.1753 26.8446 57.5401 27.2933 57.8817C27.7392 58.2215 28.2014 58.5351 28.6759 58.8307C30.5992 59.8924 32.6776 60.6274 34.8311 61.101C35.3693 61.2195 35.9116 61.3215 36.4555 61.404C42.0586 61.903 48.2653 61.903 53.1784 58.7842C53.6537 58.4575 54.1148 58.112 54.5618 57.7478C55.811 56.732 56.9446 55.5817 57.942 54.3178C51.2078 54.3178 46.6957 46.5889 41.2003 46.5889C35.705 46.5889 30.0896 54.4223 23.8086 54.4223Z" stroke="#592D3D" stroke-width="0.98" stroke-miterlimit="10"/>
<path d="M54.9609 53.8182C54.9609 53.8182 58.9332 52.9517 61.8454 46.5874" stroke="#592D3D" stroke-width="0.98" stroke-miterlimit="10"/>
<path d="M26.9497 53.8233C26.9497 53.8233 22.583 52.7265 19.8447 46.6685" stroke="#592D3D" stroke-width="0.98" stroke-miterlimit="10"/>
<path d="M45.6044 33.2286C44.5533 35.1886 40.7044 36.287 40.3916 35.7946C40.0404 35.2449 43.4827 31.2768 41.5268 27.1265" fill="#EDD494"/>
<path d="M40.8459 18.1147C30.1354 18.1147 20.2365 26.8073 18.457 37.3219C18.457 37.3219 34.899 38.5657 40.8876 31.8707C40.5078 33.7204 39.4405 35.1267 39.6209 35.4093C39.8725 35.8046 42.9628 34.9258 43.8064 33.3497L43.5075 32.9021C47.5834 34.3819 55.5525 36.2162 60.9237 30.6465C57.3728 23.2753 49.3768 18.1147 40.8459 18.1147Z" fill="#592D3D"/>
<path d="M27.0745 37.1428C26.5489 36.5751 26.1915 35.8724 26.0422 35.1132C25.893 34.354 25.9577 33.5683 26.2293 32.8439C25.6547 32.806 25.0943 32.6497 24.583 32.3849C24.0718 32.12 23.6209 31.7522 23.2587 31.3047C22.8964 30.8571 22.6307 30.3395 22.4781 29.7843C22.3256 29.2292 22.2895 28.6484 22.3721 28.0786C20.4048 30.83 19.0238 33.9831 18.4521 37.3216C21.3265 37.4886 24.2096 37.4288 27.0745 37.1428Z" fill="#592D3D"/>
<path d="M60.4055 31.8169C54.3083 36.5046 47.2907 34.6834 43.57 33.1309C42.7419 34.596 39.8737 35.4086 39.6377 35.0386C39.4744 34.7871 40.358 33.5972 40.7631 32.0039C34.6969 38.5593 19.542 37.8839 19.542 37.8839" stroke="#592D3D" stroke-width="0.98" stroke-miterlimit="10"/>
<path d="M22.9422 11.4471C22.3693 11.4735 21.8071 11.6122 21.2877 11.8555C20.7966 12.0814 20.3603 12.411 20.0088 12.8216C19.9638 12.8711 19.922 12.9235 19.8838 12.9784C19.8446 13.0323 19.8022 13.0829 19.7646 13.1417C19.6884 13.2528 19.6186 13.3681 19.5555 13.4872C19.4257 13.7263 19.3191 13.9774 19.237 14.2369C19.0801 14.7886 19.0169 15.3628 19.05 15.9355C18.7603 15.3803 18.6506 14.7486 18.7364 14.1282L18.7797 13.8947L18.8034 13.7771C18.8124 13.7387 18.8254 13.7011 18.8369 13.6627C18.8597 13.586 18.8826 13.5092 18.9079 13.4333C18.9332 13.3573 18.97 13.2863 19.001 13.2119C19.0664 13.0652 19.1417 12.923 19.2264 12.7865C19.2681 12.717 19.3195 12.655 19.3652 12.5888C19.4109 12.5224 19.4605 12.4589 19.5139 12.3985C19.9331 11.9053 20.4898 11.5482 21.1129 11.3728C21.7137 11.1912 22.3582 11.2174 22.9422 11.4471Z" fill="white"/>
<path d="M29.309 6.30029C28.8137 6.28347 28.3185 6.33849 27.839 6.46363C27.3892 6.58555 26.9624 6.78032 26.5756 7.04019C26.1892 7.30317 25.8492 7.62856 25.5695 8.00304C25.5009 8.09941 25.4225 8.19169 25.3629 8.29541L25.264 8.44894C25.2289 8.49958 25.2061 8.55511 25.175 8.61228C25.049 8.83305 24.9372 9.06164 24.8402 9.29664C24.8055 9.03271 24.8163 8.76478 24.872 8.50448C24.8859 8.43914 24.8941 8.37136 24.9145 8.30684L24.9749 8.11411C25.0168 7.98467 25.069 7.85877 25.1309 7.73763C25.3777 7.23704 25.7517 6.8101 26.2155 6.49956C26.6748 6.19036 27.2062 6.00498 27.7581 5.96138C28.2976 5.9127 28.839 6.03101 29.309 6.30029Z" fill="white"/>
<path d="M34.8959 40.9255L33.8342 40.567L31.2862 39.7062L28.2155 38.6682L25.5622 37.7699C25.1318 37.6245 24.7039 37.4694 24.271 37.3338L24.2531 37.3273C24.0442 37.2696 23.8209 37.2974 23.6325 37.4044C23.444 37.5113 23.3058 37.6888 23.2482 37.8977C23.1905 38.1066 23.2183 38.3298 23.3253 38.5183C23.4322 38.7068 23.6097 38.845 23.8186 38.9026L24.8803 39.2611L27.4283 40.1219L30.4989 41.1591L33.1523 42.0574C33.5819 42.2028 34.0098 42.3571 34.4434 42.4935L34.4614 42.5C34.5648 42.5286 34.6729 42.5364 34.7794 42.5232C34.8858 42.51 34.9887 42.4759 35.082 42.4229C35.1753 42.37 35.2573 42.2991 35.3232 42.2145C35.3892 42.1298 35.4378 42.033 35.4663 41.9296C35.4948 41.8261 35.5027 41.7181 35.4895 41.6116C35.4763 41.5051 35.4422 41.4023 35.3892 41.309C35.3362 41.2157 35.2654 41.1337 35.1808 41.0678C35.0961 41.0018 34.9993 40.9532 34.8959 40.9247V40.9255Z" fill="#592D3D"/>
<path d="M56.9364 37.0687L55.8976 37.4852L53.4035 38.4905L50.3974 39.7025L47.7995 40.7519C47.3781 40.9218 46.957 41.0916 46.5362 41.2615L46.5182 41.268C46.3132 41.3497 46.1458 41.4452 46.0282 41.6437C45.9187 41.8345 45.8894 42.0609 45.9465 42.2733C46.0033 42.4793 46.138 42.6551 46.3222 42.7633C46.5035 42.8597 46.7518 42.9267 46.951 42.845L47.9906 42.4261L50.4847 41.4207L53.4917 40.2072L56.0895 39.1602C56.5101 38.9903 56.9323 38.8213 57.3529 38.6506L57.3709 38.6433C57.5759 38.5616 57.7433 38.466 57.8609 38.2684C57.9151 38.1758 57.9506 38.0733 57.9652 37.967C57.9798 37.8606 57.9733 37.7524 57.9461 37.6486C57.9188 37.5448 57.8714 37.4473 57.8065 37.3618C57.7416 37.2763 57.6604 37.2045 57.5677 37.1504C57.3864 37.0548 57.1373 36.9871 56.938 37.0687H56.9364Z" fill="#592D3D"/>
<path opacity="0.15" d="M59.2084 51.5985C60.1205 50.0748 60.8419 48.4448 61.3562 46.745C59.9483 49.6638 57.286 52.0909 53.8339 52.0909C51.5255 52.0879 49.3125 51.1694 47.6803 49.5369C46.0481 47.9045 45.13 45.6913 45.1274 43.3828C45.1242 42.2567 45.3415 41.1409 45.7669 40.0982H61.9034C62.2582 40.9671 62.4684 41.8882 62.5257 42.825C62.5853 42.1717 62.6172 41.5029 62.6172 40.8307C62.6168 40.0395 62.5737 39.2489 62.4881 38.4624H46.9584H34.5565H19.1779C19.0923 39.2489 19.0492 40.0395 19.0488 40.8307C19.0488 41.217 19.0603 41.6 19.0799 41.9814C19.1835 41.3356 19.3608 40.7037 19.6082 40.0982H35.7456C36.2822 41.4206 36.4858 42.8547 36.3385 44.2743C36.1911 45.6938 35.6974 47.0555 34.9006 48.2395C34.1038 49.4236 33.0283 50.3938 31.7688 51.065C30.5092 51.7361 29.1041 52.0876 27.6769 52.0885C24.5082 52.0885 22.0566 49.979 20.5327 47.4425C21.0465 48.9507 21.7246 50.3978 22.5548 51.7577C24.1383 52.7435 25.6785 53.7218 27.6769 53.7218C30.4182 53.7186 33.0463 52.6283 34.985 50.6902C36.9236 48.752 38.0145 46.1241 38.0184 43.3828C38.0184 43.235 38.0184 43.088 38.0086 42.9418C39.9179 42.2697 41.726 42.2599 43.5055 42.9124C43.499 43.0684 43.4941 43.2252 43.4941 43.3828C43.4974 46.1245 44.5879 48.7531 46.5266 50.6917C48.4653 52.6304 51.0938 53.721 53.8356 53.7243C55.9417 53.7243 57.5751 52.683 59.2084 51.5985ZM43.713 41.2562C41.802 40.6396 39.8224 40.6503 37.806 41.2881C37.7232 40.8853 37.616 40.488 37.4851 40.0982H44.0266C43.899 40.4776 43.7943 40.8643 43.713 41.2562Z" fill="black"/>
<path opacity="0.95" d="M19.0762 38.3687C19.0762 38.3687 19.1097 41.0008 19.1097 42.4683C19.1097 47.7285 22.4155 51.9931 27.6765 51.9931C29.2848 51.9924 30.8667 51.5846 32.2749 50.8078C33.6831 50.0309 34.8718 48.9103 35.7302 47.5503C36.5886 46.1903 37.0888 44.6351 37.1843 43.0297C37.2797 41.4243 36.9672 39.8208 36.276 38.3687H19.0762Z" fill="#592D3D"/>
<path opacity="0.95" d="M45.2356 38.3687C44.5444 39.8208 44.2319 41.4243 44.3273 43.0297C44.4228 44.6351 44.923 46.1903 45.7814 47.5503C46.6398 48.9103 47.8285 50.0309 49.2367 50.8078C50.6449 51.5846 52.2268 51.9924 53.8351 51.9931C59.0961 51.9931 62.6175 47.7285 62.6175 42.4683C62.6175 40.9983 62.4354 38.3687 62.4354 38.3687H45.2356Z" fill="#592D3D"/>
<path opacity="0.25" d="M26.1329 51.1938L36.1836 41.1423C35.9627 40.6443 35.6889 40.1714 35.3669 39.7319L24.7217 50.3788C25.1617 50.7 25.6348 50.9732 26.1329 51.1938Z" fill="white"/>
<path d="M37.2285 41.4481C39.6393 40.4681 42.0085 40.4338 44.3335 41.4481" stroke="#592D3D" stroke-width="1.63333" stroke-miterlimit="10"/>
<path d="M22.3996 41.2211C22.5678 41.7527 21.9145 42.1611 21.4245 42.2427C20.9345 42.2427 20.6078 41.9161 20.4445 41.5077C20.3628 41.0994 20.4445 40.6911 20.7712 40.4461C21.1795 40.2827 21.7512 40.1194 22.1138 40.5375C22.2045 40.6267 22.2765 40.7331 22.3256 40.8505C22.3747 40.9679 22.3999 41.0939 22.3996 41.2211Z" fill="white"/>
<path d="M23.2748 40.9094C23.225 41.2631 22.735 41.2631 22.6533 40.9364C22.6533 40.6914 22.735 40.6097 22.9669 40.6016C23.0486 40.6016 23.1269 40.634 23.1846 40.6917C23.2424 40.7495 23.2748 40.8278 23.2748 40.9094Z" fill="white"/>
<path opacity="0.25" d="M52.6902 50.5451L61.3697 41.8655C61.3229 41.5564 61.2572 41.2504 61.1729 40.9492L51.7764 50.3482C52.0767 50.4323 52.3819 50.498 52.6902 50.5451Z" fill="white"/>
<path d="M48.2385 41.3012C48.4067 41.8328 47.7534 42.2412 47.2634 42.3228C46.7734 42.3228 46.4467 41.9962 46.2834 41.5878C46.2017 41.1795 46.2834 40.7712 46.61 40.5262C47.0184 40.3628 47.59 40.1995 47.9534 40.6176C48.0441 40.7068 48.116 40.8133 48.1649 40.9306C48.2139 41.048 48.2389 41.174 48.2385 41.3012Z" fill="white"/>
<path d="M49.1107 40.9895C49.0609 41.3431 48.5709 41.3431 48.4893 41.0165C48.4893 40.7715 48.5709 40.6898 48.8037 40.6816C48.8441 40.6816 48.8841 40.6896 48.9214 40.7051C48.9587 40.7206 48.9926 40.7433 49.0211 40.7719C49.0496 40.8005 49.0722 40.8344 49.0876 40.8718C49.103 40.9091 49.1108 40.9491 49.1107 40.9895Z" fill="white"/>
<path d="M19.0766 38.3687C19.0766 38.3687 19.0488 40.9567 19.1101 42.4683C19.3224 47.7244 22.4159 51.9931 27.6769 51.9931C29.2852 51.9924 30.8671 51.5846 32.2753 50.8078C33.6835 50.0309 34.8722 48.9103 35.7306 47.5503C36.589 46.1903 37.0892 44.6351 37.1847 43.0297C37.2801 41.4243 36.9677 39.8208 36.2764 38.3687H19.0766Z" stroke="#592D3D" stroke-width="1.63333" stroke-miterlimit="10"/>
<path d="M45.2356 38.3687C44.5444 39.8208 44.2319 41.4243 44.3273 43.0297C44.4228 44.6351 44.923 46.1903 45.7814 47.5503C46.6398 48.9103 47.8285 50.0309 49.2367 50.8078C50.6449 51.5846 52.2268 51.9924 53.8351 51.9931C59.0961 51.9931 62.6175 47.7848 62.6175 42.5247C62.6175 41.0547 62.4354 38.3687 62.4354 38.3687H45.2356Z" stroke="#592D3D" stroke-width="1.63333" stroke-miterlimit="10"/>
<path d="M34.5566 38.3682H46.9561" stroke="#592D3D" stroke-width="1.63333" stroke-miterlimit="10"/>
</g>
</svg>
