<svg width="108" height="106" viewBox="0 0 108 106" fill="none" xmlns="http://www.w3.org/2000/svg">
<mask id="mask0" mask-type="alpha" maskUnits="userSpaceOnUse" x="0" y="0" width="108" height="104">
<path d="M107.383 0.588867H0.943359V77.0456H20.0174C24.1025 92.2005 37.8407 103.347 54.1632 103.347C70.4857 103.347 84.2239 92.2005 88.3091 77.0456H107.383V0.588867Z" fill="white"/>
</mask>
<g mask="url(#mask0)">
<path d="M87.4355 67.6633C87.4355 86.0396 72.5386 100.936 54.1624 100.936C35.7861 100.936 20.8892 86.0396 20.8892 67.6633C20.8892 49.2871 35.7861 34.3902 54.1624 34.3902C72.5386 34.3902 87.4355 49.2871 87.4355 67.6633Z" fill="#85C5E5" stroke="white" stroke-width="4.2238"/>
<path d="M65.5897 8.32624C66.0672 7.88077 66.6113 7.50969 67.2039 7.22719C68.0628 6.81778 69.002 6.6047 69.9535 6.60342L69.954 6.60342C73.5391 6.60342 76.4306 9.56898 76.431 13.2085C76.431 13.2087 76.431 13.209 76.431 13.2092H76.0338C76.0341 13.3724 76.028 13.5356 76.0154 13.6982L65.5897 8.32624ZM65.5897 8.32624C65.0245 5.27202 62.3963 2.95147 59.2292 2.95147L59.2278 2.95147C58.0629 2.95531 56.9208 3.27438 55.9226 3.87483C55.1184 4.35854 54.4319 5.01031 53.9081 5.7825M65.5897 8.32624L53.9081 5.7825M78.5387 13.1771C77.8165 13.1766 77.1013 13.2993 76.4234 13.5383L78.5384 13.5743M78.5387 13.1771L78.5384 13.5743M78.5387 13.1771C78.5386 13.1771 78.5385 13.1771 78.5384 13.1771V13.5743M78.5387 13.1771C82.1235 13.1773 85.0152 16.1406 85.0154 19.7783M78.5384 13.5743C81.8966 13.5743 84.6182 16.3524 84.6182 19.7787M85.0154 19.7783L84.6182 19.7787M85.0154 19.7783C85.0164 20.755 84.8035 21.7181 84.3942 22.6005M85.0154 19.7783C85.0154 19.7784 85.0154 19.7785 85.0154 19.7787H84.6182M84.6182 19.7787L84.3942 22.6005M84.3942 22.6005C87.0377 23.4366 88.9488 25.9473 88.9494 28.9076C88.9534 29.9974 88.6888 31.0713 88.1789 32.0344C87.7745 32.7983 87.2257 33.4738 86.5651 34.0245C87.5123 34.5385 88.3226 35.2782 88.9217 36.1823C89.645 37.2737 90.0277 38.5555 90.0212 39.8649C90.0278 41.1513 89.6589 42.4117 88.9599 43.4917C88.3538 44.428 87.5224 45.1935 86.5454 45.72C87.4103 46.8747 87.8799 48.2834 87.8754 49.7352C87.8748 53.024 85.5177 55.7587 82.4176 56.2573C82.3493 56.3174 82.2778 56.3476 82.2474 56.3603C82.1232 56.4122 81.9498 56.4489 81.7641 56.4792C81.3761 56.5423 80.7853 56.5986 80.0314 56.6496C78.5181 56.752 76.2982 56.8359 73.6117 56.902C68.2367 57.0341 60.9737 57.0952 53.7137 57.0874C46.4537 57.0796 39.1929 57.003 33.8223 56.8596C31.138 56.788 28.9209 56.6995 27.4109 56.5942C26.6586 56.5418 26.0695 56.4844 25.6833 56.4206C25.4989 56.3902 25.3258 56.3531 25.2021 56.3007C25.1684 56.2864 25.1276 56.2666 25.0871 56.2391C25.068 56.2261 25.043 56.2074 25.017 56.182C22.1119 55.5241 19.9478 52.8822 19.9474 49.7337C19.9422 48.2812 20.4121 46.8719 21.2777 45.7171C20.2943 45.1818 19.4591 44.4057 18.8525 43.4581C18.1538 42.3664 17.7888 41.0945 17.8024 39.7985C17.816 38.5024 18.2075 37.2385 18.929 36.1617C19.5255 35.2715 20.326 34.5412 21.2599 34.0292C20.5979 33.4786 20.0477 32.8029 19.6422 32.0385C19.1316 31.0759 18.8661 30.0023 18.8692 28.9128M84.3942 22.6005L23.1993 19.7829M18.8692 28.9128C18.8694 25.9522 20.7814 23.4413 23.4231 22.6049C23.0134 21.7225 22.8006 20.7592 22.8021 19.7823M18.8692 28.9128C18.8692 28.9126 18.8692 28.9124 18.8692 28.9122L19.2664 28.9133H18.8692C18.8692 28.9131 18.8692 28.913 18.8692 28.9128ZM22.8021 19.7823L23.1993 19.7829M22.8021 19.7823C22.8021 19.7825 22.8021 19.7827 22.8021 19.7829H23.1993M22.8021 19.7823C22.8025 16.1428 25.6949 13.1773 29.2788 13.1771M23.1993 19.7829C23.1993 16.3545 25.922 13.5743 29.2791 13.5743M29.2788 13.1771L29.2791 13.5743M29.2788 13.1771C29.2789 13.1771 29.279 13.1771 29.2791 13.1771V13.5743M29.2788 13.1771L29.2791 13.5743M31.3844 13.2092H31.7815L31.3844 13.2087C31.3844 13.2089 31.3844 13.2091 31.3844 13.2092ZM31.3844 13.2092C31.3844 9.56826 34.2771 6.60342 37.8603 6.60342H37.8609C38.8125 6.60485 39.7518 6.81799 40.6108 7.22736C41.2033 7.50976 41.7474 7.88067 42.225 8.32592C42.7879 5.27162 45.4165 2.95147 48.5862 2.95147H48.5876C49.7526 2.95547 50.8948 3.27459 51.8931 3.87499C52.6974 4.35867 53.3841 5.01038 53.9081 5.7825M31.3844 13.2092L53.9081 5.7825M31.7998 13.6985C31.8116 13.8524 31.8289 14.0059 31.8518 14.1587C31.7124 14.0918 31.5707 14.0305 31.4271 13.9748C31.4107 13.8298 31.399 13.6842 31.392 13.5384C31.5296 13.587 31.6656 13.6404 31.7998 13.6985ZM23.8107 22.4957C23.8693 22.6186 23.9319 22.7398 23.9987 22.859C23.8653 22.8899 23.7335 22.9252 23.6036 22.9648L23.8107 22.4957Z" fill="#592D3D" stroke="white" stroke-width="0.794326"/>
<path d="M50.9695 54.3866C50.1988 55.0903 49.2415 55.557 48.2124 55.7307C47.1832 55.9044 46.1258 55.7777 45.1669 55.3658C44.2079 54.9539 43.3879 54.2743 42.8053 53.4084C42.2226 52.5424 41.902 51.5269 41.8817 50.4834C40.9088 50.795 39.8678 50.8264 38.8779 50.5738C37.888 50.3212 36.9893 49.795 36.2846 49.0553C35.5799 48.3156 35.0978 47.3925 34.8934 46.3915C34.6891 45.3906 34.7708 44.3523 35.1292 43.3956C34.0822 43.3254 33.0778 42.9544 32.2367 42.3271C31.3956 41.6997 30.7536 40.8429 30.3877 39.8594C30.0219 38.876 29.9479 37.8078 30.1746 36.7833C30.4013 35.7588 30.919 34.8216 31.6656 34.0843C30.6994 33.6658 29.8747 32.9769 29.2908 32.1007C28.7069 31.2244 28.3887 30.1981 28.3746 29.1452C28.3604 28.0923 28.6508 27.0578 29.2109 26.1661C29.771 25.2745 30.5769 24.5637 31.5315 24.1194C30.87 23.3191 30.4498 22.3472 30.3199 21.317C30.19 20.2869 30.3558 19.2411 30.798 18.3017C31.2401 17.3622 31.9404 16.568 32.817 16.0115C33.6936 15.4551 34.7104 15.1595 35.7486 15.1593H35.7657C35.5665 14.3516 35.5537 13.5092 35.728 12.6958C35.9024 11.8824 36.2594 11.1193 36.7721 10.4642C37.2848 9.80906 37.9397 9.2791 38.6873 8.91436C39.435 8.54963 40.2558 8.35966 41.0877 8.35883C41.2889 8.35908 41.49 8.37009 41.6901 8.39183C40.6157 7.49244 39.2594 6.99928 37.8583 6.99854C34.5012 6.99854 31.7795 9.77768 31.7795 13.2072C31.7791 13.525 31.8026 13.8423 31.8498 14.1566C31.0471 13.7722 30.1682 13.5732 29.2782 13.5744C25.9211 13.5744 23.1983 16.3546 23.1983 19.783C23.1966 20.86 23.4719 21.9193 23.9977 22.8591C21.2888 23.485 19.2654 25.9576 19.2654 28.9134C19.2624 29.9379 19.512 30.9474 19.9921 31.8524C20.4722 32.7575 21.168 33.5303 22.0179 34.1023C20.8956 34.5777 19.9364 35.3703 19.258 36.3828C18.5795 37.3954 18.2114 38.584 18.1986 39.8027C18.1858 41.0215 18.529 42.2175 19.1861 43.2441C19.8431 44.2706 20.7855 45.0831 21.8976 45.5819C20.8907 46.7297 20.338 48.2061 20.3436 49.733C20.3436 52.7676 22.4777 55.2945 25.2973 55.8352C24.7002 56.3674 38.4756 56.6601 52.6161 56.6867C51.8741 56.0785 51.3061 55.285 50.9695 54.3866Z" fill="#592D3D"/>
<path d="M79.8367 41.6743L76.1113 49.9936L80.3125 56.2321C81.6153 56.1352 82.2933 56.0192 82.155 55.8947C85.1566 55.5147 87.477 52.9026 87.477 49.735C87.4762 49.3891 87.4478 49.0439 87.3918 48.7025C85.263 42.248 79.8367 41.6743 79.8367 41.6743Z" fill="#592D3D"/>
<path d="M89.6241 39.8649C89.6305 38.6336 89.2708 37.4281 88.5906 36.4016C87.9104 35.3752 86.9405 34.5741 85.804 34.1001C86.6534 33.5274 87.3485 32.754 87.8279 31.8486C88.3072 30.9432 88.556 29.9336 88.5522 28.9091C88.5522 25.9532 86.5299 23.4806 83.8189 22.8548C84.3441 21.9147 84.6193 20.8555 84.6182 19.7787C84.6182 16.3524 81.8966 13.5743 78.5384 13.5743C77.6468 13.5736 76.7665 13.7733 75.9625 14.1587C76.0106 13.8445 76.0344 13.527 76.0338 13.2092C76.0338 9.78079 73.3122 7.00058 69.954 7.00058C69.0615 7.00179 68.1805 7.20166 67.3748 7.58571C66.5692 7.96975 65.8591 8.52833 65.2962 9.22091C65.1248 5.94896 62.4724 3.34863 59.2292 3.34863C58.1359 3.35223 57.0641 3.65167 56.1273 4.21517C55.1905 4.77867 54.4237 5.58522 53.9082 6.54928C53.3924 5.58529 52.6254 4.77882 51.6884 4.21534C50.7515 3.65187 49.6796 3.35239 48.5862 3.34863C45.3398 3.34863 42.6874 5.94896 42.5192 9.22091C41.9559 8.52842 41.2457 7.96992 40.4399 7.58589C39.6341 7.20186 38.7529 7.00193 37.8603 7.00058C34.5043 7.00058 31.7815 9.77972 31.7815 13.2092C31.7812 13.527 31.8046 13.8444 31.8518 14.1587C31.0489 13.7733 30.1697 13.5736 29.2791 13.5743C25.922 13.5743 23.1993 16.3545 23.1993 19.7829C23.1976 20.8599 23.4729 21.9192 23.9987 22.859C21.2898 23.4849 19.2664 25.9575 19.2664 28.9133C19.2634 29.9378 19.513 30.9473 19.9931 31.8523C20.4732 32.7574 21.169 33.5302 22.0189 34.1023C20.8966 34.5776 19.9374 35.3702 19.2589 36.3828C18.5805 37.3953 18.2123 38.5839 18.1996 39.8026C18.1868 41.0214 18.53 42.2174 19.1871 43.244C19.8441 44.2705 20.7865 45.083 21.8986 45.5818C20.8916 46.7297 20.339 48.206 20.3446 49.7329C20.3446 52.7675 22.4787 55.2944 25.2983 55.8351C24.0732 56.9325 83.3463 56.9985 82.1563 55.8937C85.1579 55.5137 87.4782 52.9016 87.4782 49.734C87.483 48.207 86.93 46.7309 85.9232 45.5829C87.0296 45.0933 87.9691 44.2916 88.6265 43.2759C89.2839 42.2602 89.6306 41.0748 89.6241 39.8649V39.8649Z" stroke="#592D3D" stroke-width="1.27728" stroke-miterlimit="10"/>
<path d="M65.8721 81.3467C75.5325 81.3467 73.5357 93.5064 73.6283 107.028H65.8721V81.3467Z" fill="#FDD2B2"/>
<path d="M68.2925 89.133L65.8721 93.1915L67.0834 107.029H70.4639C70.5458 87.8408 68.2925 89.133 68.2925 89.133Z" fill="#F3AB98"/>
<path d="M25.7705 53.8083C25.7705 38.1276 38.4826 25.4155 54.1633 25.4155C69.844 25.4155 82.5561 38.1276 82.5561 53.8083C82.5602 58.0334 81.6193 62.2058 79.8025 66.0203C77.9857 69.8348 75.3389 73.1947 72.0558 75.8541C71.4733 76.3281 70.8722 76.7784 70.2528 77.2048C63.8493 81.2698 55.7599 81.2698 48.4571 80.6194C47.7482 80.513 47.0414 80.3789 46.34 80.2245C43.5375 79.6072 40.8243 78.6545 38.3176 77.2655C37.6982 76.8837 37.0975 76.4715 36.5156 76.0287C35.9308 75.5834 35.3694 75.108 34.8339 74.6045C34.3272 74.134 33.838 73.6451 33.3661 73.1378C28.4759 67.8901 25.7611 60.9813 25.7705 53.8083Z" fill="#FDD2B2"/>
<path d="M29.6398 68.1224C29.7143 68.2501 29.7877 68.3779 29.8644 68.5035C29.9101 68.5801 29.958 68.6546 30.0059 68.7312C30.0762 68.8451 30.1464 68.959 30.2188 69.0708C30.2699 69.1517 30.3253 69.2304 30.3742 69.3092C30.4445 69.4156 30.5147 69.5221 30.5871 69.6285C30.6414 69.7094 30.6935 69.7903 30.7531 69.8712C30.8234 69.9776 30.8936 70.0756 30.966 70.1777C31.0235 70.2597 31.0831 70.3406 31.1416 70.4226C31.2002 70.5045 31.2843 70.6195 31.3545 70.7174C31.4248 70.8153 31.4769 70.8803 31.5387 70.9612C31.6004 71.042 31.6845 71.1527 31.759 71.2485C31.8335 71.3443 31.8857 71.4093 31.9495 71.4891C32.0134 71.5689 32.0996 71.6764 32.1752 71.769C32.2507 71.8616 32.3061 71.9276 32.3721 72.0064C32.4381 72.0851 32.5254 72.1895 32.6031 72.2799C32.6808 72.3704 32.7382 72.4364 32.8064 72.5141L33.0427 72.7802C33.1118 72.8579 33.1821 72.9335 33.2555 73.0101C33.3471 73.1102 33.4397 73.2092 33.5323 73.3071L33.6611 73.4433C33.7984 73.5859 33.9367 73.7286 34.0772 73.8691L34.1049 73.8978C34.2422 74.0341 34.3817 74.1692 34.5211 74.3034L34.6893 74.463C34.7904 74.5577 34.8915 74.6525 34.9937 74.7461L35.1172 74.859C35.2236 74.959 35.3396 75.0569 35.4514 75.1549C35.7991 75.4579 36.1539 75.7485 36.5158 76.0266C37.0969 76.4694 37.6976 76.8817 38.3178 77.2634C40.8245 78.6472 43.5334 79.6051 46.3402 80.2225C47.0416 80.3768 47.7484 80.5099 48.4573 80.6174C52.9384 81.0165 57.7175 81.1687 62.2178 80.2895C55.0618 78.1831 20.6967 65.8084 42.3263 27.9946C42.0368 28.1277 41.7516 28.265 41.4684 28.4076L41.4056 28.4385C41.2758 28.5034 41.1459 28.5705 41.0171 28.6386L40.9107 28.695C40.5105 28.9079 40.1145 29.1282 39.726 29.3581L39.6302 29.4145C39.5067 29.488 39.3843 29.5625 39.2619 29.6381L39.1693 29.6955C38.789 29.9332 38.4147 30.1791 38.0464 30.4332L37.9314 30.513C37.8154 30.5939 37.7015 30.6748 37.5876 30.7567L37.5174 30.8068C37.2853 30.9764 37.0561 31.1481 36.8298 31.3219L36.7638 31.373C36.6573 31.456 36.5509 31.5412 36.4445 31.6274L36.3199 31.7275C36.2135 31.8137 36.1071 31.8999 36.0006 31.9882C35.776 32.1745 35.5546 32.3661 35.3364 32.5598L35.2151 32.6663L34.9288 32.927L34.7904 33.0526C34.4867 33.3365 34.1897 33.6264 33.8995 33.9223L33.7526 34.0723C33.6685 34.1596 33.5844 34.2469 33.5014 34.3352C33.4525 34.3874 33.4035 34.4417 33.3556 34.4928C33.2094 34.6489 33.0654 34.8071 32.9234 34.9675C32.8755 35.0218 32.8266 35.0739 32.7787 35.1314C32.7031 35.2176 32.6286 35.3049 32.5541 35.3922L32.3934 35.5827C32.321 35.6689 32.2486 35.7551 32.1805 35.8424C32.123 35.9127 32.0655 35.984 32.0091 36.0553C31.8952 36.1969 31.7835 36.3384 31.6728 36.4811C31.6153 36.5556 31.5578 36.6301 31.5014 36.7057C31.445 36.7812 31.3737 36.8749 31.3109 36.9611C31.2481 37.0473 31.197 37.1154 31.1416 37.1931C31.0863 37.2708 31.0214 37.3581 30.9628 37.4412C30.8621 37.5831 30.7627 37.7268 30.6648 37.8722C30.6116 37.9499 30.5584 38.0298 30.5062 38.1085C30.454 38.1873 30.3891 38.2852 30.3316 38.3746L30.173 38.6205L29.9942 38.909C29.9485 38.9824 29.9027 39.0558 29.858 39.1293C29.7632 39.2847 29.6717 39.4412 29.5802 39.5976L29.4503 39.8275C29.3928 39.9286 29.3354 40.0308 29.2789 40.133C29.2364 40.2107 29.1938 40.2884 29.1523 40.3661C29.0842 40.4928 29.0171 40.6205 28.95 40.7482L28.8223 40.9973C28.7542 41.1335 28.6861 41.2687 28.619 41.406C28.5839 41.4795 28.5477 41.554 28.5126 41.6285C28.4572 41.7445 28.4061 41.8616 28.3497 41.9787C28.3167 42.0489 28.2848 42.1192 28.2529 42.1916C28.1741 42.3668 28.0971 42.5442 28.0219 42.7238C27.9985 42.7791 27.9761 42.8355 27.9527 42.8909C27.8963 43.026 27.8409 43.1612 27.7867 43.2975C27.7579 43.3688 27.7302 43.4401 27.7026 43.5103C27.6494 43.6445 27.5961 43.7796 27.5482 43.9148C27.5259 43.9734 27.5035 44.0319 27.4822 44.0904C27.4155 44.2771 27.3499 44.4637 27.2853 44.6503L27.2257 44.8313C27.1789 44.9732 27.1331 45.1151 27.0884 45.257L27.0246 45.4603C26.9745 45.6242 26.9256 45.7882 26.8787 45.9531C26.8681 45.9883 26.8574 46.0234 26.8479 46.0596C26.7925 46.2554 26.7393 46.452 26.6882 46.6493C26.6712 46.7121 26.6563 46.7759 26.6403 46.8387C26.6031 46.9867 26.5669 47.1346 26.5339 47.2836L26.4892 47.4699C26.4434 47.6721 26.3987 47.8744 26.3572 48.0777L26.3412 48.1596C26.305 48.3406 26.2695 48.5215 26.2348 48.7025C26.2231 48.7674 26.2124 48.8313 26.2007 48.8962C26.173 49.0548 26.1464 49.2155 26.1219 49.3752C26.1134 49.4295 26.1039 49.4816 26.0964 49.537C26.0645 49.7445 26.0357 49.9531 26.0081 50.1628L25.9921 50.3012C25.9708 50.4704 25.9516 50.6407 25.9335 50.811C25.9272 50.8749 25.9197 50.9388 25.9133 51.0037C25.8963 51.1825 25.8803 51.3624 25.8654 51.5423C25.8654 51.5795 25.859 51.6157 25.8569 51.6487C25.8413 51.8616 25.8275 52.0763 25.8154 52.2927C25.8154 52.3491 25.8154 52.4066 25.8079 52.463C25.8009 52.6305 25.7945 52.7976 25.7888 52.9643C25.7888 53.0271 25.7888 53.0899 25.7888 53.1527C25.7888 53.3709 25.7803 53.5902 25.7803 53.8095C25.7803 53.8095 25.7803 53.8169 25.7803 53.8201C25.7803 54.0564 25.7803 54.2906 25.7888 54.5247C25.7888 54.6056 25.7952 54.6865 25.7973 54.7674C25.8026 54.9239 25.8079 55.0803 25.8154 55.2368C25.8154 55.3315 25.8271 55.4252 25.8324 55.5199C25.8409 55.6615 25.8484 55.8031 25.859 55.9457C25.8665 56.0521 25.8761 56.1469 25.8846 56.2469C25.8963 56.381 25.9069 56.5152 25.9208 56.6482C25.9304 56.7546 25.9431 56.8547 25.9538 56.9579C25.9687 57.0867 25.9825 57.2166 25.9985 57.3454C26.0112 57.4518 26.0261 57.5583 26.04 57.6594C26.057 57.785 26.074 57.9116 26.0932 58.0372C26.1092 58.1437 26.1262 58.2501 26.1432 58.3566C26.1624 58.48 26.1826 58.6046 26.2039 58.728C26.2231 58.8345 26.2422 58.9409 26.2624 59.0473C26.2848 59.1698 26.3082 59.2922 26.3316 59.4135C26.355 59.5348 26.3753 59.6264 26.3976 59.7328C26.4232 59.8542 26.4487 59.9744 26.4764 60.0947C26.5041 60.215 26.5232 60.3076 26.5488 60.4066C26.5764 60.5269 26.6062 60.6461 26.636 60.7642C26.6659 60.8824 26.6882 60.9718 26.7148 61.074C26.7467 61.1932 26.7787 61.3113 26.8117 61.4295C26.8393 61.5359 26.8681 61.6338 26.8979 61.735C26.932 61.8531 26.9671 61.9702 27.0043 62.0873C27.0416 62.2044 27.0661 62.2884 27.098 62.3896C27.1299 62.4907 27.1725 62.6227 27.2108 62.7387C27.2491 62.8547 27.2768 62.9377 27.3109 63.0367C27.3513 63.1527 27.3918 63.2687 27.4333 63.3848C27.4684 63.4816 27.5025 63.5796 27.5397 63.6764L27.6717 64.0245C27.709 64.1192 27.7451 64.215 27.7781 64.3097C27.825 64.4257 27.8729 64.5428 27.9208 64.6589C27.9591 64.7504 27.9963 64.843 28.0357 64.9345C28.0858 65.0537 28.1422 65.1708 28.1901 65.289C28.2295 65.3763 28.2678 65.4646 28.3072 65.5519C28.3625 65.6754 28.421 65.7967 28.4775 65.918L28.5924 66.1628C28.6573 66.297 28.7244 66.4289 28.7915 66.562C28.8255 66.6291 28.8574 66.6972 28.8926 66.7642C29.0969 67.1623 29.3098 67.5551 29.5312 67.9425C29.5621 67.9925 29.6015 68.0575 29.6398 68.1224Z" fill="#F3AB98"/>
<path d="M25.7705 53.8083C25.7705 38.1276 38.4826 25.4155 54.1633 25.4155C69.844 25.4155 82.5561 38.1276 82.5561 53.8083C82.5602 58.0334 81.6193 62.2058 79.8025 66.0203C77.9857 69.8348 75.3389 73.1947 72.0558 75.8541C71.4733 76.3281 70.8722 76.7784 70.2528 77.2048C63.8493 81.2698 55.7599 81.2698 48.4571 80.6194C47.7482 80.513 47.0414 80.3789 46.34 80.2245C43.5375 79.6072 40.8243 78.6545 38.3176 77.2655C37.6982 76.8837 37.0975 76.4715 36.5156 76.0287C35.9308 75.5834 35.3694 75.108 34.8339 74.6045C34.3272 74.134 33.838 73.6451 33.3661 73.1378C28.4759 67.8901 25.7611 60.9813 25.7705 53.8083V53.8083Z" stroke="#592D3D" stroke-width="1.27728" stroke-miterlimit="10"/>
<path d="M42.0421 81.3467C32.3806 81.3467 34.3785 93.5064 34.2859 107.028H42.0421V81.3467Z" fill="#FDD2B2"/>
<path d="M40.0308 89.133L42.4544 93.1915L41.242 107.029H37.8647C37.7785 87.8408 40.0308 89.133 40.0308 89.133Z" fill="#F3AB98"/>
<path d="M66.8793 114.479H41.4466C41.0719 114.479 40.7127 114.33 40.4478 114.065C40.183 113.8 40.0342 113.44 40.0342 113.066V82.7602C40.0342 82.3855 40.183 82.0261 40.4478 81.7611C40.7127 81.496 41.0719 81.347 41.4466 81.3467H66.2716C67.6649 81.3467 68.2939 82.162 68.2939 83.4627V113.061C68.2945 113.248 68.2583 113.432 68.1874 113.604C68.1166 113.776 68.0125 113.932 67.881 114.064C67.7496 114.196 67.5935 114.3 67.4216 114.372C67.2497 114.443 67.0654 114.479 66.8793 114.479Z" fill="#FDD2B2"/>
<path d="M67.899 82.1866C67.7929 82.0562 67.7032 81.9132 67.6319 81.7609C67.3763 81.5606 67.0722 81.4317 66.7505 81.3873C66.5921 81.3627 66.4319 81.3506 66.2716 81.3511H41.4466C41.0728 81.3514 40.7144 81.4997 40.4497 81.7636C40.185 82.0275 40.0356 82.3855 40.0342 82.7593C43.1209 83.8684 48.8995 84.4879 54.163 84.4879C60.8751 84.4879 65.2732 83.4927 67.899 82.1866Z" fill="#F3AB98"/>
<path d="M65.8721 81.3467C75.5325 81.3467 73.5357 93.5064 73.6283 107.028H68.2925" stroke="#592D3D" stroke-width="1.27728" stroke-miterlimit="10" stroke-linecap="square"/>
<path d="M42.0421 81.3467C32.3806 81.3467 34.3785 93.5064 34.2859 107.028H39.6153" stroke="#592D3D" stroke-width="1.27728" stroke-miterlimit="10" stroke-linecap="square"/>
<path d="M41.4463 81.3573L66.2712 81.3467" stroke="#592D3D" stroke-width="1.27728" stroke-miterlimit="10"/>
<path d="M41.4466 114.479H53.8596C42.2417 114.479 43.1188 89.8726 40.0342 89.8726V113.062C40.0336 113.247 40.0697 113.432 40.1405 113.604C40.2112 113.775 40.3151 113.932 40.4463 114.063C40.5775 114.195 40.7334 114.3 40.9051 114.371C41.0767 114.442 41.2607 114.479 41.4466 114.479Z" fill="#F3AB98"/>
<path d="M39.3956 92.2172C39.3753 91.8266 39.3839 91.4359 39.4009 91.0464C39.4179 90.6568 39.4509 90.264 39.4924 89.8755C39.5137 89.6797 39.535 89.4849 39.5616 89.2891C39.5882 89.0932 39.6138 88.8984 39.6521 88.7026C39.7276 88.2972 39.8561 87.9036 40.0342 87.5317C40.2124 87.9036 40.3408 88.2972 40.4163 88.7026C40.4546 88.8984 40.4823 89.0932 40.5068 89.2891C40.5313 89.4849 40.5547 89.6797 40.576 89.8755C40.6164 90.2662 40.6484 90.6568 40.6665 91.0464C40.6846 91.4359 40.6931 91.8276 40.6728 92.2172H39.3956Z" fill="#592D3D"/>
<path d="M68.2922 93.1907V94.0422C68.3199 97.6612 68.3199 101.387 68.2922 104.979C68.2922 105.284 68.2922 105.588 68.2922 105.887V113.062C68.2926 113.248 68.2564 113.432 68.1856 113.604C68.1149 113.775 68.0109 113.932 67.8797 114.063C67.7485 114.195 67.5927 114.299 67.4211 114.37C67.2495 114.442 67.0656 114.479 66.8798 114.479H41.4471C41.0724 114.478 40.7131 114.329 40.4482 114.064C40.1834 113.799 40.0346 113.44 40.0346 113.065V106.87C40.0346 106.603 40.0346 106.331 40.0346 106.056C40.008 102.345 40.008 98.6191 40.0346 94.848V92.2168" stroke="#592D3D" stroke-width="1.27728" stroke-miterlimit="10"/>
<path d="M67.653 93.1907C67.6328 92.7469 67.6424 92.3019 67.6594 91.857C67.6764 91.4121 67.7094 90.9683 67.7499 90.5233C67.7711 90.3009 67.7935 90.0784 67.819 89.856C67.8446 89.6335 67.8712 89.4121 67.9095 89.1896C67.9837 88.7315 68.1119 88.2838 68.2916 87.856C68.4713 88.2838 68.5996 88.7315 68.6738 89.1896C68.7121 89.4121 68.7397 89.6346 68.7642 89.856C68.7887 90.0774 68.8121 90.3009 68.8334 90.5233C68.8739 90.9683 68.9069 91.4121 68.9239 91.857C68.9409 92.3019 68.9505 92.7469 68.9303 93.1907H67.653Z" fill="#592D3D"/>
<path d="M61.6865 90.2586C61.7099 89.2527 62.9872 88.827 63.6259 89.4656C63.7296 89.5715 63.8115 89.6969 63.8669 89.8345C63.9222 89.9721 63.9499 90.1193 63.9484 90.2676C63.9469 90.4159 63.9161 90.5624 63.858 90.6989C63.7998 90.8353 63.7153 90.9589 63.6094 91.0627C63.5034 91.1665 63.3781 91.2484 63.2404 91.3037C63.1028 91.3591 62.9557 91.3868 62.8074 91.3853C62.6591 91.3837 62.5125 91.353 62.3761 91.2948C62.2397 91.2366 62.116 91.1522 62.0122 91.0462C61.9086 90.943 61.8264 90.8202 61.7705 90.685C61.7146 90.5498 61.6861 90.4049 61.6865 90.2586Z" fill="#592D3D"/>
<path d="M44.3822 90.2267C44.3599 89.3593 45.3178 88.9335 45.9565 89.2528C46.808 89.5721 46.808 90.743 45.9565 91.2752C45.5307 91.488 45.1049 91.2752 44.7058 91.0112C44.6029 90.9082 44.5213 90.7859 44.4658 90.6512C44.4102 90.5166 44.3819 90.3724 44.3822 90.2267Z" fill="#592D3D"/>
<path d="M54.1623 89.1221C54.2385 89.3227 54.292 89.5312 54.322 89.7437C54.3537 89.9494 54.3711 90.1571 54.3741 90.3653L54.4061 91.6096C54.4157 92.0236 54.4284 92.4387 54.4327 92.8538L54.4508 94.096C54.4753 95.7533 54.4742 97.4127 54.4806 99.071C54.487 100.729 54.4997 102.388 54.4806 104.046C54.471 104.875 54.4486 105.704 54.4242 106.533C54.4135 106.948 54.3933 107.363 54.3529 107.777C54.3167 108.195 54.2537 108.611 54.1645 109.021C54.0752 108.611 54.0123 108.195 53.9761 107.777C53.9356 107.363 53.9154 106.948 53.9047 106.533C53.8803 105.704 53.8579 104.875 53.8483 104.046C53.827 102.388 53.8483 100.729 53.8483 99.071C53.8483 97.4127 53.8483 95.7554 53.8675 94.0971L53.8856 92.8517L53.9207 91.6085L53.9558 90.3653C53.9598 90.1571 53.9776 89.9495 54.0091 89.7437C54.0369 89.5314 54.0884 89.323 54.1623 89.1221Z" fill="#F3AB98"/>
<path d="M46.2031 94.5748C46.361 94.4998 46.5282 94.4461 46.7002 94.4151C46.8646 94.3843 47.0311 94.3665 47.1983 94.3619L48.1935 94.3268L50.184 94.2832C51.5102 94.2629 52.8354 94.2576 54.1627 94.2544C55.49 94.2512 56.8162 94.2374 58.1425 94.2544C58.8056 94.264 59.4687 94.2864 60.1329 94.3108C60.4639 94.3225 60.796 94.3428 61.127 94.3822C61.4632 94.4194 61.7959 94.4828 62.1223 94.5716C61.7961 94.661 61.4633 94.724 61.127 94.76C60.796 94.8005 60.4639 94.8207 60.1329 94.8313C59.4687 94.8558 58.8056 94.8771 58.1425 94.8867C56.8162 94.9069 55.49 94.8867 54.1627 94.8867C52.8354 94.8867 51.5091 94.8867 50.1818 94.8707C49.5187 94.8643 48.8556 94.843 48.1935 94.8175L47.1983 94.7813C47.0315 94.7768 46.8653 94.759 46.7013 94.7281C46.5291 94.6993 46.3616 94.6478 46.2031 94.5748Z" fill="#F3AB98"/>
<path d="M48.0332 97.9156C48.1589 97.8556 48.2932 97.8157 48.4313 97.7974C48.5589 97.7794 48.6879 97.7741 48.8166 97.7815C49.071 97.7921 49.3254 97.7985 49.5798 97.8038C50.0886 97.8155 50.5973 97.8198 51.1061 97.8219C52.1311 97.8219 53.1381 97.8304 54.1673 97.7995C55.1966 97.7687 56.2174 97.7538 57.2413 97.758C57.7533 97.758 58.2653 97.7719 58.7762 97.7836C59.0334 97.787 59.2902 97.8037 59.5457 97.8336C59.8083 97.8626 60.0675 97.9171 60.3195 97.9965C60.0734 98.0931 59.818 98.1645 59.5574 98.2093C59.3037 98.255 59.0474 98.2856 58.79 98.3009C58.277 98.3381 57.7639 98.3701 57.2519 98.3882C56.2259 98.4265 55.2009 98.4222 54.178 98.4361C53.666 98.4361 53.1551 98.4595 52.6367 98.4467C52.1184 98.4339 51.6053 98.4329 51.0912 98.4137C50.5771 98.3945 50.0609 98.352 49.5478 98.2987C49.2903 98.27 49.0348 98.2381 48.7783 98.203C48.6487 98.1871 48.5213 98.1571 48.3983 98.1135C48.2662 98.0688 48.1427 98.0019 48.0332 97.9156Z" fill="#F3AB98"/>
<path d="M47.6631 101.692C47.7894 101.618 47.9266 101.564 48.0697 101.533C48.2031 101.502 48.3393 101.484 48.4763 101.481L49.2884 101.447C49.8302 101.427 50.373 101.411 50.9148 101.403C51.9984 101.387 53.0819 101.387 54.1634 101.387C55.2448 101.387 56.3305 101.369 57.414 101.387C57.9558 101.397 58.4976 101.419 59.0394 101.443C59.3111 101.453 59.5822 101.476 59.8515 101.514C60.1288 101.552 60.4018 101.616 60.6668 101.706C60.4027 101.795 60.1308 101.858 59.8547 101.895C59.5851 101.933 59.3137 101.957 59.0415 101.966C58.4997 101.99 57.9579 102.013 57.4162 102.022C56.3326 102.044 55.248 102.029 54.1644 102.022C53.0809 102.016 51.9973 102.016 50.9138 101.996C50.372 101.985 49.8291 101.966 49.2874 101.944L48.4752 101.904C48.3383 101.9 48.202 101.882 48.0686 101.851C47.9258 101.82 47.7889 101.767 47.6631 101.692Z" fill="#F3AB98"/>
<path d="M59.2561 90.8471L54.7718 87.1888L62.7154 81.3569H45.6105L53.5541 87.1888L49.0698 90.8471L45.0645 84.8333V93.1866H63.6126V84.3053L59.2561 90.8471Z" fill="#F3AB98"/>
<path d="M66.5803 81.2866L62.0321 81.2973C62.0085 81.778 61.9577 82.2571 61.8799 82.7321C61.8298 82.9601 61.768 83.1853 61.6947 83.4069C61.4456 84.0977 59.8575 84.6842 59.4073 85.1876C59.2581 85.3551 59.0981 85.5126 58.9283 85.6592C56.2492 87.5964 51.9916 87.7028 49.4041 85.5974C49.125 85.3538 48.8715 85.0824 48.6473 84.7874C48.197 84.1956 46.9017 83.5538 46.7207 82.7715C46.6694 82.54 46.631 82.3058 46.6058 82.07C46.5801 81.8296 46.5673 81.588 46.5675 81.3462L41.7553 81.2866C41.3806 81.2866 41.0212 81.4354 40.7562 81.7003C40.4911 81.9651 40.3421 82.3244 40.3418 82.6991V113.001C40.3421 113.376 40.4911 113.735 40.7562 114C41.0212 114.265 41.3806 114.414 41.7553 114.414H67.187C67.5616 114.414 67.9208 114.265 68.1857 114C68.4506 113.735 68.5994 113.376 68.5994 113.001V83.3984C68.5994 82.102 67.9735 81.2866 66.5803 81.2866Z" fill="white"/>
<path d="M66.1738 81.2866C72.937 81.2866 75.5959 85.905 74.5719 110.238C72.5772 110.951 68.6209 110.727 68.6209 110.727L66.1738 81.2866Z" fill="white"/>
<path d="M48.9541 91.6376L54.1111 89.0735L59.282 91.6376L55.3373 87.0586L50.6657 87.1469L48.9541 91.6376Z" fill="#E2E2E2"/>
<path d="M68.5997 89.0724C68.5997 89.0724 66.1739 98.0709 66.5443 113.979L70.0792 110.68L70.4603 96.0357C69.8621 88.3476 68.5997 89.0724 68.5997 89.0724Z" fill="#E2E2E2"/>
<path d="M42.3484 81.2866C35.7725 81.2866 32.888 87.2951 33.7534 107.415C36.1398 108.47 39.7342 108.009 39.7342 108.009L42.3484 81.2866Z" fill="white"/>
<path d="M33.6143 102.503C33.6327 103.955 33.6756 105.498 33.743 107.131C35.3684 107.209 38.3934 107.225 39.8218 107.131L40.2667 102.575C39.1204 102.441 35.3939 102.397 33.6143 102.503Z" fill="#E2E2E2"/>
<path d="M40.3388 89.0732L40.2855 107.987L38.8646 108.082C38.5485 92.2175 40.3388 89.0732 40.3388 89.0732Z" fill="#E2E2E2"/>
<path d="M66.1738 81.2866C73.35 81.2866 74.524 87.2771 74.5719 95.5261V110.238C74.5719 110.238 69.2499 110.827 68.6209 110.727L68.6102 95.6006" stroke="#592D3D" stroke-width="1.27728" stroke-miterlimit="10" stroke-linecap="square"/>
<path d="M42.3486 81.2866C39.6099 81.2866 37.7163 82.1509 36.4188 83.6751C34.3486 86.1094 33.7972 90.2254 33.7578 95.1994V108.373C35.0415 108.727 40.289 107.986 40.289 107.986L40.3411 95.3622" stroke="#592D3D" stroke-width="1.27728" stroke-miterlimit="10" stroke-linecap="square"/>
<path d="M40.6025 108.225C40.4078 108.503 32.7505 108.429 32.6547 108.225C32.5589 108.021 32.4216 104.234 32.6547 103.861C32.8463 103.555 40.3301 103.619 40.6025 103.861C40.875 104.103 40.7973 107.947 40.6025 108.225Z" fill="white" stroke="#592D3D" stroke-width="1.27728" stroke-miterlimit="10" stroke-linecap="square"/>
<path d="M41.7557 114.415H54.1633C42.5412 114.415 43.4225 89.8125 40.3379 89.8125V113.003C40.338 113.188 40.3748 113.372 40.4462 113.544C40.5176 113.716 40.6221 113.872 40.7538 114.003C40.8855 114.134 41.0418 114.238 41.2137 114.309C41.3856 114.379 41.5698 114.416 41.7557 114.415Z" fill="#E2E2E2"/>
<path d="M39.7031 92.158C39.6829 91.7674 39.6914 91.3757 39.7095 90.9872C39.7276 90.5987 39.7595 90.2059 39.8 89.8164C39.8213 89.6216 39.8436 89.4257 39.8692 89.2299C39.8947 89.034 39.9213 88.8393 39.9596 88.6445C40.035 88.2391 40.1634 87.8454 40.3417 87.4736C40.52 87.8454 40.6485 88.2391 40.7239 88.6445C40.7622 88.8393 40.7899 89.0351 40.8143 89.2299C40.8388 89.4247 40.8622 89.6216 40.8835 89.8164C40.9247 90.2081 40.9552 90.5983 40.9751 90.9872C40.9921 91.3778 41.0006 91.7695 40.9751 92.158H39.7031Z" fill="#592D3D"/>
<path d="M68.5997 93.1269V93.9784C68.6273 97.5974 68.6273 101.323 68.5997 104.916C68.5997 105.222 68.5997 105.525 68.5997 105.824V112.999C68.5997 113.374 68.4508 113.733 68.186 113.998C67.9211 114.263 67.5618 114.412 67.1872 114.412H41.7556C41.3809 114.412 41.0215 114.263 40.7564 113.998C40.4914 113.733 40.3423 113.374 40.342 112.999V105.995C40.3144 102.285 40.3144 98.5596 40.342 94.7874V92.1572" stroke="#592D3D" stroke-width="1.27728" stroke-miterlimit="10"/>
<path d="M75.176 103.86C75.4123 104.101 75.3452 107.947 75.176 108.224C75.0067 108.502 68.3638 108.429 68.2819 108.224C68.1999 108.02 68.0796 104.233 68.2819 103.86C68.3106 103.807 68.5246 103.766 68.862 103.735" fill="white"/>
<path d="M75.176 103.86C75.4123 104.101 75.3452 107.947 75.176 108.224C75.0067 108.502 68.3638 108.429 68.2819 108.224C68.1999 108.02 68.0796 104.233 68.2819 103.86C68.3106 103.807 68.5246 103.766 68.862 103.735" stroke="#592D3D" stroke-width="1.27728" stroke-miterlimit="10" stroke-linecap="square"/>
<path d="M73.207 103.653C73.269 103.573 73.3359 103.496 73.4071 103.424C73.4652 103.365 73.5286 103.313 73.5966 103.267C73.6578 103.226 73.7223 103.191 73.7893 103.161C73.8542 103.13 73.9191 103.103 73.984 103.077C74.1148 103.024 74.2498 102.982 74.3875 102.951C74.4576 102.935 74.5287 102.924 74.6003 102.918C74.6386 102.918 74.678 102.918 74.7249 102.918C74.7515 102.918 74.7738 102.918 74.8121 102.918C74.8249 102.918 74.859 102.918 74.8877 102.925H74.925L74.9771 102.937L75.0037 102.944L75.025 102.95L75.0857 102.972C75.1652 103.007 75.2375 103.056 75.2986 103.118L75.7456 103.575L74.8249 104.477L74.3864 104.012C74.4439 104.072 74.513 104.12 74.5897 104.153C74.6088 104.161 74.628 104.168 74.6472 104.174H74.6653L74.6855 104.179C74.6987 104.184 74.7122 104.187 74.7259 104.189H74.7462C74.7568 104.189 74.7738 104.189 74.7696 104.189C74.7653 104.189 74.7621 104.189 74.7536 104.189H74.6738C74.6131 104.189 74.5471 104.189 74.4801 104.189C74.3398 104.181 74.2003 104.162 74.0628 104.132C73.9915 104.116 73.9202 104.101 73.8499 104.08C73.7769 104.061 73.7057 104.035 73.6371 104.004C73.5577 103.966 73.4834 103.919 73.4157 103.863C73.3347 103.806 73.2641 103.735 73.207 103.653Z" fill="#592D3D"/>
<path d="M64.0094 81.8706L56.0615 87.7045L60.5469 91.3639L66.8715 81.8652L64.0094 81.8706Z" fill="#E2E2E2"/>
<path d="M67.9606 93.1273C67.9404 92.6824 67.95 92.2375 67.967 91.7936C67.984 91.3498 68.017 90.9038 68.0585 90.4599C68.0798 90.2375 68.1011 90.015 68.1267 89.7926C68.1522 89.5701 68.1788 89.3476 68.2182 89.1252C68.2917 88.6671 68.4197 88.2193 68.5993 87.7915C68.7796 88.2191 68.9079 88.6669 68.9814 89.1252C69.0197 89.3476 69.0484 89.5701 69.0718 89.7926C69.0953 90.015 69.1197 90.2375 69.141 90.4599C69.1825 90.9038 69.2145 91.3487 69.2315 91.7936C69.2485 92.2386 69.2592 92.6824 69.2379 93.1273H67.9606Z" fill="#592D3D"/>
<path d="M41.7549 81.2973L66.5798 81.2866" stroke="#592D3D" stroke-width="1.27728" stroke-miterlimit="10"/>
<path d="M57.291 89.5248L54.912 87.147L52.5342 89.5248L53.7029 90.6935L52.6683 102.043L54.8759 103.764L57.1558 102.043L56.1223 90.6935L57.291 89.5248Z" fill="#E2E2E2"/>
<path d="M54.167 87.147V114.415" stroke="#592D3D" stroke-width="0.638638" stroke-miterlimit="10" stroke-linecap="square"/>
<path d="M54.1669 87.147L56.5459 88.7798L54.1669 91.1587L51.7891 88.7798L54.1669 87.147Z" fill="#633749"/>
<path d="M45.6074 81.3543C45.6074 81.3543 50.213 85.5416 53.5542 87.1882C51.9278 89.8716 49.0699 90.8487 49.0699 90.8487L42.7441 81.3511L45.6074 81.3543Z" fill="white" stroke="#592D3D" stroke-width="1.27728" stroke-miterlimit="10"/>
<path d="M62.7183 81.3554C62.7183 81.3554 58.5267 85.7407 54.7715 87.1894C55.8359 89.348 59.2558 90.8477 59.2558 90.8477L65.5815 81.3501L62.7183 81.3554Z" fill="white" stroke="#592D3D" stroke-width="1.27728" stroke-miterlimit="10"/>
<path d="M56.0574 96.0234L54.5246 98.678L52.9919 96.0234H47.8828L54.5204 107.519L61.158 96.0234H56.0574Z" stroke="white" stroke-width="1.70304"/>
<path d="M56.0574 96.0234L54.5246 98.678L52.9919 96.0234H47.8828L54.5204 107.519L61.158 96.0234H56.0574Z" fill="#44B783"/>
<path d="M56.0575 96.0229L54.5248 98.6776L52.9921 96.0229H50.5439L54.5269 102.921L58.5099 96.0229H56.0575Z" fill="#364A5E"/>
<path d="M51.9238 101.297L54.1314 103.018L56.4113 101.297L55.3469 89.6123H52.9882L51.9238 101.297Z" fill="#633749"/>
<path d="M51.7891 88.7788L52.9578 89.9475L51.9232 101.297L54.1307 103.018L56.4107 101.297L55.3771 89.9475L56.5459 88.7788" stroke="#592D3D" stroke-width="0.851518" stroke-miterlimit="10"/>
<path d="M68.8026 103.099C69.1142 103.055 69.4291 103.038 69.7436 103.049C70.0522 103.056 70.3588 103.081 70.6653 103.118C70.8175 103.137 70.9708 103.158 71.123 103.183C71.2766 103.206 71.429 103.236 71.5796 103.274C71.9011 103.352 72.207 103.484 72.4844 103.664C72.203 103.834 71.8971 103.96 71.5775 104.037C71.4274 104.075 71.2773 104.104 71.1273 104.128C70.9772 104.153 70.8282 104.178 70.6792 104.202C70.3811 104.246 70.0842 104.285 69.7904 104.308C69.4966 104.332 69.2028 104.361 68.9218 104.366L68.2832 104.376L68.1768 103.192L68.8026 103.099Z" fill="#592D3D"/>
<path d="M53.1933 89.5927C53.188 89.5863 53.1933 89.5927 53.1933 89.5927L53.2008 89.598C53.2073 89.6015 53.2134 89.6058 53.2189 89.6108L53.2593 89.6416C53.2859 89.664 53.3147 89.6863 53.3424 89.7108C53.3988 89.7587 53.4584 89.8098 53.5233 89.8588C53.5882 89.9077 53.6585 89.9546 53.7362 90.0099C53.8376 90.0862 53.934 90.1691 54.0246 90.2579C53.9487 90.3818 53.8303 90.4738 53.6915 90.5166C53.5634 90.5522 53.4295 90.562 53.2976 90.5453C53.1637 90.5323 53.033 90.4963 52.9113 90.4389C52.8493 90.4093 52.7905 90.3737 52.7356 90.3324C52.7071 90.3116 52.6797 90.2893 52.6537 90.2654C52.6409 90.2537 52.6271 90.2409 52.6143 90.2271L52.593 90.2047L52.5664 90.1738L53.1933 89.5927Z" fill="#592D3D"/>
<path d="M37.2456 63.3916C38.4778 63.3916 39.4766 62.3928 39.4766 61.1607C39.4766 59.9285 38.4778 58.9297 37.2456 58.9297C36.0135 58.9297 35.0146 59.9285 35.0146 61.1607C35.0146 62.3928 36.0135 63.3916 37.2456 63.3916Z" fill="#592D3D"/>
<path d="M37.2317 62.9617C37.4222 62.951 37.6351 62.934 37.8384 62.9127C38.0417 62.8914 38.2493 62.8659 38.4547 62.8339C38.6601 62.802 38.8666 62.7648 39.0731 62.7275C39.2796 62.6903 39.4904 62.6551 39.7118 62.6392C39.5379 62.773 39.3481 62.8845 39.1466 62.9713C38.9461 63.055 38.7407 63.1261 38.5313 63.1841C38.3216 63.2453 38.1083 63.2936 37.8927 63.3289C37.6734 63.3672 37.4512 63.3865 37.2285 63.3864L37.2317 62.9617Z" fill="#592D3D"/>
<path d="M71.3814 63.3916C72.6135 63.3916 73.6123 62.3928 73.6123 61.1607C73.6123 59.9285 72.6135 58.9297 71.3814 58.9297C70.1492 58.9297 69.1504 59.9285 69.1504 61.1607C69.1504 62.3928 70.1492 63.3916 71.3814 63.3916Z" fill="#592D3D"/>
<path d="M71.382 62.9617C71.5736 62.951 71.7854 62.934 71.9887 62.9127C72.192 62.8914 72.4006 62.8659 72.6061 62.8339C72.8115 62.802 73.018 62.7648 73.2245 62.7275C73.431 62.6903 73.6417 62.6551 73.8631 62.6392C73.6891 62.7727 73.4993 62.8843 73.2979 62.9713C73.0975 63.055 72.892 63.1261 72.6827 63.1841C72.4729 63.2452 72.2597 63.2935 72.0441 63.3289C71.8247 63.3672 71.6025 63.3864 71.3799 63.3864L71.382 62.9617Z" fill="#592D3D"/>
<path d="M50.3052 63.7246C51.9603 63.7246 52.979 65.0828 54.1892 65.0828C55.3994 65.0828 56.947 63.7246 58.582 63.7246C60.2169 63.7246 61.1067 64.9082 61.1067 66.5474C61.1067 68.3196 59.3238 71.4436 54.4436 71.4436C49.5633 71.4436 47.4824 68.491 47.4824 66.6059C47.4824 64.8656 48.6501 63.7246 50.3052 63.7246Z" fill="white" stroke="#592D3D" stroke-width="1.27728" stroke-miterlimit="10"/>
<path d="M51.8047 64.0903V71.0621" stroke="#592D3D" stroke-width="1.27728" stroke-miterlimit="10"/>
<path d="M57.0352 64.0903V71.0621" stroke="#592D3D" stroke-width="1.27728" stroke-miterlimit="10"/>
<path d="M31.7705 70.009C32.2232 70.5767 32.6958 71.1255 33.1883 71.6556C33.668 72.1708 34.1647 72.6675 34.6784 73.1458C35.2234 73.658 35.7943 74.1419 36.3889 74.5955C36.9807 75.0454 37.5924 75.4647 38.2239 75.8536C40.7785 77.2671 43.5364 78.2368 46.3889 78.8658C47.1021 79.0223 47.8216 79.1575 48.5433 79.2671C55.976 79.9292 64.2091 79.9292 70.7264 75.7919C71.3565 75.3576 71.9685 74.8995 72.5625 74.4177C74.2187 73.0713 75.5428 71.5811 76.9159 69.6992C67.9824 69.6992 62.1271 59.6162 54.8392 59.6162C47.5513 59.6162 40.1037 70.009 31.7705 70.009Z" fill="#F3AB98"/>
<path d="M31.9736 71.5193C32.4171 72.0763 32.8812 72.6156 33.3659 73.1372C33.837 73.6438 34.3263 74.1327 34.8337 74.6039C35.3692 75.1074 35.9306 75.5828 36.5154 76.0281C37.0966 76.4708 37.699 76.8796 38.3174 77.2649C40.8241 78.6486 43.533 79.6066 46.3398 80.2239C47.0412 80.3782 47.748 80.5113 48.4569 80.6188C55.7597 81.2692 63.8491 81.2691 70.2525 77.2042C70.872 76.7785 71.4731 76.3282 72.0556 75.8535C73.6838 74.5296 75.1612 73.0304 76.4612 71.383C67.6842 71.383 61.8034 61.3096 54.641 61.3096C47.4787 61.3096 40.1599 71.5193 31.9736 71.5193Z" fill="#85C5E5" stroke="#592D3D" stroke-width="1.27728" stroke-miterlimit="10"/>
<path d="M49.1992 80.6832L49.7846 80.729L49.9251 80.7397C50.0922 80.7514 50.2594 80.7641 50.4275 80.7748L50.5648 80.7844L51.1162 80.8195L51.3291 80.8323L51.8613 80.8599L52.0912 80.8706L52.4478 80.8865L52.7202 80.8972L53.195 80.9121L53.5143 80.9206H53.7708C53.9549 80.9206 54.1391 80.927 54.3232 80.9291H54.5265C54.9225 80.9291 55.3184 80.927 55.7144 80.9227H55.8315C56.0912 80.9227 56.3498 80.911 56.6085 80.9014H56.6383C57.064 80.8851 57.4898 80.8631 57.9156 80.8354H57.9486C59.097 80.7577 60.2402 80.6311 61.3685 80.4437C61.6523 80.3969 61.9344 80.3462 62.2147 80.2915C58.6713 79.2463 48.4584 75.6838 41.6718 67.7646C38.551 69.7955 35.3333 71.5198 31.9688 71.5198L32.006 71.5667L32.2657 71.886L32.3455 71.9818C32.4307 72.0882 32.518 72.1872 32.6053 72.2883L32.7724 72.4821L32.8288 72.5459C32.898 72.6247 32.9682 72.7045 33.0417 72.7822C33.1151 72.8599 33.1811 72.9355 33.2545 73.0121C33.3461 73.1122 33.4387 73.2112 33.5313 73.3091L33.6601 73.4453C33.7974 73.588 33.9358 73.7306 34.0763 73.8711L34.1039 73.8998C34.2412 74.0361 34.3807 74.1713 34.5201 74.3054L34.6883 74.465C34.7894 74.5598 34.8905 74.6545 34.9927 74.7482L35.1162 74.861C35.2226 74.961 35.3386 75.059 35.4504 75.1569C35.6143 75.3006 35.7804 75.44 35.9485 75.5773L35.9932 75.6146C36.1664 75.7565 36.3413 75.8945 36.518 76.0286C37.0991 76.4714 37.7016 76.8801 38.32 77.2655C39.8861 78.127 41.5315 78.8359 43.2333 79.3825C43.4536 79.4549 43.675 79.523 43.8974 79.5954C44.7036 79.8367 45.5196 80.0496 46.3456 80.2341C46.7493 80.3235 47.1545 80.4047 47.5611 80.4778C47.8613 80.5321 48.1614 80.5842 48.4627 80.6289L49.0704 80.6811L49.1992 80.6832Z" fill="#67B7D6"/>
<path d="M62.6578 67.072C61.9638 66.8964 61.274 66.7474 60.5747 66.6228C59.8754 66.4983 59.1814 66.3908 58.4853 66.3035C57.7892 66.2162 57.0888 66.1492 56.3906 66.1023C55.6923 66.0555 54.992 66.0342 54.2927 66.0331H53.7679L53.2432 66.047C53.0686 66.047 52.894 66.0587 52.7195 66.0672C52.5449 66.0757 52.3693 66.081 52.1958 66.0949C51.4965 66.1353 50.8004 66.2109 50.1032 66.2939C48.6999 66.4837 47.307 66.7438 45.9297 67.0731C47.2158 66.4228 48.5797 65.9392 49.9882 65.634C50.3416 65.5637 50.695 65.4839 51.0526 65.4339C51.2315 65.4073 51.4092 65.3743 51.5848 65.3541L52.1234 65.2902C52.8434 65.2164 53.5668 65.1809 54.2905 65.1838C55.0133 65.1838 55.737 65.2253 56.4555 65.3019C57.1735 65.3797 57.8869 65.4952 58.5928 65.6478C59.2974 65.8005 59.9929 65.9928 60.6758 66.2237C61.3595 66.4493 62.0226 66.7331 62.6578 67.072Z" fill="#592D3D"/>
<path d="M39.7744 73.6984C40.9516 74.0667 42.1427 74.3647 43.3412 74.6234C43.6403 74.6862 43.9405 74.7511 44.2406 74.8107C44.5408 74.8703 44.8409 74.9299 45.1432 74.9789C45.7457 75.0853 46.3481 75.1918 46.9527 75.2737C48.164 75.4408 49.3753 75.5867 50.5929 75.6718C51.8106 75.757 53.0283 75.8059 54.247 75.8091H55.1613L56.0746 75.7814C56.379 75.7814 56.6834 75.758 56.9878 75.7421C57.2923 75.7261 57.5967 75.7144 57.9 75.6856C59.1166 75.6048 60.3279 75.4557 61.5381 75.2929C63.963 74.917 66.3609 74.3837 68.7164 73.6963C66.4528 74.7075 64.0833 75.4626 61.652 75.9475C61.0421 76.0539 60.4333 76.1859 59.817 76.2668C59.5094 76.3094 59.2029 76.3605 58.8942 76.3935L57.9682 76.4935C56.7303 76.6 55.4881 76.6755 54.2428 76.6649C52.9974 76.6543 51.7574 76.6 50.5174 76.4776C49.2774 76.3552 48.0512 76.1774 46.8346 75.9305C45.6183 75.6919 44.415 75.3913 43.2294 75.03C42.0463 74.6725 40.8915 74.2274 39.7744 73.6984Z" fill="#592D3D"/>
<path d="M63.1974 71.1255C61.6412 71.3033 60.0851 71.3916 58.529 71.4587C56.9728 71.5257 55.4156 71.5502 53.8594 71.5513C52.3033 71.5523 50.7461 71.5225 49.1899 71.4597C47.6338 71.3969 46.0776 71.3033 44.5215 71.1255C46.0776 70.9467 47.6338 70.8583 49.1899 70.7902C50.7461 70.7221 52.3033 70.6987 53.8594 70.6997C55.4156 70.7008 56.9717 70.7295 58.529 70.7913C60.0862 70.853 61.6412 70.9456 63.1974 71.1255Z" fill="#592D3D"/>
<path d="M31.9736 71.5193C32.4171 72.0763 32.8812 72.6156 33.3659 73.1372C33.837 73.6438 34.3263 74.1327 34.8337 74.6039C35.3692 75.1074 35.9306 75.5828 36.5154 76.0281C37.0966 76.4708 37.699 76.8796 38.3174 77.2649C40.8241 78.6486 43.533 79.6066 46.3398 80.2239C47.0412 80.3782 47.748 80.5113 48.4569 80.6188C55.7597 81.2692 63.8491 81.2691 70.2525 77.2042C70.872 76.7785 71.4731 76.3282 72.0556 75.8535C73.6838 74.5296 75.1612 73.0304 76.4612 71.383C67.6842 71.383 61.8034 61.3096 54.641 61.3096C47.4787 61.3096 40.1599 71.5193 31.9736 71.5193Z" stroke="#592D3D" stroke-width="1.27728" stroke-miterlimit="10"/>
<path d="M72.5771 70.7323C72.5771 70.7323 77.7544 69.603 81.55 61.3081" stroke="#592D3D" stroke-width="1.27728" stroke-miterlimit="10"/>
<path d="M36.0688 70.7388C36.0688 70.7388 30.3775 69.3093 26.8086 61.4136" stroke="#592D3D" stroke-width="1.27728" stroke-miterlimit="10"/>
<path d="M60.3808 43.8965C59.011 46.4511 53.9945 47.8827 53.5868 47.2409C53.1291 46.5245 57.6155 41.3526 55.0663 35.9434" fill="#F3AB98"/>
<path d="M54.1795 24.1978C40.2199 24.1978 27.3183 35.5272 24.999 49.2313C24.999 49.2313 46.4285 50.8524 54.2338 42.1265C53.7388 44.5373 52.3476 46.3702 52.5829 46.7385C52.9107 47.2537 56.9384 46.1084 58.0379 44.0541L57.6483 43.4708C62.9608 45.3995 73.3471 47.7901 80.3477 40.5309C75.7197 30.9237 65.2982 24.1978 54.1795 24.1978Z" fill="#592D3D"/>
<path d="M36.2301 48.9983C35.545 48.2584 35.0792 47.3425 34.8847 46.3531C34.6901 45.3636 34.7745 44.3396 35.1284 43.3953C34.3796 43.346 33.6491 43.1423 32.9829 42.7971C32.3166 42.4519 31.7289 41.9725 31.2568 41.3892C30.7846 40.8059 30.4383 40.1313 30.2394 39.4077C30.0406 38.6841 29.9935 37.9272 30.1013 37.1846C27.5372 40.7705 25.7373 44.8802 24.9922 49.2314C28.7385 49.449 32.4961 49.3711 36.2301 48.9983Z" fill="#592D3D"/>
<path d="M79.6723 42.0576C71.7255 48.1673 62.5792 45.7937 57.7298 43.7702C56.6505 45.6798 52.9123 46.7388 52.6047 46.2567C52.3918 45.9288 53.5435 44.378 54.0715 42.3014C46.1651 50.8453 26.4131 49.965 26.4131 49.965" stroke="#592D3D" stroke-width="1.27728" stroke-miterlimit="10"/>
<path d="M30.8438 15.5088C30.0971 15.5432 29.3644 15.724 28.6874 16.041C28.0474 16.3355 27.4787 16.765 27.0205 17.3002C26.9619 17.3647 26.9075 17.433 26.8577 17.5046C26.8066 17.5748 26.7512 17.6408 26.7023 17.7174C26.6029 17.8622 26.512 18.0125 26.4298 18.1677C26.2606 18.4794 26.1216 18.8066 26.0147 19.1448C25.8101 19.8639 25.7277 20.6123 25.7709 21.3587C25.3933 20.6351 25.2504 19.8118 25.3622 19.0032L25.4186 18.6988L25.4495 18.5455C25.4612 18.4955 25.4782 18.4465 25.4931 18.3965C25.5229 18.2965 25.5527 18.1964 25.5857 18.0974C25.6187 17.9984 25.6666 17.9058 25.7071 17.809C25.7923 17.6177 25.8904 17.4324 26.0008 17.2544C26.0551 17.164 26.1222 17.0831 26.1818 16.9968C26.2413 16.9103 26.306 16.8275 26.3755 16.7488C26.9219 16.106 27.6475 15.6406 28.4596 15.412C29.2426 15.1753 30.0826 15.2094 30.8438 15.5088Z" fill="white"/>
<path d="M39.1423 8.80039C38.4967 8.77846 37.8514 8.85017 37.2264 9.01327C36.6402 9.17218 36.0839 9.42603 35.5798 9.76473C35.0761 10.1075 34.633 10.5316 34.2684 11.0197C34.179 11.1453 34.0768 11.2655 33.9991 11.4007L33.8703 11.6008C33.8246 11.6668 33.7948 11.7392 33.7543 11.8137C33.59 12.1014 33.4443 12.3994 33.3179 12.7057C33.2727 12.3617 33.2867 12.0125 33.3594 11.6732C33.3775 11.588 33.3882 11.4997 33.4148 11.4156L33.4935 11.1644C33.5481 10.9957 33.6161 10.8316 33.6968 10.6737C34.0185 10.0213 34.5059 9.46484 35.1104 9.0601C35.709 8.6571 36.4016 8.41549 37.121 8.35866C37.8241 8.29522 38.5297 8.44942 39.1423 8.80039Z" fill="white"/>
<path d="M46.4234 53.9287L45.0397 53.4615L41.7188 52.3396L37.7166 50.9868L34.2584 49.8159C33.6975 49.6265 33.1397 49.4242 32.5756 49.2475L32.5522 49.239C32.2799 49.1639 31.9889 49.2001 31.7433 49.3395C31.4977 49.4789 31.3175 49.7102 31.2424 49.9825C31.1673 50.2548 31.2035 50.5457 31.3429 50.7913C31.4823 51.037 31.7136 51.2171 31.9859 51.2922L33.3696 51.7595L36.6905 52.8814L40.6927 54.2332L44.1509 55.404C44.7108 55.5935 45.2685 55.7946 45.8337 55.9724L45.8571 55.9809C45.992 56.0181 46.1328 56.0283 46.2716 56.0111C46.4103 55.9939 46.5444 55.9495 46.666 55.8804C46.7876 55.8114 46.8944 55.7191 46.9804 55.6087C47.0663 55.4984 47.1297 55.3722 47.1669 55.2374C47.2041 55.1026 47.2143 54.9618 47.1971 54.823C47.1798 54.6842 47.1354 54.5502 47.0664 54.4286C46.9974 54.307 46.905 54.2001 46.7947 54.1142C46.6844 54.0282 46.5582 53.9649 46.4234 53.9277V53.9287Z" fill="#592D3D"/>
<path d="M75.1508 48.9016L73.7969 49.4444L70.5463 50.7547L66.6282 52.3342L63.2424 53.702C62.6931 53.9234 62.1443 54.1448 61.5957 54.3662L61.5723 54.3747C61.3052 54.4811 61.087 54.6057 60.9337 54.8643C60.791 55.113 60.7528 55.4081 60.8273 55.685C60.9012 55.9534 61.0768 56.1825 61.3169 56.3236C61.5532 56.4492 61.8767 56.5365 62.1365 56.43L63.4914 55.884L66.7421 54.5737L70.6612 52.992L74.0471 51.6275C74.5952 51.4061 75.1455 51.1858 75.6937 50.9633L75.7171 50.9537C75.9843 50.8473 76.2025 50.7227 76.3557 50.4652C76.4264 50.3444 76.4726 50.2109 76.4917 50.0723C76.5107 49.9337 76.5023 49.7927 76.4668 49.6574C76.4313 49.522 76.3695 49.395 76.2849 49.2836C76.2002 49.1722 76.0945 49.0785 75.9736 49.008C75.7373 48.8835 75.4127 48.7951 75.153 48.9016H75.1508Z" fill="#592D3D"/>
<path opacity="0.2" d="M41.7006 67.4861C43.6898 67.4861 45.3025 65.8734 45.3025 63.8841C45.3025 61.8949 43.6898 60.2822 41.7006 60.2822C39.7113 60.2822 38.0986 61.8949 38.0986 63.8841C38.0986 65.8734 39.7113 67.4861 41.7006 67.4861Z" fill="white"/>
<path opacity="0.4" d="M40.9503 67.7524L45.5602 63.3096C45.315 62.8386 45.0461 62.3803 44.7545 61.9365L39.8721 66.6422C40.0743 66.7838 40.7215 67.6545 40.9503 67.7524Z" fill="white"/>
<path d="M41.7006 67.4861C43.6898 67.4861 45.3025 65.8734 45.3025 63.8841C45.3025 61.8949 43.6898 60.2822 41.7006 60.2822C39.7113 60.2822 38.0986 61.8949 38.0986 63.8841C38.0986 65.8734 39.7113 67.4861 41.7006 67.4861Z" stroke="#592D3D" stroke-width="1.27728" stroke-miterlimit="10"/>
<path d="M41.1776 62.3742C41.3074 62.7818 40.805 63.0958 40.4325 63.1586C40.0557 63.1586 39.8045 62.9074 39.6789 62.5934C39.6161 62.2794 39.6789 61.9654 39.9301 61.777C40.2441 61.6514 40.6837 61.5258 40.9626 61.8483C41.0318 61.9171 41.0864 61.9991 41.1234 62.0894C41.1603 62.1798 41.1787 62.2766 41.1776 62.3742Z" fill="white"/>
<path d="M41.85 62.1329C41.8414 62.1887 41.8138 62.2398 41.7717 62.2775C41.7296 62.3152 41.6758 62.3372 41.6193 62.3395C41.5629 62.3419 41.5074 62.3246 41.4623 62.2906C41.4172 62.2566 41.3853 62.208 41.3721 62.1531C41.3721 61.9647 41.4349 61.9019 41.6137 61.8955C41.6764 61.8955 41.7365 61.9204 41.7808 61.9647C41.8251 62.009 41.85 62.0691 41.85 62.1318V62.1329Z" fill="white"/>
<path opacity="0.2" d="M66.4242 67.4861C68.4135 67.4861 70.0261 65.8734 70.0261 63.8841C70.0261 61.8949 68.4135 60.2822 66.4242 60.2822C64.4349 60.2822 62.8223 61.8949 62.8223 63.8841C62.8223 65.8734 64.4349 67.4861 66.4242 67.4861Z" fill="white"/>
<path opacity="0.4" d="M65.884 67.4444L69.9861 63.3422C69.9638 63.1964 69.3571 62.48 69.3166 62.3374L64.876 66.7802C65.0197 66.8196 65.7381 67.4231 65.884 67.4444Z" fill="white"/>
<path d="M66.4242 67.4861C68.4135 67.4861 70.0261 65.8734 70.0261 63.8841C70.0261 61.8949 68.4135 60.2822 66.4242 60.2822C64.4349 60.2822 62.8223 61.8949 62.8223 63.8841C62.8223 65.8734 64.4349 67.4861 66.4242 67.4861Z" stroke="#592D3D" stroke-width="1.27728" stroke-miterlimit="10"/>
<path d="M65.5904 62.3141C65.6969 62.66 65.2711 62.9261 64.9518 62.9793C64.6325 62.9793 64.4196 62.7664 64.3131 62.5003C64.2599 62.2342 64.3131 61.9681 64.526 61.8085C64.7921 61.702 65.1647 61.5956 65.402 61.8691C65.4615 61.927 65.5088 61.9962 65.5411 62.0726C65.5735 62.149 65.5902 62.2311 65.5904 62.3141Z" fill="white"/>
<path d="M66.1584 62.1109C66.1509 62.158 66.1274 62.201 66.0918 62.2328C66.0562 62.2645 66.0107 62.2829 65.9631 62.2849C65.9155 62.2869 65.8686 62.2724 65.8305 62.2438C65.7923 62.2151 65.7653 62.1742 65.7539 62.1279C65.7539 61.9683 65.8071 61.915 65.9583 61.915C66.0106 61.915 66.0609 61.9355 66.0983 61.9721C66.1357 62.0087 66.1573 62.0586 66.1584 62.1109Z" fill="white"/>
<path d="M45.3008 63.8842C51.2387 61.7554 57.0798 61.7554 62.824 63.8842" stroke="#592D3D" stroke-width="1.27728" stroke-miterlimit="10"/>
<path opacity="0.15" d="M66.425 68.1252C65.3808 68.1237 64.3737 67.7376 63.5961 67.0405C62.8186 66.3435 62.3251 65.3844 62.21 64.3466C56.888 62.4679 51.4106 62.469 45.9141 64.3466C45.8467 64.9637 45.6446 65.5585 45.3219 66.0889C44.9993 66.6193 44.5641 67.0723 44.047 67.416C43.53 67.7596 42.9438 67.9854 42.3298 68.0774C41.7159 68.1694 41.0892 68.1254 40.4941 67.9485C41.0767 68.2345 41.7196 68.376 42.3684 68.3612C43.0173 68.3464 43.653 68.1757 44.222 67.8635C44.7909 67.5513 45.2764 67.1068 45.6374 66.5675C45.9985 66.0282 46.2244 65.4099 46.2962 64.7649C51.5351 62.9703 56.7571 62.9682 61.8289 64.7649C61.8993 65.4107 62.1242 66.0301 62.4847 66.5707C62.8451 67.1112 63.3305 67.5569 63.8996 67.8702C64.4688 68.1834 65.105 68.3549 65.7545 68.3702C66.404 68.3855 67.0477 68.2442 67.631 67.9581C67.239 68.0713 66.8329 68.1276 66.425 68.1252Z" fill="black"/>
</g>
</svg>
