<svg width="26" height="26" viewBox="0 0 26 26" fill="none" xmlns="http://www.w3.org/2000/svg">
<path d="M18.0037 15.9385H16.8659L16.4626 15.5496C17.8741 13.9077 18.7239 11.776 18.7239 9.45716C18.7239 4.28648 14.5326 0.0952148 9.36194 0.0952148C4.19127 0.0952148 0 4.28648 0 9.45716C0 14.6278 4.19127 18.8191 9.36194 18.8191C11.6808 18.8191 13.8125 17.9693 15.4544 16.5578L15.8433 16.9611V18.0989L23.0448 25.286L25.1908 23.14L18.0037 15.9385ZM9.36194 15.9385C5.7756 15.9385 2.8806 13.0435 2.8806 9.45716C2.8806 5.87081 5.7756 2.97581 9.36194 2.97581C12.9483 2.97581 15.8433 5.87081 15.8433 9.45716C15.8433 13.0435 12.9483 15.9385 9.36194 15.9385Z" fill="white"/>
</svg>
