<svg width="30" height="31" viewBox="0 0 30 31" fill="none" xmlns="http://www.w3.org/2000/svg">
<path d="M28.3538 12.1339L26.0037 11.8252C25.81 11.2091 25.5712 10.6149 25.2925 10.0505L26.7438 8.11942C27.3313 7.33796 27.2625 6.23488 26.5913 5.56321L24.6225 3.52883C23.9662 2.82875 22.8987 2.759 22.1412 3.36479L20.275 4.86442C19.7287 4.57638 19.1537 4.32967 18.5562 4.12946L18.2575 1.705C18.145 0.732375 17.3463 0 16.4 0H13.6C12.6538 0 11.855 0.732375 11.7425 1.70113L11.4437 4.12946C10.8462 4.32967 10.2713 4.57508 9.725 4.86442L7.8575 3.36479C7.1025 2.759 6.035 2.82875 5.38375 3.52237L3.415 5.55546C2.7375 6.23488 2.66875 7.33796 3.25625 8.12071L4.7075 10.0505C4.4275 10.6149 4.19 11.2091 3.99625 11.8252L1.65 12.1339C0.70875 12.2502 0 13.0755 0 14.0533V16.9467C0 17.9245 0.70875 18.7498 1.64625 18.8661L3.99625 19.1748C4.19 19.7909 4.42875 20.3851 4.7075 20.9495L3.25625 22.8806C2.66875 23.662 2.7375 24.7651 3.40875 25.4368L5.3775 27.4712C6.035 28.17 7.10125 28.2397 7.85875 27.6339L9.72625 26.1343C10.2725 26.4236 10.8475 26.6703 11.4437 26.8692L11.7425 29.2924C11.855 30.2676 12.6538 31 13.6 31H16.4C17.3463 31 18.145 30.2676 18.2575 29.2989L18.5562 26.8705C19.1525 26.6703 19.7275 26.4236 20.2738 26.1356L22.1425 27.6352C22.8988 28.2423 23.9663 28.1712 24.6163 27.4776L26.585 25.4432C27.2625 24.7638 27.3313 23.662 26.7438 22.8793L25.2925 20.9495C25.5725 20.3851 25.8112 19.7909 26.0037 19.1748L28.3488 18.8661C29.29 18.7498 29.9988 17.9245 29.9988 16.9467V14.0533C30 13.0755 29.2913 12.2502 28.3538 12.1339ZM15 21.9583C11.5538 21.9583 8.75 19.0611 8.75 15.5C8.75 11.9389 11.5538 9.04167 15 9.04167C18.4463 9.04167 21.25 11.9389 21.25 15.5C21.25 19.0611 18.4463 21.9583 15 21.9583Z" fill="white"/>
</svg>
